<svg width="51" height="51" viewBox="0 0 51 51" fill="none" xmlns="http://www.w3.org/2000/svg">
<path d="M18.3148 10.9837C18.434 10.9837 18.5547 10.9513 18.6634 10.8835C18.8992 10.7362 19.1425 10.5949 19.3869 10.4633C19.7073 10.2907 19.8274 9.89096 19.6547 9.5704C19.4822 9.24985 19.0824 9.12987 18.7619 9.30241C18.4927 9.44735 18.2246 9.6031 17.965 9.76527C17.6562 9.95811 17.5622 10.3648 17.7551 10.6736C17.8801 10.8738 18.095 10.9837 18.3148 10.9837Z" fill="#01737F"/>
<path d="M15.1246 12.0969C14.9155 12.3193 14.7107 12.5516 14.5158 12.7875C14.2838 13.0682 14.3234 13.4837 14.604 13.7156C14.7269 13.8172 14.8757 13.8667 15.0235 13.8667C15.2133 13.8667 15.4017 13.7851 15.532 13.6274C15.7091 13.4131 15.895 13.2021 16.085 13.0002C16.3343 12.735 16.3215 12.3178 16.0563 12.0684C15.7912 11.819 15.3742 11.8317 15.1246 12.0969Z" fill="#01737F"/>
<path d="M11.816 25.794C11.8993 26.0829 12.1628 26.2708 12.449 26.2708C12.5095 26.2708 12.571 26.2624 12.6319 26.2449C12.9817 26.144 13.1835 25.7787 13.0827 25.4288C13.006 25.1625 12.937 24.89 12.8775 24.6185C12.7996 24.2629 12.4486 24.0379 12.0925 24.1155C11.7369 24.1934 11.5119 24.5448 11.5896 24.9005C11.6552 25.1997 11.7313 25.5003 11.816 25.794Z" fill="#01737F"/>
<path d="M22.3501 9.29485C22.4005 9.29485 22.4518 9.28896 22.503 9.27684C22.773 9.21258 23.0486 9.15651 23.3217 9.1101C23.6807 9.0491 23.9222 8.70877 23.8613 8.34981C23.8003 7.99093 23.4604 7.74931 23.101 7.81031C22.7996 7.86155 22.4959 7.92334 22.1982 7.99418C21.844 8.07839 21.6251 8.43375 21.7094 8.78796C21.7813 9.09094 22.0518 9.29485 22.3501 9.29485Z" fill="#01737F"/>
<path d="M11.9338 21.9256C12.2848 21.9256 12.5766 21.6488 12.5919 21.2948C12.6039 21.0156 12.6249 20.7349 12.6543 20.4604C12.693 20.0984 12.431 19.7735 12.0691 19.7347C11.7059 19.6963 11.3823 19.9581 11.3435 20.32C11.3111 20.6222 11.2879 20.9311 11.2747 21.238C11.259 21.6017 11.5412 21.9093 11.9049 21.925C11.9147 21.9254 11.9242 21.9256 11.9338 21.9256Z" fill="#01737F"/>
<path d="M13.434 17.2189C13.5334 16.96 13.6424 16.7012 13.7582 16.4499C13.9103 16.1192 13.7656 15.7277 13.4349 15.5755C13.1039 15.4232 12.7127 15.5681 12.5605 15.8987C12.433 16.1757 12.3129 16.4609 12.2033 16.7464C12.0729 17.0863 12.2426 17.4676 12.5825 17.598C12.6601 17.6278 12.74 17.642 12.8185 17.642C13.0835 17.6421 13.3334 17.4811 13.434 17.2189Z" fill="#01737F"/>
<path d="M34.7788 12.8584C34.9082 12.9919 35.0802 13.059 35.2524 13.059C35.4176 13.059 35.583 12.9973 35.711 12.8732C35.9725 12.6199 35.9792 12.2026 35.7259 11.9411C35.5136 11.7219 35.291 11.5064 35.0644 11.3005C34.795 11.0558 34.3781 11.0757 34.1332 11.3452C33.8885 11.6147 33.9084 12.0316 34.178 12.2763C34.3838 12.4636 34.586 12.6593 34.7788 12.8584Z" fill="#01737F"/>
<path d="M26.6555 8.97949C26.932 9.00401 27.2113 9.03794 27.4854 9.08021C27.5196 9.08549 27.5533 9.08804 27.5867 9.08804C27.9064 9.08804 28.1872 8.85503 28.2374 8.5292C28.2929 8.16936 28.0462 7.83272 27.6864 7.77726C27.3842 7.73068 27.0766 7.69332 26.7718 7.66625C26.4111 7.63461 26.0891 7.90198 26.057 8.26464C26.0248 8.62729 26.2929 8.94732 26.6555 8.97949Z" fill="#01737F"/>
<path d="M30.6866 10.0109C30.9405 10.1224 31.1941 10.2436 31.4404 10.3713C31.5375 10.4216 31.6411 10.4454 31.7433 10.4454C31.9817 10.4454 32.2117 10.3157 32.329 10.0895C32.4965 9.76632 32.3705 9.36842 32.0472 9.20081C31.7757 9.06 31.4961 8.92631 31.2161 8.80352C30.8828 8.65735 30.494 8.80906 30.3477 9.14236C30.2014 9.47574 30.3531 9.86468 30.6866 10.0109Z" fill="#01737F"/>
<path d="M46.0225 26.808H41.4961C41.132 26.808 40.8369 27.1032 40.8369 27.4672C40.8369 27.8313 41.132 28.1264 41.4961 28.1264H46.0225C46.386 28.1264 46.6816 28.4221 46.6816 28.7856V36.4707C45.9596 36.0456 45.094 35.6232 43.5906 35.6232C41.8992 35.6232 41.0146 36.158 40.2342 36.6298C39.5097 37.0679 38.8839 37.4462 37.56 37.4462C36.2361 37.4462 35.6102 37.0679 34.8856 36.6297C34.1052 36.158 33.2207 35.6232 31.5292 35.6232C29.8378 35.6232 28.9532 36.158 28.1728 36.6298C27.4483 37.0679 26.8225 37.4462 25.4987 37.4462C24.1749 37.4462 23.549 37.0679 22.8244 36.6298C22.0441 36.158 21.1596 35.6232 19.4682 35.6232C17.7769 35.6232 16.892 36.1578 16.1113 36.6294C15.6947 36.8811 15.301 37.1189 14.7896 37.2702C14.4405 37.3735 14.2413 37.7403 14.3446 38.0893C14.4479 38.4384 14.8145 38.6377 15.1637 38.5344C15.8376 38.3351 16.3233 38.0417 16.793 37.758C17.518 37.32 18.1443 36.9417 19.4682 36.9417C20.7921 36.9417 21.4178 37.32 22.1424 37.758C22.9228 38.2299 23.8072 38.7646 25.4987 38.7646C27.19 38.7646 28.0745 38.2299 28.8549 37.7581C29.5794 37.3201 30.2052 36.9417 31.5292 36.9417C32.853 36.9417 33.4789 37.32 34.2035 37.758C34.9839 38.2299 35.8685 38.7646 37.5599 38.7646C39.2513 38.7646 40.1358 38.2299 40.9162 37.758C41.6408 37.32 42.2665 36.9417 43.5905 36.9417C44.9147 36.9417 45.5406 37.3201 46.2655 37.7581C46.4003 37.8397 46.5377 37.9227 46.6816 38.0045V44.8383C46.6816 45.2019 46.3859 45.4975 46.0224 45.4975H4.97745C4.61394 45.4975 4.31827 45.2019 4.31827 44.8383V38.0043C4.46206 37.9226 4.59926 37.8396 4.73399 37.7582C5.45856 37.3201 6.08443 36.9418 7.40842 36.9418C8.73267 36.9418 9.35889 37.3201 10.084 37.758C10.5538 38.0419 11.0396 38.3352 11.7137 38.5346C12.063 38.638 12.4295 38.4385 12.5327 38.0894C12.636 37.7403 12.4366 37.3735 12.0875 37.2703C11.5762 37.119 11.1824 36.8812 10.7656 36.6295C9.98484 36.1579 9.09987 35.6233 7.40842 35.6233C5.90558 35.6233 5.04003 36.0455 4.31827 36.4705V28.7857C4.31827 28.4222 4.61394 28.1265 4.97745 28.1265H17.2504C19.1467 30.6126 22.1389 32.2202 25.4999 32.2202C28.8609 32.2202 31.853 30.6127 33.7494 28.1265H38.4199C38.7841 28.1265 39.0791 27.8314 39.0791 27.4673C39.0791 27.1032 38.7841 26.8081 38.4199 26.8081H34.6064C35.3923 25.3707 35.8471 23.728 35.8694 21.9828L36.7792 23.6462C36.9411 23.9423 37.2513 24.1262 37.5888 24.1262C37.9263 24.1262 38.2366 23.9423 38.3985 23.6462L39.6502 21.3573L41.9389 20.1055C42.235 19.9436 42.419 19.6333 42.419 19.2959C42.4191 18.9584 42.2351 18.648 41.939 18.4861L39.6502 17.2343L38.3986 14.9455C38.2366 14.6493 37.9263 14.4654 37.5888 14.4654C37.2513 14.4654 36.9411 14.6494 36.7792 14.9454L35.5274 17.2343L34.9419 17.5545C33.272 13.8904 29.5693 11.4769 25.5001 11.4769C23.0176 11.4769 20.6157 12.3681 18.7366 13.9862C18.4607 14.2237 18.4296 14.6399 18.6671 14.9158C18.9047 15.1919 19.3209 15.2227 19.5967 14.9853C21.2367 13.5731 23.3332 12.7954 25.5001 12.7954C29.085 12.7954 32.343 14.9414 33.781 18.1895L33.2387 18.4861C32.9426 18.6481 32.7585 18.9584 32.7586 19.2959C32.7586 19.6334 32.9427 19.9437 33.2387 20.1055L34.4912 20.7905C34.5318 21.1406 34.5528 21.4951 34.5528 21.8485C34.5528 26.8404 30.4917 30.9017 25.5001 30.9017C20.5084 30.9017 16.4474 26.8404 16.4474 21.8485C16.4474 20.2013 16.8943 18.5886 17.7397 17.1847C17.9275 16.8729 17.827 16.4678 17.515 16.2799C17.2034 16.0921 16.7981 16.1927 16.6103 16.5045C15.6411 18.1136 15.1289 19.9616 15.1289 21.8485C15.1289 23.6438 15.5876 25.3338 16.3936 26.808H4.97754C3.88717 26.808 3 27.6951 3 28.7856V44.8382C3 45.9287 3.88717 46.8158 4.97754 46.8158H46.0225C47.1128 46.8158 48 45.9287 48 44.8382V28.7856C48 27.6952 47.1128 26.808 46.0225 26.808ZM37.2417 15.578L37.2425 15.5793C37.2422 15.5789 37.2419 15.5784 37.2417 15.578ZM36.2619 18.3352C36.4167 18.2504 36.5434 18.1237 36.6284 17.9685L37.5887 16.2125L38.5493 17.9688C38.6341 18.1236 38.7608 18.2504 38.916 18.3353L40.6719 19.2957L38.9161 20.2561C38.7609 20.3409 38.634 20.4677 38.5491 20.623L37.5887 22.379L36.6284 20.6229C36.5435 20.4677 36.4165 20.3409 36.2615 20.2561L34.5055 19.2957L36.2619 18.3352Z" fill="#01737F"/>
<path d="M25.6315 17.498C26.5034 17.498 27.3443 17.7547 28.0634 18.2406C28.3651 18.4445 28.7748 18.3651 28.9786 18.0634C29.1824 17.7617 29.1031 17.3519 28.8013 17.1481C27.8636 16.5145 26.7674 16.1796 25.6315 16.1796C22.5058 16.1796 19.9629 18.7226 19.9629 21.8485C19.9629 24.9744 22.5058 27.5174 25.6315 27.5174C26.8638 27.5174 27.966 27.1157 28.8193 26.3558C28.9865 26.2068 29.1459 26.0425 29.2925 25.8677C29.5265 25.5888 29.4901 25.173 29.2112 24.939C28.9322 24.705 28.5167 24.7413 28.2825 25.0203C28.1768 25.1464 28.0624 25.2645 27.9425 25.3713C27.3258 25.9205 26.5484 26.199 25.6316 26.199C23.2329 26.199 21.2813 24.2474 21.2813 21.8485C21.2813 19.4497 23.2328 17.498 25.6315 17.498Z" fill="#01737F"/>
<path d="M37.5601 30.0601C36.2802 30.0601 35.2391 31.1014 35.2391 32.3812C35.2391 33.6611 36.2803 34.7024 37.5601 34.7024C38.8399 34.7024 39.881 33.6611 39.881 32.3812C39.881 31.1014 38.8398 30.0601 37.5601 30.0601ZM37.5601 33.3839C37.0073 33.3839 36.5574 32.9341 36.5574 32.3812C36.5574 31.8284 37.0073 31.3785 37.5601 31.3785C38.1129 31.3785 38.5627 31.8284 38.5627 32.3812C38.5627 32.9341 38.1129 33.3839 37.5601 33.3839Z" fill="#01737F"/>
<path d="M15.7599 32.3812C15.7599 31.1014 14.7186 30.0601 13.4389 30.0601C12.1591 30.0601 11.1179 31.1014 11.1179 32.3812C11.1179 33.6611 12.1592 34.7024 13.4389 34.7024C14.7186 34.7024 15.7599 33.6611 15.7599 32.3812ZM13.4389 33.3839C12.886 33.3839 12.4363 32.9341 12.4363 32.3812C12.4363 31.8284 12.886 31.3785 13.4389 31.3785C13.9917 31.3785 14.4415 31.8284 14.4415 32.3812C14.4415 32.9341 13.9917 33.3839 13.4389 33.3839Z" fill="#01737F"/>
<path d="M21.7894 41.2168C21.7894 39.937 20.7482 38.8957 19.4685 38.8957C18.1886 38.8957 17.1475 39.937 17.1475 41.2168C17.1475 42.4966 18.1887 43.5379 19.4685 43.5379C20.7483 43.5379 21.7894 42.4967 21.7894 41.2168ZM18.4658 41.2168C18.4658 40.6639 18.9157 40.2141 19.4685 40.2141C20.0213 40.2141 20.4711 40.6639 20.4711 41.2168C20.4711 41.7696 20.0213 42.2195 19.4685 42.2195C18.9157 42.2195 18.4658 41.7697 18.4658 41.2168Z" fill="#01737F"/>
<path d="M33.8503 41.2168C33.8503 39.937 32.8091 38.8957 31.5294 38.8957C30.2495 38.8957 29.2084 39.937 29.2084 41.2168C29.2084 42.4966 30.2496 43.5379 31.5294 43.5379C32.8091 43.5379 33.8503 42.4967 33.8503 41.2168ZM30.5266 41.2168C30.5266 40.6639 30.9765 40.2141 31.5293 40.2141C32.0821 40.2141 32.5319 40.6639 32.5319 41.2168C32.5319 41.7696 32.0821 42.2195 31.5293 42.2195C30.9765 42.2195 30.5266 41.7697 30.5266 41.2168Z" fill="#01737F"/>
<path d="M6.60018 9.82433L8.88894 11.0762L10.1407 13.365C10.3026 13.6611 10.6128 13.8451 10.9503 13.8451C11.2878 13.8451 11.5981 13.6611 11.76 13.365L13.0117 11.0761L15.3004 9.82433C15.5966 9.66243 15.7805 9.35216 15.7805 9.01464C15.7805 8.67713 15.5966 8.36677 15.3005 8.20496L13.0117 6.95307L11.76 4.66429C11.5981 4.36817 11.2878 4.1842 10.9503 4.1842C10.6128 4.1842 10.3026 4.36817 10.1407 4.66429L8.88894 6.95316L6.60026 8.20496C6.30407 8.36686 6.12012 8.67713 6.12012 9.01464C6.12012 9.35216 6.30407 9.66252 6.60018 9.82433ZM9.62344 8.05413C9.77839 7.96931 9.90513 7.84248 9.98994 7.68743L10.9503 5.93147L11.9107 7.68752C11.9955 7.84248 12.1223 7.96931 12.2776 8.0543L14.0334 9.01473L12.2773 9.97534C12.1223 10.0602 11.9956 10.187 11.9108 10.342L10.9504 12.098L9.98994 10.3419C9.90513 10.1869 9.77839 10.0601 9.62309 9.97507L7.8673 9.01464L9.62344 8.05413Z" fill="#01737F"/>
<path d="M7.40859 32.9922C7.77265 32.9922 8.06777 32.6971 8.06777 32.333C8.06777 31.9689 7.77265 31.6738 7.40859 31.6738C7.04454 31.6738 6.74941 31.9689 6.74941 32.333C6.74941 32.6971 7.04454 32.9922 7.40859 32.9922Z" fill="#01737F"/>
<path d="M7.40859 41.8283C7.77265 41.8283 8.06777 41.5331 8.06777 41.1691C8.06777 40.805 7.77265 40.5099 7.40859 40.5099C7.04454 40.5099 6.74941 40.805 6.74941 41.1691C6.74941 41.5331 7.04454 41.8283 7.40859 41.8283Z" fill="#01737F"/>
<path d="M13.4388 41.8283C13.8028 41.8283 14.0979 41.5331 14.0979 41.1691C14.0979 40.805 13.8028 40.5099 13.4388 40.5099C13.0747 40.5099 12.7796 40.805 12.7796 41.1691C12.7796 41.5331 13.0747 41.8283 13.4388 41.8283Z" fill="#01737F"/>
<path d="M25.4991 41.8283C25.8632 41.8283 26.1583 41.5331 26.1583 41.1691C26.1583 40.805 25.8632 40.5099 25.4991 40.5099C25.1351 40.5099 24.8399 40.805 24.8399 41.1691C24.8399 41.5331 25.1351 41.8283 25.4991 41.8283Z" fill="#01737F"/>
<path d="M37.5604 41.8283C37.9244 41.8283 38.2195 41.5331 38.2195 41.1691C38.2195 40.805 37.9244 40.5099 37.5604 40.5099C37.1963 40.5099 36.9012 40.805 36.9012 41.1691C36.9012 41.5331 37.1963 41.8283 37.5604 41.8283Z" fill="#01737F"/>
<path d="M43.5905 41.8283C43.9546 41.8283 44.2497 41.5331 44.2497 41.1691C44.2497 40.805 43.9546 40.5099 43.5905 40.5099C43.2265 40.5099 42.9313 40.805 42.9313 41.1691C42.9313 41.5331 43.2265 41.8283 43.5905 41.8283Z" fill="#01737F"/>
<path d="M43.5905 32.9929C43.9546 32.9929 44.2497 32.6978 44.2497 32.3337C44.2497 31.9696 43.9546 31.6745 43.5905 31.6745C43.2265 31.6745 42.9313 31.9696 42.9313 32.3337C42.9313 32.6978 43.2265 32.9929 43.5905 32.9929Z" fill="#01737F"/>
</svg>
