<svg width="51" height="51" viewBox="0 0 51 51" fill="none" xmlns="http://www.w3.org/2000/svg">
<path d="M14.671 29.5954C15.538 29.5954 16.2408 28.8901 16.2408 28.0201C16.2408 27.1501 15.538 26.4448 14.671 26.4448C13.8041 26.4448 13.1013 27.1501 13.1013 28.0201C13.1013 28.8901 13.8041 29.5954 14.671 29.5954Z" fill="#01737F"/>
<path d="M26.1849 29.5954C27.0518 29.5954 27.7546 28.8901 27.7546 28.0201C27.7546 27.1501 27.0518 26.4448 26.1849 26.4448C25.3179 26.4448 24.6151 27.1501 24.6151 28.0201C24.6151 28.8901 25.3179 29.5954 26.1849 29.5954Z" fill="#01737F"/>
<path fill-rule="evenodd" clip-rule="evenodd" d="M6.61684 19.5635L7.12383 22.8332C9.72418 18.2047 14.0574 15.3967 17.8397 13.7277C19.9554 12.7941 21.9204 12.2068 23.3567 11.8527C24.0756 11.6755 24.6637 11.5562 25.0742 11.4809C25.2795 11.4433 25.4405 11.4166 25.5514 11.3992C25.6069 11.3905 25.6498 11.3841 25.6795 11.3798C25.6943 11.3777 25.7059 11.3761 25.714 11.3749L25.7236 11.3736L25.7265 11.3732C25.7269 11.3732 25.7281 11.373 25.8178 12.0507L25.7281 11.373C26.1011 11.3233 26.4436 11.5864 26.4931 11.9607C26.5426 12.3348 26.2806 12.6785 25.9078 12.7283L25.9009 12.7293C25.8953 12.7301 25.8864 12.7313 25.8741 12.7331C25.8496 12.7366 25.812 12.7422 25.762 12.7501C25.6619 12.7658 25.5123 12.7905 25.319 12.8259C24.9323 12.8968 24.3712 13.0105 23.6818 13.1805C22.3018 13.5207 20.4149 14.0849 18.3882 14.9793C14.3209 16.7741 9.77667 19.859 7.54954 25.0458C7.53155 25.0877 7.50989 25.1269 7.48509 25.1631L7.94066 28.1012C7.94605 28.136 7.94876 28.1711 7.94876 28.2063C7.94876 29.4336 8.07712 30.5745 8.32804 31.6465C8.33907 31.6768 8.3481 31.7083 8.35493 31.7408C8.35897 31.76 8.36217 31.7793 8.36454 31.7984C9.16028 35.0282 11.0796 37.6328 13.9613 40.0995C16.1144 41.9425 18.4081 42.9763 20.2149 42.9763C22.0216 42.9763 24.3153 41.9425 26.4684 40.0995C26.7547 39.8544 27.1846 39.8887 27.4288 40.1759C27.673 40.4632 27.6389 40.8947 27.3526 41.1397C25.0742 43.09 22.4757 44.3436 20.2149 44.3436C17.954 44.3436 15.3555 43.09 13.0771 41.1397C10.1712 38.6524 8.12005 35.9546 7.17449 32.6282C5.34839 32.6779 3.74209 31.3369 3.495 29.479L3.03222 25.9995C2.79167 24.1909 3.92219 22.5157 5.62028 22.0291L5.26761 19.7546C5.26566 19.7421 5.26406 19.7294 5.26281 19.7168C4.38063 10.7631 11.3894 3 20.3551 3C29.6451 3 36.7516 11.3058 35.3465 20.5212C35.3447 20.533 35.3426 20.5446 35.3402 20.5562L34.3673 25.2783C34.306 25.5757 34.0567 25.7968 33.7551 25.8213C33.4535 25.8458 33.172 25.6677 33.0639 25.3841C31.5354 21.3735 29.3444 18.9818 27.5584 17.5953C26.6632 16.9003 25.8661 16.4552 25.2995 16.1856C25.0162 16.0509 24.7908 15.9602 24.64 15.9043C24.5646 15.8763 24.5079 15.8571 24.472 15.8454C24.454 15.8395 24.4413 15.8356 24.434 15.8333C24.4304 15.8322 24.4281 15.8315 24.4272 15.8313C24.4275 15.8314 24.4288 15.8317 24.6151 15.1742L24.4288 15.8317C24.4282 15.8316 24.4278 15.8314 24.4272 15.8313C24.0664 15.7273 23.8571 15.3498 23.9598 14.9872C24.0627 14.624 24.4395 14.4133 24.8014 14.5166L24.6199 15.1571C24.8014 14.5166 24.801 14.5165 24.8014 14.5166L24.8032 14.5171L24.8054 14.5178L24.8116 14.5196C24.8165 14.521 24.8228 14.5229 24.8304 14.5252C24.8458 14.5299 24.8667 14.5364 24.893 14.545C24.9455 14.5621 25.0193 14.5873 25.1123 14.6218C25.2982 14.6907 25.5609 14.7969 25.883 14.9501C26.5271 15.2565 27.4101 15.7515 28.3921 16.5139C30.0315 17.7866 31.937 19.7971 33.4667 22.8967L34.0023 20.297C35.2696 11.9164 28.8047 4.36727 20.3551 4.36727C12.2011 4.36727 5.82554 11.4221 6.61684 19.5635ZM5.83243 23.3973C4.86591 23.7567 4.24063 24.7503 4.38272 25.8186L4.8455 29.2981C4.98649 30.3582 5.83743 31.1484 6.85356 31.2508C6.68003 30.3063 6.58933 29.312 6.58636 28.2597L5.83243 23.3973ZM11.1451 23.4064C12.8799 22.4547 14.9329 22.2764 16.8048 22.9149L18.1568 23.376C18.513 23.4975 18.7036 23.8858 18.5825 24.2433C18.4614 24.6008 18.0745 24.7921 17.7183 24.6706L16.3664 24.2094C14.8556 23.6941 13.1988 23.838 11.7987 24.6061L10.8231 25.1413C10.493 25.3225 10.0791 25.2007 9.89859 24.8695C9.7181 24.5382 9.83939 24.1228 10.1695 23.9417L11.1451 23.4064ZM24.0677 24.208L23.6607 24.353C23.6578 24.354 23.655 24.355 23.6521 24.356C22.5687 24.7255 21.8401 25.7463 21.8401 26.8945V32.3128C21.8401 32.6904 21.5351 32.9964 21.1589 32.9964C20.7826 32.9964 20.4776 32.6904 20.4776 32.3128V26.8945C20.4776 25.1623 21.5758 23.6222 23.2091 23.063L23.6164 22.9179C23.6193 22.9169 23.6222 22.9159 23.6251 22.9149C25.497 22.2764 27.55 22.4547 29.2848 23.4064L30.2604 23.9417C30.5905 24.1228 30.7118 24.5382 30.5313 24.8695C30.3508 25.2007 29.9369 25.3225 29.6068 25.1413L28.6313 24.6061C27.2325 23.8387 25.5774 23.6944 24.0677 24.208ZM12.8872 26.6422L12.8626 26.6342C12.5047 26.5179 12.1205 26.7148 12.0046 27.074C11.891 27.4261 12.0773 27.8035 12.4219 27.9278C12.4207 27.9584 12.42 27.9892 12.42 28.0201C12.42 29.2677 13.4278 30.279 14.671 30.279C15.9142 30.279 16.922 29.2677 16.922 28.0201C16.922 26.7725 15.9142 25.7612 14.671 25.7612C13.9447 25.7612 13.2988 26.1064 12.8872 26.6422ZM14.446 27.1573C14.5179 27.1385 14.5933 27.1285 14.671 27.1285C15.1618 27.1285 15.5596 27.5277 15.5596 28.0201C15.5596 28.5126 15.1617 28.9118 14.671 28.9118C14.3147 28.9118 14.0073 28.7012 13.8657 28.3973L13.9281 28.4176C14.286 28.5339 14.6702 28.337 14.7861 27.9777C14.8909 27.6529 14.7404 27.3066 14.446 27.1573ZM26.1849 27.1285C25.6941 27.1285 25.2963 27.5277 25.2963 28.0201C25.2963 28.5126 25.6941 28.9118 26.1849 28.9118C26.5383 28.9118 26.8436 28.7046 26.9867 28.4047L26.9471 28.4176C26.5892 28.5339 26.2051 28.337 26.0892 27.9777C25.9852 27.6554 26.1325 27.3119 26.4226 27.1607C26.3469 27.1397 26.2672 27.1285 26.1849 27.1285ZM27.9726 26.6472C27.5612 26.1086 26.9134 25.7612 26.1849 25.7612C24.9417 25.7612 23.9339 26.7725 23.9339 28.0201C23.9339 29.2677 24.9417 30.279 26.1849 30.279C27.428 30.279 28.4359 29.2677 28.4359 28.0201C28.4359 27.9914 28.4353 27.9628 28.4343 27.9344C28.791 27.8173 28.9863 27.4326 28.8706 27.074C28.7547 26.7148 28.3706 26.5179 28.0126 26.6342L27.9726 26.6472ZM38.9719 25.9542C39.1197 25.9014 39.2811 25.9014 39.4289 25.9542L47.5473 28.8552C47.8187 28.9522 48 29.2101 48 29.4992V39.2083C48 40.5379 47.401 41.7502 46.5911 42.7864C45.7788 43.8256 44.7127 44.7421 43.6741 45.4958C42.6317 46.2522 41.5934 46.8616 40.818 47.2812C40.4295 47.4914 40.1051 47.655 39.8766 47.7666C39.7623 47.8224 39.6719 47.8653 39.6093 47.8945C39.5781 47.9091 39.5537 47.9204 39.5369 47.9281C39.5284 47.9319 39.5218 47.9349 39.5172 47.937L39.51 47.9403C39.5098 47.9404 39.5091 47.9407 39.2309 47.3167C38.9545 47.9415 38.9543 47.9414 38.9541 47.9413L38.9519 47.9403L38.9464 47.9378C38.9417 47.9357 38.9351 47.9327 38.9266 47.9289C38.9096 47.9212 38.8851 47.91 38.8536 47.8954C38.7906 47.8661 38.6996 47.8233 38.5845 47.7675C38.3543 47.656 38.0275 47.4924 37.6362 47.2822C36.8551 46.8627 35.8092 46.2534 34.7593 45.4972C33.7131 44.7437 32.6391 43.8274 31.8208 42.7884C31.0051 41.7526 30.4008 40.5396 30.4008 39.2084V29.4992C30.4008 29.2101 30.5821 28.9522 30.8535 28.8552L38.9719 25.9542ZM39.2309 47.3167L38.9541 47.9413C39.1307 48.02 39.3336 48.0195 39.51 47.9403L39.2309 47.3167ZM39.2298 46.5618C39.2129 46.5537 39.1954 46.5452 39.1771 46.5363C38.9616 46.4319 38.6517 46.2769 38.2791 46.0767C37.5323 45.6756 36.541 45.0975 35.5537 44.3864C34.5626 43.6726 33.5994 42.8417 32.8898 41.9406C32.1776 41.0363 31.7633 40.1162 31.7633 39.2084V29.9815L39.2004 27.3239L46.6375 29.9815V39.2083C46.6375 40.1178 46.2257 41.0385 45.5191 41.9425C44.8149 42.8435 43.8591 43.6742 42.8757 44.3878C41.8961 45.0987 40.9124 45.6767 40.1713 46.0777C39.8016 46.2778 39.4942 46.4328 39.2803 46.5372C39.2629 46.5458 39.246 46.554 39.2298 46.5618ZM39.2005 30.9833C39.5767 30.9833 39.8817 31.2893 39.8817 31.6669V32.2934C39.8817 32.6709 39.5767 32.977 39.2005 32.977C38.8243 32.977 38.5193 32.6709 38.5193 32.2934V31.6669C38.5193 31.2893 38.8243 30.9833 39.2005 30.9833ZM34.9909 32.7331C35.2569 32.4661 35.6883 32.4661 35.9543 32.7331L36.3957 33.1761C36.6618 33.443 36.6618 33.8759 36.3957 34.1429C36.1297 34.4098 35.6984 34.4098 35.4323 34.1429L34.9909 33.6999C34.7248 33.4329 34.7248 33 34.9909 32.7331ZM43.4101 32.7331C43.6762 33 43.6762 33.4329 43.4101 33.6999L42.8292 34.2829C42.5631 34.5498 42.1318 34.5498 41.8657 34.2829C41.5997 34.0159 41.5997 33.583 41.8657 33.3161L42.4467 32.7331C42.7127 32.4661 43.1441 32.4661 43.4101 32.7331ZM39.2005 35.4887C38.3922 35.4887 37.7369 36.1463 37.7369 36.9574C37.7369 37.7686 38.3922 38.4261 39.2005 38.4261C40.0088 38.4261 40.6641 37.7686 40.6641 36.9574C40.6641 36.1463 40.0088 35.4887 39.2005 35.4887ZM36.3745 36.9574C36.3745 35.3911 37.6397 34.1214 39.2005 34.1214C40.7613 34.1214 42.0265 35.3911 42.0265 36.9574C42.0265 38.5237 40.7613 39.7934 39.2005 39.7934C37.6397 39.7934 36.3745 38.5237 36.3745 36.9574ZM24.2336 34.7428C24.4715 35.0352 24.4282 35.4659 24.1367 35.7047C23.2938 36.3953 22.4344 36.337 21.8269 36.286C21.1776 36.2315 20.9126 36.2181 20.6414 36.4395C20.3728 36.6589 19.9828 36.641 19.7352 36.398C19.6443 36.3088 19.5364 36.2609 19.3563 36.2439C19.1587 36.2252 18.9389 36.2475 18.6259 36.2793C18.6078 36.2812 18.5893 36.283 18.5705 36.2849L18.5598 36.286C17.9552 36.3472 16.9863 36.4453 16.2252 35.6481C15.9649 35.3754 15.9742 34.9427 16.2458 34.6815C16.5175 34.4203 16.9488 34.4296 17.209 34.7022C17.4674 34.9728 17.7772 34.991 18.4339 34.9246C18.4605 34.9219 18.488 34.919 18.5164 34.9161C18.7935 34.8873 19.1459 34.8507 19.484 34.8826C19.7303 34.9059 19.9879 34.9662 20.2358 35.0932C20.8195 34.8222 21.4095 34.8756 21.8318 34.9139C21.8694 34.9173 21.9057 34.9206 21.9405 34.9235C22.5106 34.9714 22.8788 34.9702 23.275 34.6456C23.5665 34.4068 23.9956 34.4503 24.2336 34.7428ZM33.2472 36.9574C33.2472 36.5798 33.5522 36.2738 33.9284 36.2738H34.5528C34.9291 36.2738 35.2341 36.5798 35.2341 36.9574C35.2341 37.335 34.9291 37.641 34.5528 37.641H33.9284C33.5522 37.641 33.2472 37.335 33.2472 36.9574ZM43.167 36.9574C43.167 36.5798 43.472 36.2738 43.8483 36.2738H44.4725C44.8488 36.2738 45.1538 36.5798 45.1538 36.9574C45.1538 37.335 44.8488 37.641 44.4725 37.641H43.8483C43.472 37.641 43.167 37.335 43.167 36.9574ZM18.68 38.1838C18.68 37.8062 18.985 37.5001 19.3612 37.5001H21.1589C21.5351 37.5001 21.8401 37.8062 21.8401 38.1838C21.8401 38.5613 21.5351 38.8674 21.1589 38.8674H19.3612C18.985 38.8674 18.68 38.5613 18.68 38.1838ZM35.4323 39.772C35.6984 39.5051 36.1297 39.5051 36.3957 39.772C36.6618 40.039 36.6618 40.4719 36.3957 40.7388L35.9543 41.1818C35.6883 41.4488 35.2569 41.4488 34.9909 41.1818C34.7248 40.9149 34.7248 40.482 34.9909 40.215L35.4323 39.772ZM42.0053 39.772C42.2713 39.5051 42.7026 39.5051 42.9687 39.772L43.4101 40.215C43.6762 40.482 43.6762 40.9149 43.4101 41.1818C43.1441 41.4488 42.7127 41.4488 42.4467 41.1818L42.0053 40.7388C41.7392 40.4719 41.7392 40.039 42.0053 39.772ZM39.2005 40.9379C39.5767 40.9379 39.8817 41.244 39.8817 41.6215V42.248C39.8817 42.6256 39.5767 42.9316 39.2005 42.9316C38.8243 42.9316 38.5193 42.6256 38.5193 42.248V41.6215C38.5193 41.244 38.8243 40.9379 39.2005 40.9379Z" fill="#01737F"/>
</svg>
