<svg width="51" height="51" viewBox="0 0 51 51" fill="none" xmlns="http://www.w3.org/2000/svg">
<path fill-rule="evenodd" clip-rule="evenodd" d="M36.8952 24.8809C36.8952 24.8809 36.7827 28.7997 36.1628 32.762C35.766 35.2986 35.1805 37.8619 34.2382 39.3332C31.4309 43.7171 28.6977 45.8808 23.8731 46.0699C19.0299 45.8831 16.3487 43.68 13.4832 39.3235C12.5181 37.8559 11.9281 35.3929 11.5358 32.9752C10.9226 29.1969 10.8345 25.5064 10.8345 25.5064C10.8218 24.9742 10.3723 24.5522 9.8313 24.5647C9.29026 24.5772 8.86124 25.0193 8.87395 25.5515C8.87395 25.5515 8.99891 30.7576 9.96685 35.2401C10.402 37.2552 11.0169 39.1246 11.8368 40.3712C15.1254 45.3715 18.2669 47.7961 23.8277 47.9993C23.8519 48.0002 23.8762 48.0002 23.9004 47.9993C29.4654 47.7958 32.6683 45.4041 35.8976 40.3615C36.6944 39.1175 37.3004 37.192 37.7335 35.0977C38.6967 30.4393 38.8555 24.9353 38.8555 24.9353C38.8708 24.4031 38.4442 23.9589 37.9031 23.9438C37.3621 23.9288 36.9105 24.3487 36.8952 24.8809Z" fill="#01737F"/>
<path d="M17.106 38.8246C17.6377 38.8246 18.0688 38.4006 18.0688 37.8776C18.0688 37.3546 17.6377 36.9306 17.106 36.9306C16.5743 36.9306 16.1432 37.3546 16.1432 37.8776C16.1432 38.4006 16.5743 38.8246 17.106 38.8246Z" fill="#01737F"/>
<path d="M31.9254 33.5014C32.4637 33.5014 32.9001 33.0721 32.9001 32.5426C32.9001 32.0131 32.4637 31.5838 31.9254 31.5838C31.387 31.5838 30.9506 32.0131 30.9506 32.5426C30.9506 33.0721 31.387 33.5014 31.9254 33.5014Z" fill="#01737F"/>
<path d="M14.1754 36.9309C14.5377 36.9309 14.8315 36.6419 14.8315 36.2855C14.8315 35.929 14.5377 35.6401 14.1754 35.6401C13.813 35.6401 13.5192 35.929 13.5192 36.2855C13.5192 36.6419 13.813 36.9309 14.1754 36.9309Z" fill="#01737F"/>
<path d="M15.4874 32.9829C15.8497 32.9829 16.1435 32.6939 16.1435 32.3375C16.1435 31.9811 15.8497 31.6921 15.4874 31.6921C15.125 31.6921 14.8312 31.9811 14.8312 32.3375C14.8312 32.6939 15.125 32.9829 15.4874 32.9829Z" fill="#01737F"/>
<path d="M28.833 39.4781C29.2 39.4781 29.4974 39.1855 29.4974 38.8246C29.4974 38.4637 29.2 38.1711 28.833 38.1711C28.4661 38.1711 28.1687 38.4637 28.1687 38.8246C28.1687 39.1855 28.4661 39.4781 28.833 39.4781Z" fill="#01737F"/>
<path d="M32.5897 38.8246C32.9566 38.8246 33.2541 38.5321 33.2541 38.1712C33.2541 37.8102 32.9566 37.5177 32.5897 37.5177C32.2228 37.5177 31.9254 37.8102 31.9254 38.1712C31.9254 38.5321 32.2228 38.8246 32.5897 38.8246Z" fill="#01737F"/>
<path d="M19.522 33.6283C19.8843 33.6283 20.1781 33.3393 20.1781 32.9829C20.1781 32.6264 19.8843 32.3375 19.522 32.3375C19.1596 32.3375 18.8659 32.6264 18.8659 32.9829C18.8659 33.3393 19.1596 33.6283 19.522 33.6283Z" fill="#01737F"/>
<path d="M27.5043 34.928C27.8712 34.928 28.1687 34.6355 28.1687 34.2746C28.1687 33.9136 27.8712 33.6211 27.5043 33.6211C27.1374 33.6211 26.84 33.9136 26.84 34.2746C26.84 34.6355 27.1374 34.928 27.5043 34.928Z" fill="#01737F"/>
<path fill-rule="evenodd" clip-rule="evenodd" d="M39.4698 29.3888C39.1902 30.6139 38.9967 31.6102 38.7249 32.3676C38.5583 32.8315 38.3912 33.19 38.0636 33.3859C37.8561 33.51 37.5937 33.5586 37.2628 33.5664C36.7217 33.5794 36.2932 34.022 36.3064 34.5542C36.3196 35.0864 36.7695 35.5079 37.3106 35.4949C38.8746 35.4574 39.7138 34.8297 40.2991 33.6611C40.7406 32.7796 41.0006 31.4847 41.3892 29.7856C41.5202 29.2124 41.5391 28.7867 41.488 28.4928C41.412 28.0552 41.2028 27.7673 40.9293 27.5731C40.6733 27.3914 40.3217 27.2744 39.8428 27.3187C39.3542 27.3636 38.5825 27.6342 37.5 28.09C37.0025 28.2992 36.7712 28.8666 36.9841 29.356C37.1971 29.8456 37.7739 30.0729 38.2714 29.8634C38.7421 29.6652 39.1396 29.503 39.4698 29.3888Z" fill="#01737F"/>
<path fill-rule="evenodd" clip-rule="evenodd" d="M8.25831 29.3888C8.58849 29.503 8.98597 29.6652 9.45664 29.8634C9.95414 30.0729 10.531 29.8456 10.7439 29.356C10.9567 28.8666 10.7256 28.2992 10.2281 28.09C9.14553 27.6342 8.37386 27.3636 7.8853 27.3187C7.40639 27.2744 7.0548 27.3914 6.79876 27.5731C6.5253 27.7673 6.31608 28.0552 6.24007 28.4928C6.189 28.7867 6.20783 29.2124 6.33891 29.7856C6.72745 31.4847 6.9875 32.7796 7.42899 33.6611C8.01427 34.8297 8.85348 35.4574 10.4175 35.4949C10.9586 35.5079 11.4085 35.0864 11.4215 34.5542C11.4346 34.022 11.0061 33.5794 10.4651 33.5664C10.1344 33.5586 9.87178 33.51 9.66445 33.3859C9.33686 33.19 9.16953 32.8315 9.00315 32.3676C8.73134 31.6102 8.53789 30.6139 8.25831 29.3888Z" fill="#01737F"/>
<path fill-rule="evenodd" clip-rule="evenodd" d="M38.7188 22.5204C38.6896 22.9568 38.6447 23.3811 38.5877 23.789C38.2973 23.3545 37.9827 22.9644 37.6509 22.6061C37.2861 22.2128 36.6655 22.1848 36.2654 22.5434C35.8656 22.9022 35.8371 23.5126 36.2016 23.9061C36.9371 24.6994 37.561 25.6906 37.9709 27.0571C38.0926 27.4631 38.4693 27.7434 38.8995 27.7485C39.3297 27.7536 39.7133 27.4823 39.8449 27.0793C40.2268 25.9105 40.5605 24.3628 40.6759 22.6475C40.7114 22.1163 40.3019 21.6565 39.7618 21.6216C39.222 21.5864 38.7546 21.9892 38.7188 22.5204Z" fill="#01737F"/>
<path fill-rule="evenodd" clip-rule="evenodd" d="M16.6831 8.12276C8.00768 10.7075 6.56554 17.9912 7.1094 23.3218C7.25672 24.7675 7.55183 26.0656 7.88319 27.0793C7.99991 27.4367 8.31691 27.6948 8.69557 27.7414C9.07422 27.7877 9.44605 27.6136 9.64821 27.2953C10.55 25.8758 12.091 24.9274 13.8847 24.1795C16.8448 22.9454 20.4828 22.2802 23.5123 21.3681C25.3322 20.8202 26.9431 20.178 28.1202 19.3199C29.4696 18.3363 30.2919 17.0766 30.3592 15.3951C30.3804 14.8631 29.9587 14.4143 29.4179 14.3935C28.8773 14.3724 28.4207 14.7872 28.3995 15.3192C28.3572 16.378 27.8025 17.1507 26.9525 17.7701C25.9302 18.5155 24.5191 19.0477 22.9383 19.5234C19.8474 20.4542 16.1392 21.1445 13.1194 22.4035C11.6469 23.0174 10.3344 23.7688 9.29708 24.7216C9.19895 24.2226 9.11776 23.6883 9.06057 23.1292C8.57554 18.3745 9.86636 11.7874 18.025 9.75798C18.025 9.75798 18.9586 9.53575 18.7289 8.56282C18.4326 7.52229 19.0021 6.69381 19.8689 6.09565C20.9399 5.35698 22.4561 4.94609 23.8639 4.92896C25.2717 4.94609 26.7882 5.35698 27.859 6.09565C28.726 6.69381 28.3148 7.52229 28.0185 8.56282C27.9357 8.85333 28.9766 9.16537 29.162 9.40589C29.2995 9.58413 29.4941 9.70797 29.7106 9.75983L29.7031 9.75821C30.9301 10.0633 31.843 10.4406 32.7799 10.9284C33.2581 11.1774 33.8521 10.9976 34.1053 10.5272C34.3583 10.0568 34.1756 9.47255 33.6972 9.22348C32.8585 8.7869 32.0364 8.42786 31.0447 8.12577C31.0911 6.98617 30.6089 5.98963 29.7854 5.1748C28.432 3.83589 26.0598 3.02338 23.8747 3C23.8674 3 23.8604 3 23.8533 3C21.6682 3.02338 19.296 3.83589 17.9426 5.1748C17.1199 5.98893 16.6379 6.98455 16.6831 8.12276Z" fill="#01737F"/>
<path fill-rule="evenodd" clip-rule="evenodd" d="M15.971 29.0793C17.0554 28.3775 18.8051 28.3103 19.9604 29.0742C20.4097 29.3712 21.0194 29.2536 21.3213 28.8117C21.6233 28.3698 21.5035 27.7701 21.0545 27.4731C19.2702 26.2934 16.5676 26.3839 14.8929 27.468C14.4408 27.7606 14.3154 28.3592 14.6129 28.8039C14.9103 29.2486 15.5189 29.3719 15.971 29.0793Z" fill="#01737F"/>
<path fill-rule="evenodd" clip-rule="evenodd" d="M27.7597 29.0793C28.8439 28.3775 30.5938 28.3103 31.7491 29.0742C32.1983 29.3712 32.8081 29.2536 33.1098 28.8117C33.4117 28.3698 33.2922 27.7701 32.8432 27.4731C31.0588 26.2934 28.3562 26.3839 26.6816 27.468C26.2295 27.7606 26.1038 28.3592 26.4015 28.8039C26.699 29.2486 27.3076 29.3719 27.7597 29.0793Z" fill="#01737F"/>
<path fill-rule="evenodd" clip-rule="evenodd" d="M20.4066 41.9999C22.8054 43.115 25.2399 43.0921 27.3612 41.9788C27.8387 41.7281 28.0195 41.1434 27.7646 40.6737C27.51 40.204 26.9155 40.0263 26.438 40.277C24.854 41.1082 23.0358 41.0885 21.2444 40.2559C20.7551 40.0283 20.1701 40.2344 19.939 40.7159C19.7076 41.1971 19.9173 41.7726 20.4066 41.9999Z" fill="#01737F"/>
<path fill-rule="evenodd" clip-rule="evenodd" d="M36.6667 8.24892C32.1859 8.24892 28.548 11.8274 28.548 16.2349C28.548 20.6424 32.1859 24.2207 36.6667 24.2207C41.1475 24.2207 44.7853 20.6424 44.7853 16.2349C44.7853 11.8274 41.1475 8.24892 36.6667 8.24892ZM36.6667 10.1781C40.0652 10.1781 42.8242 12.892 42.8242 16.2349C42.8242 19.5776 40.0652 22.2915 36.6667 22.2915C33.2684 22.2915 30.5091 19.5776 30.5091 16.2349C30.5091 12.892 33.2684 10.1781 36.6667 10.1781Z" fill="#01737F"/>
<path fill-rule="evenodd" clip-rule="evenodd" d="M41.0202 10.5878L30.9266 20.516C30.5439 20.8924 30.5439 21.5038 30.9266 21.8802C31.3092 22.2565 31.9308 22.2565 32.3134 21.8802L42.4068 11.9518C42.7894 11.5754 42.7894 10.9642 42.4068 10.5878C42.0241 10.2112 41.4028 10.2112 41.0202 10.5878Z" fill="#01737F"/>
</svg>
