<svg width="51" height="51" viewBox="0 0 51 51" fill="none" xmlns="http://www.w3.org/2000/svg">
<path d="M21.2812 5.78701H21.2953C24.8957 5.78701 27.8247 8.71605 27.8247 12.3164C27.8247 15.9168 24.8957 18.8458 21.2953 18.8458H21.2827C20.8454 18.8458 20.4687 19.1419 20.3665 19.5663C20.2644 19.9898 20.4647 20.4238 20.8534 20.6219C22.1517 21.2835 23.6121 21.6328 25.0793 21.6328C25.0919 21.6328 25.1047 21.6328 25.1174 21.6327C27.6038 21.6224 29.9423 20.6338 31.7022 18.8491C33.4629 17.0634 34.4189 14.7098 34.3942 12.2217C34.3756 10.3696 33.8147 8.58527 32.7721 7.06143C32.5664 6.76102 32.1562 6.68411 31.8558 6.8896C31.5554 7.09518 31.4785 7.50545 31.6841 7.80586C32.5787 9.11332 33.0599 10.6448 33.0758 12.2348C33.0971 14.3693 32.2758 16.3895 30.7634 17.9234C29.2518 19.4564 27.2447 20.3056 25.1119 20.3144C25.1004 20.3144 25.0888 20.3145 25.0772 20.3145C24.3176 20.3145 23.5782 20.2112 22.866 20.0062C26.4432 19.2767 29.1431 16.1059 29.1431 12.3164C29.1431 8.52691 26.4433 5.35608 22.8662 4.62659C23.5786 4.42163 24.3182 4.31836 25.0781 4.31836C26.7391 4.31836 28.3317 4.82259 29.6834 5.77646C29.9812 5.98652 30.3923 5.91533 30.602 5.61791C30.8119 5.32049 30.741 4.90916 30.4435 4.69928C28.8681 3.58764 27.0129 3 25.0781 3C23.5902 3 22.1682 3.34049 20.8516 4.01188C20.4637 4.20964 20.264 4.64303 20.366 5.06587C20.4684 5.49064 20.8451 5.78701 21.2812 5.78701Z" fill="#01737F"/>
<path d="M45.1616 25.0605H44.5731V24.7529C44.5731 24.1956 44.1197 23.7422 43.5624 23.7422H41.9364V22.1162C41.9364 21.5589 41.483 21.1055 40.9257 21.1055H38.9921C38.4348 21.1055 37.9813 21.5589 37.9813 22.1162V23.7422H36.3554C35.7981 23.7422 35.3446 24.1956 35.3446 24.7529V25.0605H16.0966V24.7529C16.0966 24.1956 15.6432 23.7422 15.0858 23.7422H13.4599V22.1162C13.4599 21.5589 13.0064 21.1055 12.4491 21.1055H10.5155C9.95821 21.1055 9.50479 21.5589 9.50479 22.1162V23.7422H7.87881C7.32149 23.7422 6.86807 24.1956 6.86807 24.7529V25.0605H5.83843C4.27327 25.0605 3 26.3339 3 27.899V45.1615C3 46.7266 4.27327 48 5.83843 48H10.5877C10.9518 48 11.2469 47.7049 11.2469 47.3408C11.2469 46.9768 10.9518 46.6816 10.5877 46.6816H5.83843C5.0003 46.6816 4.31836 45.9997 4.31836 45.1616V37.8544C4.33576 37.8617 4.35272 37.8688 4.37021 37.8762C5.45681 38.3352 6.5804 38.8097 8.80078 38.8097C11.0218 38.8097 12.1455 38.335 13.2321 37.8759C14.2424 37.4491 15.1966 37.046 17.1504 37.046C19.1038 37.046 20.0577 37.4491 21.0677 37.8758C22.1544 38.3349 23.278 38.8096 25.4991 38.8096C27.7201 38.8096 28.8438 38.3349 29.9305 37.8758C30.9407 37.449 31.8949 37.0459 33.8487 37.0459C35.8025 37.0459 36.7568 37.449 37.767 37.8757C38.8538 38.3348 39.9777 38.8095 42.1992 38.8095C44.4196 38.8095 45.5432 38.335 46.6298 37.8761C46.6473 37.8687 46.6642 37.8616 46.6816 37.8543V45.1614C46.6816 45.9996 45.9997 46.6815 45.1616 46.6815H13.8007C13.4366 46.6815 13.1415 46.9766 13.1415 47.3406C13.1415 47.7047 13.4366 47.9998 13.8007 47.9998H45.1616C46.7267 48 48 46.7266 48 45.1616V27.899C48 26.3339 46.7267 25.0605 45.1616 25.0605ZM36.663 25.0605H38.289C38.8463 25.0605 39.2997 24.6071 39.2997 24.0498V22.4238H40.6181V24.0498C40.6181 24.6071 41.0715 25.0605 41.6288 25.0605H43.2548V26.3789H41.6288C41.0715 26.3789 40.6181 26.8323 40.6181 27.3896V29.0156H39.2997V27.3896C39.2997 26.8323 38.8463 26.3789 38.289 26.3789H36.663V25.0605ZM8.18643 25.0605H9.8124C10.3697 25.0605 10.8231 24.6071 10.8231 24.0498V22.4238H12.1415V24.0498C12.1415 24.6071 12.5949 25.0605 13.1522 25.0605H14.7782V26.3789H13.1522C12.5949 26.3789 12.1415 26.8323 12.1415 27.3896V29.0156H10.8231V27.3896C10.8231 26.8323 10.3697 26.3789 9.8124 26.3789H8.18643V25.0605ZM46.1168 36.6618C45.1067 37.0884 44.1526 37.4914 42.1992 37.4914C40.2448 37.4914 39.2904 37.0882 38.28 36.6614C37.1933 36.2024 36.0695 35.7277 33.8487 35.7277C31.6277 35.7277 30.5041 36.2024 29.4174 36.6615C28.4072 37.0883 27.4529 37.4914 25.4991 37.4914C23.5452 37.4914 22.591 37.0882 21.5808 36.6614C20.4943 36.2024 19.3708 35.7277 17.1504 35.7277C14.9294 35.7277 13.8057 36.2024 12.719 36.6615C11.7088 37.0883 10.7546 37.4914 8.80078 37.4914C6.84732 37.4914 5.89327 37.0884 4.88314 36.6618C4.70033 36.5845 4.51277 36.5059 4.31836 36.4286V27.899C4.31836 27.0609 5.0003 26.3789 5.83843 26.3789H6.86807V26.6865C6.86807 27.2438 7.32149 27.6973 7.87881 27.6973H9.50479V29.3232C9.50479 29.8806 9.95821 30.334 10.5155 30.334H12.4491C13.0064 30.334 13.4599 29.8806 13.4599 29.3232V27.6973H15.0858C15.6432 27.6973 16.0966 27.2438 16.0966 26.6865V26.3789H35.3446V26.6865C35.3446 27.2438 35.7981 27.6973 36.3554 27.6973H37.9813V29.3232C37.9813 29.8806 38.4348 30.334 38.9921 30.334H40.9257C41.483 30.334 41.9364 29.8806 41.9364 29.3232V27.6973H43.5624C44.1197 27.6973 44.5731 27.2438 44.5731 26.6865V26.3789H45.1616C45.9997 26.3789 46.6816 27.0609 46.6816 27.899V36.4285C46.4872 36.5058 46.2996 36.5845 46.1168 36.6618Z" fill="#01737F"/>
<path d="M20.9542 40.929C22.0409 41.388 23.1645 41.8626 25.3856 41.8626C27.6065 41.8626 28.7302 41.3881 29.8168 40.9291C30.8271 40.5025 31.7813 40.0995 33.7352 40.0995C35.689 40.0995 36.6432 40.5024 37.6535 40.929C38.7404 41.388 39.8642 41.8626 42.0857 41.8626C42.4498 41.8626 42.7448 41.5675 42.7448 41.2034C42.7448 40.8394 42.4498 40.5442 42.0857 40.5442C40.1312 40.5442 39.1767 40.1413 38.1664 39.7146C37.0797 39.2557 35.956 38.7812 33.7352 38.7812C31.5143 38.7812 30.3906 39.2557 29.3039 39.7146C28.2937 40.1413 27.3395 40.5442 25.3856 40.5442C23.4316 40.5442 22.4774 40.1413 21.4672 39.7146C20.3807 39.2557 19.2571 38.7812 17.0368 38.7812C14.8159 38.7812 13.6922 39.2557 12.6056 39.7146C11.5954 40.1413 10.6411 40.5442 8.68723 40.5442C8.3231 40.5442 8.02805 40.8394 8.02805 41.2034C8.02805 41.5675 8.3231 41.8626 8.68723 41.8626C10.9081 41.8626 12.0318 41.3881 13.1185 40.9291C14.1287 40.5025 15.0829 40.0995 17.0368 40.0995C18.9902 40.0994 19.9443 40.5024 20.9542 40.929Z" fill="#01737F"/>
</svg>
