<svg width="51" height="51" viewBox="0 0 51 51" fill="none" xmlns="http://www.w3.org/2000/svg">
<path d="M43.0442 21.3433C43.0277 21.3433 43.0111 21.3434 42.9945 21.3435C42.3125 17.2739 40.6152 13.5879 38.0576 10.6389C37.739 10.2714 37.1827 10.2321 36.8154 10.5506C36.4479 10.8692 36.4085 11.4254 36.7271 11.7928C39.031 14.4494 40.5743 17.7686 41.2235 21.4413C38.3076 21.4087 35.6686 20.5699 33.3663 18.9395C32.2287 18.1339 31.4288 17.3025 30.9628 16.7542C31.9741 15.915 32.5 15.3269 32.5421 15.2794C32.8642 14.915 32.8299 14.3585 32.4655 14.0363C32.101 13.7142 31.5447 13.7486 31.2225 14.1129C31.2053 14.1323 29.5815 15.946 26.3806 17.7757V6.42149C27.8549 6.51544 29.302 6.84477 30.6933 7.40577C31.1443 7.58753 31.6574 7.36939 31.8393 6.91833C32.0211 6.46728 31.8029 5.95417 31.3518 5.77233C29.75 5.12642 28.0815 4.75315 26.3806 4.65717V3.88066C26.3807 3.39428 25.9863 3 25.5 3C25.0137 3 24.6193 3.39428 24.6193 3.88066V4.65735C20.627 4.88604 16.8107 6.66371 13.7902 9.72257C10.7988 12.7522 8.76308 16.8525 8.00581 21.3436C5.25299 21.3145 3 23.5497 3 26.2991C3 29.0317 5.22319 31.2549 7.9558 31.2549C8.10592 31.2549 8.25595 31.2481 8.40536 31.2344C9.43878 35.2807 11.5525 38.9249 14.4134 41.5673C17.3626 44.2913 20.875 45.8231 24.6193 46.0307V47.1193C24.6193 47.6056 25.0136 48 25.5 48C25.9864 48 26.3807 47.6057 26.3807 47.1193V46.0307C30.1251 45.823 33.6374 44.2913 36.5866 41.5673C39.4475 38.9249 41.5612 35.2808 42.5946 31.2344C42.7441 31.2481 42.8941 31.2549 43.0442 31.2549C45.7768 31.2549 48 29.0317 48 26.2991C48 23.5665 45.7768 21.3433 43.0442 21.3433ZM15.0435 10.9601C17.7285 8.24082 21.1 6.65062 24.6193 6.42228V18.6972C21.2915 20.282 16.2835 21.8269 9.76925 21.4857C10.4859 17.409 12.3385 13.6995 15.0435 10.9601ZM15.6084 40.2734C12.817 37.6951 10.8008 34.0583 9.93141 30.0326C9.93097 30.0304 9.50188 28.1929 9.50188 28.1929C9.39123 27.7194 8.91741 27.4252 8.44403 27.5357C7.97048 27.6463 7.67613 28.12 7.78679 28.5935L7.99667 29.4923C7.98305 29.4925 7.96942 29.4937 7.9558 29.4937C6.19438 29.4937 4.76133 28.0606 4.76133 26.2992C4.76133 24.5377 6.19438 23.1047 7.9558 23.1047C8.13176 23.1005 8.42461 23.1375 8.68248 23.1808C9.68162 23.2599 10.6478 23.2965 11.583 23.2965C17.0806 23.2965 21.4642 22.0268 24.6194 20.6342V30.3803C24.3144 30.2487 24.0256 30.0565 23.773 29.8039C23.429 29.46 22.8716 29.46 22.5276 29.8039C22.1837 30.1478 22.1837 30.7054 22.5276 31.0493C23.1296 31.6511 23.8585 32.0452 24.6194 32.2301V37.9065C23.4282 37.6718 22.3169 37.0782 21.4203 36.1815C21.0764 35.8379 20.519 35.8377 20.1749 36.1815C19.831 36.5255 19.831 37.083 20.1749 37.427C21.4056 38.6577 22.9583 39.4427 24.6194 39.6933V44.2662C21.3241 44.0591 18.2249 42.6899 15.6084 40.2734ZM43.0442 29.4936C42.7497 29.4936 42.4554 29.4525 42.1698 29.3714C41.9358 29.3049 41.6845 29.3383 41.4761 29.4636C41.2674 29.589 41.1199 29.7949 41.0686 30.0327C40.1992 34.0583 38.183 37.6952 35.3916 40.2735C32.7751 42.69 29.6759 44.0592 26.3807 44.2663V39.7558C28.0761 39.6192 29.6311 38.9128 30.8252 37.7188C31.1691 37.3748 31.1691 36.8173 30.8252 36.4733C30.4812 36.1295 29.9238 36.1295 29.5798 36.4733C28.7191 37.3341 27.6047 37.8589 26.3807 37.9884V32.285C27.1541 32.1442 27.8854 31.7821 28.4725 31.195C28.8164 30.8511 28.8164 30.2935 28.4725 29.9496C28.1285 29.6058 27.5711 29.6058 27.2271 29.9496C26.983 30.1937 26.6931 30.3671 26.3807 30.4721V19.7843C26.4136 19.767 26.4475 19.7495 26.4801 19.7322C27.6895 19.0898 28.7167 18.4337 29.564 17.8291C30.0916 18.4594 30.9911 19.4048 32.28 20.3281C34.1484 21.6667 37.2108 23.2035 41.4208 23.2035C41.9264 23.2268 42.4781 23.1408 43.0443 23.1045C44.8057 23.1045 46.2388 24.5376 46.2388 26.2991C46.2388 28.0606 44.8057 29.4936 43.0442 29.4936Z" fill="#01737F"/>
<path d="M21.4207 28.4297C21.7646 28.0858 21.7646 27.5283 21.4207 27.1843C21.0768 26.8406 20.5194 26.8405 20.1753 27.1843C19.3081 28.0514 17.9563 28.1105 17.1623 27.3164C16.8183 26.9726 16.2609 26.9726 15.9169 27.3164C15.573 27.6603 15.573 28.2179 15.9169 28.5618C16.634 29.2789 17.5829 29.6349 18.5473 29.6349C19.5744 29.6349 20.6193 29.231 21.4207 28.4297Z" fill="#01737F"/>
<path d="M42.5526 9.90186H43.4726V10.8219C43.4726 11.3082 43.8669 11.7026 44.3532 11.7026C44.8395 11.7026 45.2339 11.3083 45.2339 10.8219V9.90186H46.1539C46.6402 9.90186 47.0345 9.50759 47.0345 9.0212C47.0345 8.53481 46.6402 8.14054 46.1539 8.14054H45.2339V7.22076C45.2339 6.73447 44.8396 6.3401 44.3532 6.3401C43.8669 6.3401 43.4726 6.73438 43.4726 7.22076V8.14071H42.5526C42.0663 8.14071 41.672 8.53499 41.672 9.02138C41.672 9.50776 42.0662 9.90186 42.5526 9.90186Z" fill="#01737F"/>
<path d="M42.809 42.9329H41.8891V42.0129C41.8891 41.5266 41.4948 41.1322 41.0084 41.1322C40.522 41.1322 40.1277 41.5265 40.1277 42.0129V42.9329H39.2078C38.7215 42.9329 38.3271 43.3271 38.3271 43.8135C38.3271 44.2998 38.7214 44.6942 39.2078 44.6942H40.1277V45.6141C40.1277 46.1004 40.522 46.4948 41.0084 46.4948C41.4948 46.4948 41.8891 46.1005 41.8891 45.6141V44.6942H42.809C43.2953 44.6942 43.6897 44.2999 43.6897 43.8135C43.6897 43.3272 43.2954 42.9329 42.809 42.9329Z" fill="#01737F"/>
<path d="M18.6688 26.4839C19.1552 26.4839 19.5495 26.0896 19.5495 25.6032C19.5495 25.1169 19.1552 24.7226 18.6688 24.7226C18.1824 24.7226 17.7881 25.1169 17.7881 25.6032C17.7881 26.0896 18.1824 26.4839 18.6688 26.4839Z" fill="#01737F"/>
<path d="M32.3309 26.484C32.8173 26.484 33.2116 26.0897 33.2116 25.6033C33.2116 25.1169 32.8173 24.7227 32.3309 24.7227C31.8446 24.7227 31.4503 25.1169 31.4503 25.6033C31.4503 26.0897 31.8446 26.484 32.3309 26.484Z" fill="#01737F"/>
<path d="M34.5088 9.40809C34.9952 9.40809 35.3895 9.01381 35.3895 8.52743C35.3895 8.04105 34.9952 7.64677 34.5088 7.64677C34.0224 7.64677 33.6281 8.04105 33.6281 8.52743C33.6281 9.01381 34.0224 9.40809 34.5088 9.40809Z" fill="#01737F"/>
<path d="M20.3281 33.9303C20.1814 33.4675 19.6875 33.2114 19.2247 33.3579C19.1554 33.3799 17.5197 33.9144 16.9264 35.511C16.7573 35.966 16.9891 36.472 17.4441 36.641C17.545 36.6786 17.6485 36.6963 17.7502 36.6963C18.107 36.6963 18.4426 36.4774 18.5741 36.1233C18.8614 35.3504 19.733 35.0415 19.7621 35.0315C20.2208 34.8825 20.474 34.3909 20.3281 33.9303Z" fill="#01737F"/>
</svg>
