<svg width="51" height="51" viewBox="0 0 51 51" fill="none" xmlns="http://www.w3.org/2000/svg">
<path d="M22.9247 42.7266C15.1023 42.7266 8.73822 36.3196 8.73822 28.4443C8.73822 26.5208 9.1117 24.6544 9.84835 22.8967C9.98899 22.5612 10.3729 22.4041 10.7062 22.5456C11.0393 22.6871 11.1955 23.0738 11.0549 23.4091C10.3866 25.0038 10.0477 26.6979 10.0477 28.4443C10.0477 35.5927 15.8243 41.4082 22.9247 41.4082C30.0252 41.4082 35.8016 35.5927 35.8016 28.4443C35.8016 21.296 30.0251 15.4805 22.9247 15.4805C18.8048 15.4805 14.9016 17.4896 12.4836 20.8552C12.2717 21.1501 11.8624 21.2163 11.5693 21.003C11.2763 20.7896 11.2106 20.3776 11.4225 20.0825C14.086 16.3754 18.3859 14.1621 22.9247 14.1621C30.7471 14.1621 37.1111 20.5691 37.1111 28.4443C37.1111 36.3196 30.7471 42.7266 22.9247 42.7266Z" fill="#01737F"/>
<path d="M22.9262 48C22.0463 48 21.2124 47.6543 20.5709 47.022C20.0251 46.4841 19.6696 45.7751 19.5577 45.0229C17.4468 44.592 15.4705 43.7682 13.6697 42.5688C13.0776 43.028 12.356 43.2768 11.5964 43.2768C10.7144 43.2768 9.87794 42.9383 9.24125 42.3238C8.58702 41.6924 8.2214 40.8335 8.21171 39.9051C8.20368 39.136 8.45039 38.3812 8.89999 37.7695C7.70754 35.9571 6.88822 33.968 6.45905 31.8432C5.71795 31.7463 5.03324 31.4088 4.49669 30.8686C3.87301 30.2406 3.51935 29.4058 3.50075 28.5178C3.48164 27.6055 3.82639 26.7379 4.47154 26.0745C5.00592 25.5251 5.71009 25.1672 6.45713 25.0546C6.88525 22.9293 7.70344 20.9397 8.89475 19.1269C8.4386 18.5308 8.19154 17.8043 8.19154 17.0396C8.19154 16.1516 8.52765 15.3096 9.13806 14.6685C9.76532 14.0099 10.6185 13.6418 11.5407 13.632C12.3041 13.6199 13.0544 13.8723 13.6619 14.325C15.4622 13.1245 17.4379 12.2996 19.5485 11.8675C19.6446 11.1214 19.9798 10.4322 20.5164 9.89194C21.1401 9.26414 21.9693 8.9081 22.8514 8.88929C23.7585 8.86934 24.6196 9.21712 25.2784 9.86663C25.824 10.4045 26.1796 11.1135 26.2915 11.8656C28.2925 12.2747 30.1828 13.0418 31.9172 14.1494C31.945 14.167 32.024 14.2142 32.2018 14.303C32.2106 14.2964 32.2192 14.2898 32.228 14.2831C32.314 14.2191 32.3442 14.1095 32.3032 14.0103C32.2492 13.8799 32.1973 13.7444 32.1495 13.6079C31.8504 12.7582 31.6985 11.865 31.6985 10.9541C31.6985 8.82943 32.5202 6.83203 34.0125 5.32972C35.5048 3.8274 37.4888 3 39.5992 3C41.7097 3 43.6937 3.8274 45.1859 5.3298C45.3418 5.48669 45.4936 5.6528 45.6367 5.82331C45.8702 6.10131 45.8354 6.5173 45.5592 6.75223C45.283 6.98716 44.8699 6.95227 44.6365 6.67418C44.517 6.5318 44.3903 6.39311 44.2601 6.26206C43.0151 5.00865 41.3598 4.31836 39.5992 4.31836C37.8386 4.31836 36.1834 5.00865 34.9385 6.26197C33.6936 7.5152 33.008 9.18161 33.008 10.9541C33.008 11.7145 33.1346 12.4596 33.3843 13.1684C33.4242 13.2825 33.4671 13.3948 33.5121 13.5033C33.7847 14.1622 33.577 14.9187 33.0074 15.3431C32.9771 15.3657 32.9473 15.3892 32.918 15.4137C32.596 15.682 32.1411 15.7365 31.7591 15.5524C31.5141 15.4343 31.3367 15.3398 31.2166 15.2633C29.483 14.1561 27.5813 13.4183 25.5641 13.0698C25.2498 13.0156 25.0201 12.7412 25.0201 12.4201V12.3761C25.0201 11.792 24.7804 11.2207 24.3625 10.8088C23.9573 10.4093 23.4285 10.1986 22.8793 10.2075C22.3365 10.2191 21.8263 10.4381 21.4427 10.8244C21.0472 11.2223 20.8295 11.7522 20.8295 12.3164V12.4201C20.8295 12.7411 20.5998 13.0155 20.2855 13.0698C18.0054 13.4637 15.8882 14.3469 13.9926 15.6947C13.7319 15.8799 13.3765 15.8492 13.1513 15.6217L13.1201 15.5902C12.7104 15.1778 12.1425 14.9455 11.5546 14.9506C10.9875 14.9566 10.4651 15.1805 10.0835 15.5812C9.70805 15.9755 9.50123 16.4936 9.50123 17.0398C9.50123 17.6034 9.71931 18.1333 10.1153 18.532L10.1886 18.6058C10.414 18.8327 10.4443 19.1901 10.2604 19.4522C8.92173 21.3605 8.04453 23.492 7.65324 25.7875C7.59929 26.1039 7.32682 26.3351 7.00791 26.3351H6.96417C6.38397 26.3351 5.81651 26.5764 5.40742 26.9971C5.01063 27.4051 4.79849 27.9354 4.81019 28.4902C4.82162 29.0367 5.03918 29.5504 5.42287 29.9366C5.81817 30.3345 6.34451 30.5537 6.90489 30.5537H7.00791C7.32682 30.5537 7.59929 30.785 7.65324 31.1014C8.04453 33.3968 8.92173 35.5283 10.2604 37.4368C10.4443 37.6989 10.4139 38.0562 10.1886 38.2832L10.1573 38.3146C9.74699 38.7277 9.5152 39.3023 9.52131 39.8912C9.52725 40.4621 9.74978 40.988 10.1477 41.3722C10.5393 41.7502 11.0539 41.9584 11.5966 41.9584C12.1563 41.9584 12.6827 41.7388 13.0788 41.3403L13.152 41.2664C13.3774 41.0397 13.7324 41.0089 13.9927 41.1942C15.8883 42.5419 18.0055 43.425 20.2856 43.819C20.5998 43.8732 20.8295 44.1476 20.8295 44.4686V44.5127C20.8295 45.0968 21.0693 45.6681 21.4872 46.08C21.8923 46.4794 22.4209 46.6923 22.9703 46.6813C23.513 46.6697 24.0232 46.4507 24.4069 46.0644C24.8023 45.6664 25.02 45.1364 25.02 44.5723V44.4686C25.02 44.1476 25.2497 43.8732 25.564 43.8189C27.844 43.4249 29.9613 42.5418 31.8568 41.1941C32.1167 41.0092 32.4713 41.0392 32.6968 41.2657L32.7281 41.2971C33.1391 41.711 33.7127 41.9466 34.2947 41.9382C34.8618 41.9322 35.3842 41.7083 35.7658 41.3076C36.1413 40.9133 36.3481 40.3952 36.3481 39.8488C36.3481 39.2853 36.1301 38.7555 35.7341 38.3568L35.6611 38.2833C35.4354 38.0563 35.4049 37.6989 35.589 37.4366C36.9277 35.5281 37.8049 33.3966 38.1962 31.1012C38.2501 30.7847 38.5226 30.5535 38.8415 30.5535H38.8853C39.4655 30.5535 40.0329 30.3123 40.442 29.8915C40.8388 29.4836 41.051 28.9533 41.0394 28.3985C41.0278 27.852 40.8103 27.3383 40.4266 26.952C40.0312 26.5541 39.5048 26.3349 38.9445 26.3349H38.8415C38.5226 26.3349 38.2502 26.1036 38.1961 25.7873C37.8229 23.5986 37.0058 21.5551 35.7675 19.7136C35.7285 19.6545 35.6973 19.5938 35.6689 19.5229C35.518 19.1459 35.5892 18.7158 35.8544 18.4002C35.9383 18.3002 36.013 18.1924 36.0764 18.0797C36.426 17.4588 37.1419 17.1563 37.8178 17.3442C38.3983 17.5079 38.995 17.5899 39.5991 17.5899C41.3597 17.5899 43.015 16.8996 44.2598 15.6464C45.5049 14.393 46.1905 12.7266 46.1905 10.9541C46.1905 10.3386 46.1069 9.72926 45.9422 9.1432C45.8437 8.79296 46.046 8.42856 46.394 8.32942C46.742 8.23011 47.1038 8.43401 47.2023 8.78426C47.3999 9.48721 47.5 10.2172 47.5 10.9541C47.5 13.0788 46.6781 15.0762 45.1859 16.5786C43.6937 18.0809 41.7097 18.9082 39.5992 18.9082C38.8756 18.9082 38.16 18.8098 37.4722 18.6157C37.3734 18.5884 37.2689 18.6353 37.2158 18.7294C37.1382 18.8674 37.0503 19.0008 36.9536 19.1275C38.1423 20.9351 38.9613 22.9242 39.3901 25.0454C40.1312 25.1423 40.8159 25.4798 41.3525 26.02C41.9763 26.648 42.3298 27.4829 42.3484 28.3708C42.3676 29.2831 42.0228 30.1507 41.3776 30.8141C40.8434 31.3634 40.1392 31.7213 39.3921 31.834C38.964 33.9592 38.1458 35.9488 36.9544 37.7618C37.4107 38.3579 37.6577 39.0844 37.6577 39.849C37.6577 40.7371 37.3215 41.5791 36.7111 42.2201C36.0838 42.8788 35.2306 43.247 34.3084 43.2566C34.2965 43.2567 34.2844 43.2568 34.2725 43.2568C33.521 43.2568 32.7854 43.0091 32.1874 42.5636C30.387 43.7642 28.4115 44.589 26.3008 45.0211C26.2046 45.7671 25.8694 46.4565 25.3327 46.9967C24.709 47.6246 23.8798 47.9806 22.9978 47.9993C22.9739 47.9997 22.95 48 22.9262 48Z" fill="#01737F"/>
<path d="M28.7739 36.3105C26.2467 36.3105 24.1906 34.2405 24.1906 31.6963C24.1906 29.152 26.2467 27.082 28.7739 27.082C31.3011 27.082 33.3572 29.152 33.3572 31.6963C33.3572 34.2405 31.3011 36.3105 28.7739 36.3105ZM28.7739 28.4004C26.9687 28.4004 25.5001 29.8789 25.5001 31.6963C25.5001 33.5137 26.9687 34.9922 28.7739 34.9922C30.5791 34.9922 32.0477 33.5137 32.0477 31.6963C32.0477 29.8789 30.5791 28.4004 28.7739 28.4004Z" fill="#01737F"/>
<path d="M20.0001 25.4121C18.556 25.4121 17.3811 24.2293 17.3811 22.7754C17.3811 21.3215 18.556 20.1387 20.0001 20.1387C21.4442 20.1387 22.6191 21.3215 22.6191 22.7754C22.6191 24.2293 21.4442 25.4121 20.0001 25.4121ZM20.0001 21.457C19.278 21.457 18.6906 22.0484 18.6906 22.7754C18.6906 23.5023 19.278 24.0938 20.0001 24.0938C20.7222 24.0938 21.3096 23.5023 21.3096 22.7754C21.3096 22.0484 20.7222 21.457 20.0001 21.457Z" fill="#01737F"/>
<path d="M20.262 30.334C19.7806 30.334 19.389 29.9397 19.389 29.4551C19.389 28.9704 19.7806 28.5762 20.262 28.5762C20.7434 28.5762 21.135 28.9704 21.135 29.4551C21.135 29.9397 20.7434 30.334 20.262 30.334Z" fill="#01737F"/>
<path d="M28.1191 23.3027C27.6377 23.3027 27.2461 22.9085 27.2461 22.4238C27.2461 21.9392 27.6377 21.5449 28.1191 21.5449C28.6005 21.5449 28.9921 21.9392 28.9921 22.4238C28.9921 22.9085 28.6005 23.3027 28.1191 23.3027Z" fill="#01737F"/>
<path d="M28.1191 32.0918C27.6377 32.0918 27.2461 31.6975 27.2461 31.2129C27.2461 30.7283 27.6377 30.334 28.1191 30.334C28.6005 30.334 28.9921 30.7283 28.9921 31.2129C28.9921 31.6975 28.6005 32.0918 28.1191 32.0918Z" fill="#01737F"/>
<path d="M13.758 30.4219C12.6749 30.4219 11.7938 29.5347 11.7938 28.4443C11.7938 27.354 12.6749 26.4668 13.758 26.4668C14.8412 26.4668 15.7223 27.354 15.7223 28.4443C15.7223 29.5347 14.8412 30.4219 13.758 30.4219ZM13.758 27.7852C13.397 27.7852 13.1033 28.0808 13.1033 28.4443C13.1033 28.8079 13.397 29.1035 13.758 29.1035C14.1191 29.1035 14.4128 28.8079 14.4128 28.4443C14.4128 28.0808 14.1191 27.7852 13.758 27.7852Z" fill="#01737F"/>
<path d="M19.0834 38.7715C17.519 38.7715 16.2461 37.4901 16.2461 35.915C16.2461 34.34 17.519 33.0586 19.0834 33.0586C20.6479 33.0586 21.9207 34.34 21.9207 35.915C21.9207 37.4901 20.648 38.7715 19.0834 38.7715ZM19.0834 34.377C18.2411 34.377 17.5557 35.067 17.5557 35.915C17.5557 36.7631 18.2411 37.4531 19.0834 37.4531C19.9258 37.4531 20.6112 36.7631 20.6112 35.915C20.6112 35.067 19.9259 34.377 19.0834 34.377Z" fill="#01737F"/>
<path d="M38.2461 10.5146C37.163 10.5146 36.2818 9.62748 36.2818 8.53711C36.2818 7.44674 37.163 6.55957 38.2461 6.55957C39.3291 6.55957 40.2103 7.44674 40.2103 8.53711C40.2103 9.62748 39.3291 10.5146 38.2461 10.5146ZM38.2461 7.87793C37.885 7.87793 37.5913 8.17359 37.5913 8.53711C37.5913 8.90063 37.885 9.19629 38.2461 9.19629C38.6071 9.19629 38.9008 8.90063 38.9008 8.53711C38.9008 8.17359 38.6071 7.87793 38.2461 7.87793Z" fill="#01737F"/>
<path d="M39.9921 15.7881C38.909 15.7881 38.0278 14.9009 38.0278 13.8105C38.0278 12.7202 38.909 11.833 39.9921 11.833C41.0751 11.833 41.9564 12.7202 41.9564 13.8105C41.9564 14.9009 41.0751 15.7881 39.9921 15.7881ZM39.9921 13.1514C39.631 13.1514 39.3373 13.447 39.3373 13.8105C39.3373 14.1741 39.631 14.4697 39.9921 14.4697C40.3532 14.4697 40.6468 14.1741 40.6468 13.8105C40.6468 13.447 40.3532 13.1514 39.9921 13.1514Z" fill="#01737F"/>
</svg>
