<svg width="51" height="51" viewBox="0 0 51 51" fill="none" xmlns="http://www.w3.org/2000/svg">
<path d="M7.69477 40.4239H6.7793C6.41525 40.4239 6.12012 40.7169 6.12012 41.0784C6.12012 41.44 6.41525 41.7329 6.7793 41.7329H7.69477C8.05881 41.7329 8.35395 41.44 8.35395 41.0784C8.35395 40.7169 8.05881 40.4239 7.69477 40.4239Z" fill="#01737F"/>
<path d="M12.9127 38.5913H11.9973C11.6332 38.5913 11.3381 38.8843 11.3381 39.2458C11.3381 39.6074 11.6332 39.9003 11.9973 39.9003H12.9127C13.2768 39.9003 13.5719 39.6074 13.5719 39.2458C13.5719 38.8843 13.2768 38.5913 12.9127 38.5913Z" fill="#01737F"/>
<path d="M18.1307 40.4239H17.2153C16.8512 40.4239 16.5561 40.7169 16.5561 41.0784C16.5561 41.44 16.8512 41.7329 17.2153 41.7329H18.1307C18.4948 41.7329 18.7899 41.44 18.7899 41.0784C18.7899 40.7169 18.4948 40.4239 18.1307 40.4239Z" fill="#01737F"/>
<path d="M23.3487 38.5913H22.4332C22.0692 38.5913 21.7741 38.8843 21.7741 39.2458C21.7741 39.6074 22.0692 39.9003 22.4332 39.9003H23.3487C23.7127 39.9003 24.0079 39.6074 24.0079 39.2458C24.0079 38.8843 23.7128 38.5913 23.3487 38.5913Z" fill="#01737F"/>
<path d="M28.5668 40.4239H27.6513C27.2873 40.4239 26.9921 40.7169 26.9921 41.0784C26.9921 41.44 27.2873 41.7329 27.6513 41.7329H28.5668C28.9308 41.7329 29.2259 41.44 29.2259 41.0784C29.2259 40.7169 28.9308 40.4239 28.5668 40.4239Z" fill="#01737F"/>
<path d="M33.7847 38.5913H32.8693C32.5052 38.5913 32.2101 38.8843 32.2101 39.2458C32.2101 39.6074 32.5052 39.9003 32.8693 39.9003H33.7847C34.1488 39.9003 34.4439 39.6074 34.4439 39.2458C34.4439 38.8843 34.1488 38.5913 33.7847 38.5913Z" fill="#01737F"/>
<path d="M39.0027 40.4239H38.0873C37.7232 40.4239 37.4281 40.7169 37.4281 41.0784C37.4281 41.44 37.7232 41.7329 38.0873 41.7329H39.0027C39.3668 41.7329 39.6619 41.44 39.6619 41.0784C39.6619 40.7169 39.3668 40.4239 39.0027 40.4239Z" fill="#01737F"/>
<path d="M44.2207 38.5913H43.3052C42.9412 38.5913 42.6461 38.8843 42.6461 39.2458C42.6461 39.6074 42.9412 39.9003 43.3052 39.9003H44.2207C44.5847 39.9003 44.8799 39.6074 44.8799 39.2458C44.8799 38.8843 44.5847 38.5913 44.2207 38.5913Z" fill="#01737F"/>
<path d="M12.6814 9.47002H13.8545V10.6348C13.8545 10.9963 14.1496 11.2893 14.5137 11.2893C14.8777 11.2893 15.1729 10.9963 15.1729 10.6348V9.47002H16.3459C16.71 9.47002 17.0051 9.17707 17.0051 8.81552C17.0051 8.45397 16.71 8.16102 16.3459 8.16102H15.1729V6.99627C15.1729 6.63472 14.8777 6.34176 14.5137 6.34176C14.1496 6.34176 13.8545 6.63472 13.8545 6.99627V8.16102H12.6814C12.3174 8.16102 12.0222 8.45397 12.0222 8.81552C12.0222 9.17707 12.3174 9.47002 12.6814 9.47002Z" fill="#01737F"/>
<path d="M34.6541 9.47002H35.8271V10.6348C35.8271 10.9963 36.1223 11.2893 36.4863 11.2893C36.8504 11.2893 37.1455 10.9963 37.1455 10.6348V9.47002H38.3186C38.6826 9.47002 38.9778 9.17707 38.9778 8.81552C38.9778 8.45397 38.6826 8.16102 38.3186 8.16102H37.1455V6.99627C37.1455 6.63472 36.8504 6.34176 36.4863 6.34176C36.1223 6.34176 35.8271 6.63472 35.8271 6.99627V8.16102H34.6541C34.29 8.16102 33.9949 8.45397 33.9949 8.81552C33.9949 9.17707 34.29 9.47002 34.6541 9.47002Z" fill="#01737F"/>
<path d="M39.2075 17.9093L40.7775 18.7619L41.6361 20.3206C41.798 20.6146 42.1083 20.7973 42.4457 20.7973H42.4458C42.7833 20.7973 43.0935 20.6146 43.2554 20.3206L44.114 18.762L45.6839 17.9094C45.9801 17.7485 46.1641 17.4406 46.1641 17.1054C46.1641 16.7702 45.98 16.4622 45.684 16.3015L44.114 15.4488L43.2554 13.8901C43.0934 13.5961 42.7832 13.4134 42.4457 13.4134C42.1082 13.4134 41.7979 13.5962 41.6361 13.8901L40.7774 15.4489L39.2075 16.3015C38.9114 16.4622 38.7275 16.7703 38.7275 17.1054C38.7275 17.4405 38.9115 17.7485 39.2075 17.9093ZM41.5112 16.5424C41.6667 16.4582 41.7937 16.3321 41.8786 16.1778L42.4458 15.1481L43.0129 16.1776C43.098 16.3322 43.2252 16.4583 43.3799 16.5421L44.417 17.1053L43.3798 17.6685C43.2246 17.7529 43.0976 17.8788 43.013 18.0328L42.4458 19.0625L41.8787 18.0329C41.794 17.8789 41.6671 17.753 41.5117 17.6685L40.4746 17.1053L41.5112 16.5424Z" fill="#01737F"/>
<path d="M5.31592 17.9093L6.88591 18.762L7.74451 20.3206C7.90649 20.6146 8.21675 20.7974 8.55425 20.7973C8.89175 20.7973 9.202 20.6146 9.36381 20.3206L10.2225 18.7619L11.7924 17.9093C12.0885 17.7485 12.2725 17.4405 12.2725 17.1054C12.2725 16.7703 12.0885 16.4622 11.7925 16.3015L10.2225 15.4489L9.36381 13.8901C9.20191 13.5961 8.89166 13.4134 8.55425 13.4134C8.21675 13.4134 7.90641 13.5961 7.74451 13.8901L6.88591 15.4488L5.31601 16.3014C5.01981 16.4622 4.83586 16.7702 4.83586 17.1054C4.83586 17.4406 5.0199 17.7485 5.31592 17.9093ZM7.61927 16.5425C7.77492 16.4583 7.90201 16.3322 7.987 16.1778L8.55425 15.1481L9.12132 16.1776C9.20631 16.3321 9.3334 16.4582 9.48826 16.5421L10.5254 17.1053L9.488 17.6687C9.33287 17.753 9.20605 17.8789 9.12149 18.0328L8.55425 19.0625L7.98718 18.0329C7.90236 17.8788 7.77545 17.7529 7.62023 17.6685L6.58313 17.1053L7.61927 16.5425Z" fill="#01737F"/>
<path d="M46.0225 24.6535H42.7266C42.3625 24.6535 42.0674 24.9465 42.0674 25.308C42.0674 25.6696 42.3625 25.9625 42.7266 25.9625H46.0225C46.386 25.9625 46.6816 26.2561 46.6816 26.617V28.7301H36.2922C36.983 27.898 37.5022 26.9589 37.8381 25.9625H39.6504C40.0144 25.9625 40.3096 25.6696 40.3096 25.308C40.3096 24.9465 40.0144 24.6535 39.6504 24.6535H38.1683C38.3933 23.3301 38.3107 21.949 37.893 20.6139C37.7709 20.2239 37.4636 19.9187 37.0707 19.7974H37.0705C36.1044 19.4994 35.114 19.3732 34.1385 19.4084C33.9328 18.8127 33.6639 18.2344 33.3346 17.684L26.7314 6.64659C26.4708 6.21095 26.0104 5.95081 25.5 5.95081C24.9896 5.95081 24.5292 6.21086 24.2686 6.64667L20.9572 12.1818C20.7713 12.4927 20.8743 12.8942 21.1873 13.0788C21.5004 13.2635 21.9047 13.1611 22.0906 12.8503L25.402 7.31523C25.424 7.27849 25.4569 7.25981 25.5 7.25981C25.5431 7.25981 25.576 7.27849 25.598 7.31514L32.201 18.3525C32.4339 18.7416 32.6314 19.1465 32.7925 19.5622C31.1096 19.8864 29.5294 20.7001 28.2674 21.9531C27.0755 23.1365 26.2574 24.6227 25.9014 26.2512C25.6276 27.5033 25.6361 28.7924 25.9186 30.0314C25.779 30.0385 25.6393 30.0434 25.4999 30.0434C22.6619 30.0434 20.1296 28.5813 18.7259 26.1324C17.3223 23.6835 17.3496 20.775 18.7989 18.3525L20.5193 15.4766C20.7052 15.1658 20.6022 14.7643 20.2892 14.5797C19.9762 14.3949 19.5718 14.4974 19.3859 14.8082L17.6654 17.684C16.3752 19.8407 16.0501 22.3263 16.6922 24.6536H4.97754C3.88708 24.6536 3 25.5345 3 26.6171V43.0857C3 44.1683 3.88708 45.0492 4.97754 45.0492H46.0225C47.1129 45.0492 48 44.1683 48 43.0857V26.617C48 25.5344 47.1129 24.6535 46.0225 24.6535ZM29.1997 22.8787C31.1527 20.9394 34.0023 20.2352 36.6447 21.0368C37.4519 23.6604 36.7427 26.4897 34.7897 28.429C33.0323 30.1739 30.4958 30.9174 28.0916 30.4549L29.6496 28.908H32.2584C32.6225 28.908 32.9176 28.615 32.9176 28.2535C32.9176 27.8919 32.6225 27.599 32.2584 27.599H30.9679L32.0134 26.5609H34.6223C34.9863 26.5609 35.2814 26.268 35.2814 25.9064C35.2814 25.5449 34.9863 25.2519 34.6223 25.2519H33.3318L35.0629 23.5331C35.3203 23.2774 35.3203 22.8631 35.0629 22.6075C34.8054 22.352 34.388 22.352 34.1307 22.6075L32.3994 24.3263V23.0449C32.3994 22.6834 32.1043 22.3904 31.7402 22.3904C31.3762 22.3904 31.0811 22.6834 31.0811 23.0449V25.6353L30.0356 26.6733V25.3919C30.0356 25.0304 29.7405 24.7374 29.3764 24.7374C29.0124 24.7374 28.7172 25.0304 28.7172 25.3919V27.9823L27.1593 29.5292C26.6934 27.1422 27.4423 24.6236 29.1997 22.8787ZM4.31836 26.617C4.31836 26.2561 4.61402 25.9625 4.97754 25.9625H17.1634C17.2877 26.239 17.4266 26.5117 17.5803 26.7797C17.9975 27.5076 18.5003 28.1605 19.0722 28.7301H4.31836V26.617ZM46.6816 43.0856C46.6816 43.4465 46.386 43.7401 46.0225 43.7401H4.97754C4.61402 43.7401 4.31836 43.4465 4.31836 43.0856V36.3004C4.46215 36.2192 4.59943 36.1369 4.73408 36.056C5.45874 35.6211 6.08452 35.2454 7.40851 35.2454C8.73267 35.2454 9.35897 35.621 10.0841 36.0558C10.5539 36.3375 11.0398 36.6288 11.7137 36.8269C12.0631 36.9295 12.4296 36.7315 12.5328 36.3848C12.6361 36.0382 12.4367 35.6741 12.0876 35.5716C11.5762 35.4214 11.1824 35.1854 10.7656 34.9353C9.98484 34.4672 9.09979 33.9365 7.40842 33.9365C5.90558 33.9365 5.04012 34.3556 4.31827 34.7777V30.0392H20.7433C22.1171 30.8731 23.7154 31.3351 25.4098 31.3509C25.3229 31.5834 25.3729 31.8549 25.5611 32.0417C25.6898 32.1695 25.8585 32.2334 26.0272 32.2334C26.1958 32.2334 26.3646 32.1695 26.4933 32.0417L27.0035 31.5352C27.8237 31.7794 28.6726 31.9032 29.5242 31.9032C30.1491 31.9032 30.7755 31.837 31.3928 31.704C32.6939 31.4236 33.9042 30.8533 34.9442 30.0393H46.6816V34.778C45.9596 34.3559 45.094 33.9366 43.5906 33.9366C41.8992 33.9366 41.0147 34.4675 40.2342 34.936C39.5097 35.3708 38.8839 35.7465 37.56 35.7465C36.2361 35.7465 35.6102 35.3708 34.8856 34.936C34.1052 34.4675 33.2207 33.9366 31.5292 33.9366C29.8378 33.9366 28.9533 34.4675 28.1729 34.936C27.4484 35.3708 26.8226 35.7465 25.4988 35.7465C24.175 35.7465 23.5492 35.3708 22.8246 34.936C22.0442 34.4675 21.1598 33.9366 19.4684 33.9366C17.7771 33.9366 16.8922 34.4673 16.1114 34.9355C15.6947 35.1855 15.3011 35.4215 14.7898 35.5718C14.4407 35.6743 14.2415 36.0385 14.3447 36.385C14.4481 36.7317 14.8148 36.9296 15.1639 36.8269C15.8377 36.6289 16.3234 36.3376 16.7931 36.0559C17.5182 35.6211 18.1443 35.2455 19.4684 35.2455C20.7922 35.2455 21.418 35.6212 22.1425 36.056C22.9229 36.5245 23.8073 37.0554 25.4988 37.0554C27.1902 37.0554 28.0747 36.5245 28.855 36.056C29.5796 35.6212 30.2054 35.2455 31.5292 35.2455C32.8531 35.2455 33.479 35.6212 34.2035 36.056C34.9839 36.5245 35.8685 37.0554 37.5599 37.0554C39.2514 37.0554 40.1358 36.5245 40.9163 36.056C41.6409 35.6212 42.2666 35.2455 43.5905 35.2455C44.9146 35.2455 45.5406 35.6211 46.2653 36.056C46.4002 36.137 46.5376 36.2194 46.6816 36.3006V43.0856H46.6816Z" fill="#01737F"/>
</svg>
