<svg width="47" height="47" viewBox="0 0 47 47" fill="none" xmlns="http://www.w3.org/2000/svg">
<path d="M43.7955 14.9545H42.7273V9.61364C42.7273 7.85114 41.2852 6.40909 39.5227 6.40909V3.20455C39.5227 1.44205 38.0807 0 36.3182 0H30.1655C28.2855 0 26.587 1.04682 25.7539 2.72386C25.4868 3.25795 25.7005 3.89886 26.2239 4.15523C26.3841 4.24068 26.5443 4.27273 26.7045 4.27273C27.0998 4.27273 27.4736 4.05909 27.6552 3.68523C28.1359 2.72386 29.0973 2.13636 30.1655 2.13636H30.9773V6.40909C29.2148 6.40909 27.7727 7.85114 27.7727 9.61364V14.9545H26.7045C24.942 14.9545 23.5 16.3966 23.5 18.1591V23.5855C27.1211 24.1089 29.9091 27.2173 29.9091 30.9773V41.6591C29.9091 43.7527 29.0439 45.6434 27.6552 47H43.7955C45.558 47 47 45.558 47 43.7955V18.1591C47 16.3966 45.558 14.9545 43.7955 14.9545ZM33.1136 2.13636H36.3182C36.9057 2.13636 37.3864 2.61705 37.3864 3.20455V6.40909H33.1136V2.13636ZM37.3864 41.6591H33.1136C32.5261 41.6591 32.0455 41.1784 32.0455 40.5909C32.0455 40.0034 32.5261 39.5227 33.1136 39.5227H37.3864C37.9739 39.5227 38.4545 40.0034 38.4545 40.5909C38.4545 41.1784 37.9739 41.6591 37.3864 41.6591ZM37.3864 37.3864H33.1136C32.5261 37.3864 32.0455 36.9057 32.0455 36.3182C32.0455 35.7307 32.5261 35.25 33.1136 35.25H37.3864C37.9739 35.25 38.4545 35.7307 38.4545 36.3182C38.4545 36.9057 37.9739 37.3864 37.3864 37.3864ZM40.5909 14.9545H29.9091V9.61364C29.9091 9.02614 30.3898 8.54545 30.9773 8.54545H39.5227C40.1102 8.54545 40.5909 9.02614 40.5909 9.61364V14.9545Z" fill="#00B2AE"/>
<path d="M27.7727 30.9773C27.7727 28.0291 25.38 25.6364 22.4318 25.6364H15.8305C15.948 26.1491 16.0227 26.6832 16.0227 27.2386C16.0227 31.0627 12.9036 34.1818 9.07955 34.1818C5.25545 34.1818 2.13636 31.0627 2.13636 27.2386C2.13636 27.057 2.14705 26.8861 2.16841 26.7045C0.865227 27.6766 0 29.2255 0 30.9773V41.6591C0 44.6073 2.39273 47 5.34091 47H22.4318C25.38 47 27.7727 44.6073 27.7727 41.6591V30.9773ZM8.54545 42.7273H7.47727C5.71477 42.7273 4.27273 41.2852 4.27273 39.5227C4.27273 38.9352 4.75341 38.4545 5.34091 38.4545C5.92841 38.4545 6.40909 38.9352 6.40909 39.5227C6.40909 40.1102 6.88977 40.5909 7.47727 40.5909H8.54545C9.13296 40.5909 9.61364 41.0716 9.61364 41.6591C9.61364 42.2466 9.13296 42.7273 8.54545 42.7273ZM20.2955 42.7273H19.2273C18.6398 42.7273 18.1591 42.2466 18.1591 41.6591C18.1591 41.0716 18.6398 40.5909 19.2273 40.5909H20.2955C20.883 40.5909 21.3636 40.1102 21.3636 39.5227C21.3636 38.9352 21.8443 38.4545 22.4318 38.4545C23.0193 38.4545 23.5 38.9352 23.5 39.5227C23.5 41.2852 22.058 42.7273 20.2955 42.7273ZM22.4318 34.1818C21.8443 34.1818 21.3636 33.7011 21.3636 33.1136C21.3636 32.5261 20.883 32.0455 20.2955 32.0455H19.2273C18.6398 32.0455 18.1591 31.5648 18.1591 30.9773C18.1591 30.3898 18.6398 29.9091 19.2273 29.9091H20.2955C22.058 29.9091 23.5 31.3511 23.5 33.1136C23.5 33.7011 23.0193 34.1818 22.4318 34.1818Z" fill="#00B2AE"/>
<path d="M6.94318 19.2273C9.00477 19.2273 10.6818 17.5502 10.6818 15.4886C10.6818 13.427 9.00477 11.75 6.94318 11.75C4.88159 11.75 3.20455 13.427 3.20455 15.4886C3.20455 17.5502 4.88159 19.2273 6.94318 19.2273ZM6.94318 13.8864C7.82977 13.8864 8.54545 14.602 8.54545 15.4886C8.54545 16.3752 7.82977 17.0909 6.94318 17.0909C6.05659 17.0909 5.34091 16.3752 5.34091 15.4886C5.34091 14.602 6.05659 13.8864 6.94318 13.8864Z" fill="#00B2AE"/>
<path d="M14.9545 22.4318C16.717 22.4318 18.1591 20.9898 18.1591 19.2273C18.1591 17.4648 16.717 16.0227 14.9545 16.0227C13.192 16.0227 11.75 17.4648 11.75 19.2273C11.75 20.9898 13.192 22.4318 14.9545 22.4318ZM14.9545 18.1591C15.542 18.1591 16.0227 18.6398 16.0227 19.2273C16.0227 19.8148 15.542 20.2955 14.9545 20.2955C14.367 20.2955 13.8864 19.8148 13.8864 19.2273C13.8864 18.6398 14.367 18.1591 14.9545 18.1591Z" fill="#00B2AE"/>
<path d="M19.2273 7.47727C19.8148 7.47727 20.2955 6.99659 20.2955 6.40909V5.34091C20.2955 4.75341 19.8148 4.27273 19.2273 4.27273C18.6398 4.27273 18.1591 4.75341 18.1591 5.34091V6.40909C18.1591 6.99659 18.6398 7.47727 19.2273 7.47727Z" fill="#00B2AE"/>
<path d="M19.2273 9.61364C18.6398 9.61364 18.1591 10.0943 18.1591 10.6818V11.75C18.1591 12.3375 18.6398 12.8182 19.2273 12.8182C19.8148 12.8182 20.2955 12.3375 20.2955 11.75V10.6818C20.2955 10.0943 19.8148 9.61364 19.2273 9.61364Z" fill="#00B2AE"/>
<path d="M16.0227 9.61364H17.0909C17.6784 9.61364 18.1591 9.13296 18.1591 8.54545C18.1591 7.95795 17.6784 7.47727 17.0909 7.47727H16.0227C15.4352 7.47727 14.9545 7.95795 14.9545 8.54545C14.9545 9.13296 15.4352 9.61364 16.0227 9.61364Z" fill="#00B2AE"/>
<path d="M21.3636 9.61364H22.4318C23.0193 9.61364 23.5 9.13296 23.5 8.54545C23.5 7.95795 23.0193 7.47727 22.4318 7.47727H21.3636C20.7761 7.47727 20.2955 7.95795 20.2955 8.54545C20.2955 9.13296 20.7761 9.61364 21.3636 9.61364Z" fill="#00B2AE"/>
<path d="M7.47727 3.20455C8.06477 3.20455 8.54545 2.72386 8.54545 2.13636V1.06818C8.54545 0.480682 8.06477 0 7.47727 0C6.88977 0 6.40909 0.480682 6.40909 1.06818V2.13636C6.40909 2.72386 6.88977 3.20455 7.47727 3.20455Z" fill="#00B2AE"/>
<path d="M7.47727 5.34091C6.88977 5.34091 6.40909 5.82159 6.40909 6.40909V7.47727C6.40909 8.06477 6.88977 8.54545 7.47727 8.54545C8.06477 8.54545 8.54545 8.06477 8.54545 7.47727V6.40909C8.54545 5.82159 8.06477 5.34091 7.47727 5.34091Z" fill="#00B2AE"/>
<path d="M4.27273 5.34091H5.34091C5.92841 5.34091 6.40909 4.86023 6.40909 4.27273C6.40909 3.68523 5.92841 3.20455 5.34091 3.20455H4.27273C3.68523 3.20455 3.20455 3.68523 3.20455 4.27273C3.20455 4.86023 3.68523 5.34091 4.27273 5.34091Z" fill="#00B2AE"/>
<path d="M9.61364 5.34091H10.6818C11.2693 5.34091 11.75 4.86023 11.75 4.27273C11.75 3.68523 11.2693 3.20455 10.6818 3.20455H9.61364C9.02614 3.20455 8.54545 3.68523 8.54545 4.27273C8.54545 4.86023 9.02614 5.34091 9.61364 5.34091Z" fill="#00B2AE"/>
<path d="M9.07954 22.4318C6.43045 22.4318 4.27273 24.5895 4.27273 27.2386C4.27273 29.8877 6.43045 32.0455 9.07954 32.0455C11.7286 32.0455 13.8864 29.8877 13.8864 27.2386C13.8864 24.5895 11.7286 22.4318 9.07954 22.4318ZM9.07954 29.9091C7.60545 29.9091 6.40909 28.7127 6.40909 27.2386C6.40909 25.7645 7.60545 24.5682 9.07954 24.5682C10.5536 24.5682 11.75 25.7645 11.75 27.2386C11.75 28.7127 10.5536 29.9091 9.07954 29.9091Z" fill="#00B2AE"/>
</svg>
