<svg width="359" height="230" viewBox="0 0 359 230" fill="none" xmlns="http://www.w3.org/2000/svg">
<rect x="79.5" y="1" width="201" height="228" rx="15" fill="#01737F" stroke="#01737F" stroke-width="2"/>
<rect x="1" y="42.5" width="357" height="186" rx="26" fill="white" stroke="#01737F" stroke-width="2"/>
<path d="M104.943 20.516H106.617C107.841 20.516 108.363 19.904 108.363 18.932C108.363 17.96 107.841 17.348 106.617 17.348H104.943V20.516ZM111.495 18.932C111.495 21.02 110.073 22.964 106.851 22.964H104.943V27.5H101.865V14.864H106.851C109.947 14.864 111.495 16.61 111.495 18.932ZM112.485 22.46C112.485 19.292 114.447 17.312 116.913 17.312C118.407 17.312 119.469 17.996 120.009 18.878V17.456H123.087V27.5H120.009V26.078C119.451 26.96 118.389 27.644 116.895 27.644C114.447 27.644 112.485 25.628 112.485 22.46ZM120.009 22.478C120.009 20.876 118.983 19.994 117.813 19.994C116.661 19.994 115.617 20.858 115.617 22.46C115.617 24.062 116.661 24.962 117.813 24.962C118.983 24.962 120.009 24.08 120.009 22.478ZM125.314 27.5V14.18H128.392V21.542L131.434 17.456H135.232L131.056 22.496L135.268 27.5H131.452L128.392 23.288V27.5H125.314ZM140.869 19.778C139.861 19.778 139.087 20.39 138.907 21.506H142.759C142.759 20.408 141.895 19.778 140.869 19.778ZM145.675 24.17C145.189 26.132 143.407 27.644 140.905 27.644C137.953 27.644 135.829 25.664 135.829 22.478C135.829 19.292 137.917 17.312 140.905 17.312C143.839 17.312 145.909 19.256 145.909 22.316C145.909 22.604 145.891 22.91 145.855 23.216H138.889C138.997 24.53 139.807 25.142 140.797 25.142C141.661 25.142 142.147 24.71 142.399 24.17H145.675ZM148.019 24.008V20.012H146.795V17.456H148.019V15.008H151.097V17.456H153.113V20.012H151.097V24.044C151.097 24.638 151.349 24.89 152.033 24.89H153.131V27.5H151.565C149.477 27.5 148.019 26.618 148.019 24.008ZM161.738 20.516H163.412C164.636 20.516 165.158 19.904 165.158 18.932C165.158 17.96 164.636 17.348 163.412 17.348H161.738V20.516ZM168.29 18.932C168.29 21.02 166.868 22.964 163.646 22.964H161.738V27.5H158.66V14.864H163.646C166.742 14.864 168.29 16.61 168.29 18.932ZM174.32 19.778C173.312 19.778 172.538 20.39 172.358 21.506H176.21C176.21 20.408 175.346 19.778 174.32 19.778ZM179.126 24.17C178.64 26.132 176.858 27.644 174.356 27.644C171.404 27.644 169.28 25.664 169.28 22.478C169.28 19.292 171.368 17.312 174.356 17.312C177.29 17.312 179.36 19.256 179.36 22.316C179.36 22.604 179.342 22.91 179.306 23.216H172.34C172.448 24.53 173.258 25.142 174.248 25.142C175.112 25.142 175.598 24.71 175.85 24.17H179.126ZM184.062 22.838V27.5H180.984V17.456H184.062V19.13C184.764 18.068 185.862 17.348 187.212 17.348V20.606H186.366C184.908 20.606 184.062 21.11 184.062 22.838ZM188.071 22.46C188.071 19.292 190.033 17.312 192.499 17.312C193.993 17.312 195.055 17.996 195.595 18.878V17.456H198.673V27.5H195.595V26.078C195.037 26.96 193.975 27.644 192.481 27.644C190.033 27.644 188.071 25.628 188.071 22.46ZM195.595 22.478C195.595 20.876 194.569 19.994 193.399 19.994C192.247 19.994 191.203 20.858 191.203 22.46C191.203 24.062 192.247 24.962 193.399 24.962C194.569 24.962 195.595 24.08 195.595 22.478ZM202.592 27.5L199.856 17.456H202.934L204.356 24.638L206.048 17.456H209.306L211.016 24.602L212.42 17.456H215.318L212.6 27.5H209.198L207.614 20.984L205.976 27.5H202.592ZM215.88 22.46C215.88 19.292 217.842 17.312 220.308 17.312C221.802 17.312 222.864 17.996 223.404 18.878V17.456H226.482V27.5H223.404V26.078C222.846 26.96 221.784 27.644 220.29 27.644C217.842 27.644 215.88 25.628 215.88 22.46ZM223.404 22.478C223.404 20.876 222.378 19.994 221.208 19.994C220.056 19.994 219.012 20.858 219.012 22.46C219.012 24.062 220.056 24.962 221.208 24.962C222.378 24.962 223.404 24.08 223.404 22.478ZM229.195 24.008V20.012H227.971V17.456H229.195V15.008H232.273V17.456H234.289V20.012H232.273V24.044C232.273 24.638 232.525 24.89 233.209 24.89H234.307V27.5H232.741C230.653 27.5 229.195 26.618 229.195 24.008ZM235.409 22.46C235.409 19.292 237.371 17.312 239.837 17.312C241.331 17.312 242.393 17.996 242.933 18.878V17.456H246.011V27.5H242.933V26.078C242.375 26.96 241.313 27.644 239.819 27.644C237.371 27.644 235.409 25.628 235.409 22.46ZM242.933 22.478C242.933 20.876 241.907 19.994 240.737 19.994C239.585 19.994 238.541 20.858 238.541 22.46C238.541 24.062 239.585 24.962 240.737 24.962C241.907 24.962 242.933 24.08 242.933 22.478ZM255.168 27.5V22.046C255.168 20.678 254.412 19.922 253.242 19.922C252.072 19.922 251.316 20.678 251.316 22.046V27.5H248.238V17.456H251.316V18.788C251.928 17.942 253.008 17.348 254.358 17.348C256.68 17.348 258.228 18.932 258.228 21.632V27.5H255.168Z" fill="white"/>
<path d="M8 69.5C8 58.4543 16.9543 49.5 28 49.5H125V221.5H28C16.9543 221.5 8 212.546 8 201.5V69.5Z" fill="#01737F"/>
<path d="M29.111 124.536C29.477 115.752 35.211 110.933 44.3 110.933C53.694 110.933 58.757 116.301 58.757 123.011C58.757 128.867 55.097 131.978 52.047 133.015V133.259C56.5 134.723 59.55 138.139 59.55 143.995C59.55 151.498 54.182 156.866 44.849 156.866C35.577 156.866 28.867 152.474 28.562 142.409H38.688C38.749 145.886 40.64 148.204 44.483 148.204C47.716 148.204 49.485 146.13 49.485 143.202C49.485 139.237 47.106 137.651 41.677 137.651H39.725V129.172H41.677C45.215 129.172 48.631 128.318 48.631 124.292C48.631 121.303 46.862 119.656 44.056 119.656C40.701 119.656 39.481 122.096 39.298 124.536H29.111ZM92.9456 156.5L84.2226 143.385L76.5366 156.5H64.7026L78.4276 134.723L64.3976 113.678H76.5366L85.1376 126.61L92.7016 113.678H104.536L90.9326 135.272L105.085 156.5H92.9456Z" fill="white"/>
<path d="M127 49.5H331C342.046 49.5 351 58.4543 351 69.5V105.5H127V49.5Z" fill="#00B2AE"/>
<path d="M147.992 83.5V72.268H150.728V83.5H147.992ZM158.871 83.5V78.652C158.871 77.436 158.199 76.764 157.159 76.764C156.119 76.764 155.447 77.436 155.447 78.652V83.5H152.711V74.572H155.447V75.756C155.991 75.004 156.951 74.476 158.151 74.476C160.215 74.476 161.591 75.884 161.591 78.284V83.5H158.871ZM163.764 83.5V76.844H162.772V74.572H163.764V74.316C163.764 71.98 165.204 70.828 167.924 70.972V73.292C166.868 73.228 166.5 73.548 166.5 74.492V74.572H167.972V76.844H166.5V83.5H163.764ZM178.074 74.572V83.5H175.338V82.284C174.794 83.052 173.834 83.596 172.634 83.596C170.57 83.596 169.178 82.172 169.178 79.788V74.572H171.898V79.42C171.898 80.636 172.586 81.308 173.61 81.308C174.666 81.308 175.338 80.636 175.338 79.42V74.572H178.074ZM187.287 80.908C187.287 82.46 185.911 83.628 183.671 83.628C181.287 83.628 179.687 82.3 179.559 80.572H182.263C182.327 81.196 182.887 81.612 183.639 81.612C184.343 81.612 184.711 81.292 184.711 80.892C184.711 79.452 179.847 80.492 179.847 77.212C179.847 75.692 181.143 74.444 183.479 74.444C185.783 74.444 187.063 75.724 187.239 77.484H184.711C184.631 76.876 184.167 76.476 183.399 76.476C182.759 76.476 182.407 76.732 182.407 77.164C182.407 78.588 187.239 77.58 187.287 80.908ZM194.607 83.5L191.759 72.268H194.687L196.303 80.444L198.303 72.268H201.311L203.231 80.444L204.863 72.268H207.807L204.879 83.5H201.567L199.775 76.108L197.919 83.5H194.607ZM209.18 83.5V71.66H211.916V75.772C212.46 75.004 213.436 74.476 214.668 74.476C216.7 74.476 218.06 75.884 218.06 78.284V83.5H215.34V78.652C215.34 77.436 214.668 76.764 213.628 76.764C212.588 76.764 211.916 77.436 211.916 78.652V83.5H209.18ZM219.961 83.5V74.572H222.697V83.5H219.961ZM221.337 73.644C220.361 73.644 219.705 72.988 219.705 72.172C219.705 71.34 220.361 70.684 221.337 70.684C222.297 70.684 222.953 71.34 222.953 72.172C222.953 72.988 222.297 73.644 221.337 73.644ZM225.112 80.396V76.844H224.024V74.572H225.112V72.396H227.848V74.572H229.64V76.844H227.848V80.428C227.848 80.956 228.072 81.18 228.68 81.18H229.656V83.5H228.264C226.408 83.5 225.112 82.716 225.112 80.396ZM235.116 76.636C234.22 76.636 233.532 77.18 233.372 78.172H236.796C236.796 77.196 236.028 76.636 235.116 76.636ZM239.388 80.54C238.956 82.284 237.372 83.628 235.148 83.628C232.524 83.628 230.636 81.868 230.636 79.036C230.636 76.204 232.492 74.444 235.148 74.444C237.756 74.444 239.595 76.172 239.595 78.892C239.595 79.148 239.58 79.42 239.548 79.692H233.356C233.452 80.86 234.172 81.404 235.052 81.404C235.82 81.404 236.252 81.02 236.476 80.54H239.388ZM247.199 83.5V78.652C247.199 77.436 246.527 76.764 245.487 76.764C244.447 76.764 243.775 77.436 243.775 78.652V83.5H241.039V74.572H243.775V75.756C244.319 75.004 245.279 74.476 246.479 74.476C248.543 74.476 249.919 75.884 249.919 78.284V83.5H247.199ZM251.82 83.5V74.572H254.556V83.5H251.82ZM253.196 73.644C252.22 73.644 251.564 72.988 251.564 72.172C251.564 71.34 252.22 70.684 253.196 70.684C254.156 70.684 254.812 71.34 254.812 72.172C254.812 72.988 254.156 73.644 253.196 73.644ZM262.699 83.5V78.652C262.699 77.436 262.027 76.764 260.987 76.764C259.947 76.764 259.275 77.436 259.275 78.652V83.5H256.539V74.572H259.275V75.756C259.819 75.004 260.779 74.476 261.979 74.476C264.043 74.476 265.419 75.884 265.419 78.284V83.5H262.699ZM266.776 79.02C266.776 76.204 268.52 74.444 270.712 74.444C272.024 74.444 272.984 75.036 273.464 75.836V74.572H276.2V83.484C276.2 85.868 274.824 87.9 271.736 87.9C269.08 87.9 267.352 86.556 267.112 84.428H269.816C269.992 85.1 270.664 85.532 271.608 85.532C272.648 85.532 273.464 84.988 273.464 83.484V82.22C272.968 83.004 272.024 83.628 270.712 83.628C268.52 83.628 266.776 81.836 266.776 79.02ZM273.464 79.036C273.464 77.612 272.552 76.828 271.512 76.828C270.488 76.828 269.56 77.596 269.56 79.02C269.56 80.444 270.488 81.244 271.512 81.244C272.552 81.244 273.464 80.46 273.464 79.036Z" fill="white"/>
<rect width="224" height="56" transform="translate(127 107.5)" fill="#00B2AE"/>
<path d="M154.035 131.5L150.495 126.85V131.5H147.93V120.97H150.495V125.59L154.005 120.97H157.02L152.94 126.13L157.17 131.5H154.035ZM166.579 127.315C166.579 129.97 164.659 131.62 162.199 131.62C159.739 131.62 157.879 129.97 157.879 127.315C157.879 124.66 159.784 123.01 162.229 123.01C164.689 123.01 166.579 124.66 166.579 127.315ZM160.489 127.315C160.489 128.725 161.269 129.4 162.199 129.4C163.114 129.4 163.969 128.725 163.969 127.315C163.969 125.89 163.129 125.23 162.229 125.23C161.299 125.23 160.489 125.89 160.489 127.315ZM173.715 131.5V126.955C173.715 125.815 173.085 125.185 172.11 125.185C171.135 125.185 170.505 125.815 170.505 126.955V131.5H167.94V123.13H170.505V124.24C171.015 123.535 171.915 123.04 173.04 123.04C174.975 123.04 176.265 124.36 176.265 126.61V131.5H173.715ZM184.842 129.07C184.842 130.525 183.552 131.62 181.452 131.62C179.217 131.62 177.717 130.375 177.597 128.755H180.132C180.192 129.34 180.717 129.73 181.422 129.73C182.082 129.73 182.427 129.43 182.427 129.055C182.427 127.705 177.867 128.68 177.867 125.605C177.867 124.18 179.082 123.01 181.272 123.01C183.432 123.01 184.632 124.21 184.797 125.86H182.427C182.352 125.29 181.917 124.915 181.197 124.915C180.597 124.915 180.267 125.155 180.267 125.56C180.267 126.895 184.797 125.95 184.842 129.07ZM194.676 123.13V131.5H192.111V130.36C191.601 131.08 190.701 131.59 189.576 131.59C187.641 131.59 186.336 130.255 186.336 128.02V123.13H188.886V127.675C188.886 128.815 189.531 129.445 190.491 129.445C191.481 129.445 192.111 128.815 192.111 127.675V123.13H194.676ZM196.519 131.5V120.4H199.084V131.5H196.519ZM201.348 128.59V125.26H200.328V123.13H201.348V121.09H203.913V123.13H205.593V125.26H203.913V128.62C203.913 129.115 204.123 129.325 204.693 129.325H205.608V131.5H204.303C202.563 131.5 201.348 130.765 201.348 128.59ZM206.526 127.3C206.526 124.66 208.161 123.01 210.216 123.01C211.461 123.01 212.346 123.58 212.796 124.315V123.13H215.361V131.5H212.796V130.315C212.331 131.05 211.446 131.62 210.201 131.62C208.161 131.62 206.526 129.94 206.526 127.3ZM212.796 127.315C212.796 125.98 211.941 125.245 210.966 125.245C210.006 125.245 209.136 125.965 209.136 127.3C209.136 128.635 210.006 129.385 210.966 129.385C211.941 129.385 212.796 128.65 212.796 127.315ZM224.012 129.07C224.012 130.525 222.722 131.62 220.622 131.62C218.387 131.62 216.887 130.375 216.767 128.755H219.302C219.362 129.34 219.887 129.73 220.592 129.73C221.252 129.73 221.597 129.43 221.597 129.055C221.597 127.705 217.037 128.68 217.037 125.605C217.037 124.18 218.252 123.01 220.442 123.01C222.602 123.01 223.802 124.21 223.967 125.86H221.597C221.522 125.29 221.087 124.915 220.367 124.915C219.767 124.915 219.437 125.155 219.437 125.56C219.437 126.895 223.967 125.95 224.012 129.07ZM225.581 131.5V123.13H228.146V131.5H225.581ZM226.871 122.26C225.956 122.26 225.341 121.645 225.341 120.88C225.341 120.1 225.956 119.485 226.871 119.485C227.771 119.485 228.386 120.1 228.386 120.88C228.386 121.645 227.771 122.26 226.871 122.26ZM232.674 127.3C232.674 124.66 234.309 123.01 236.364 123.01C237.474 123.01 238.434 123.52 238.944 124.285V120.4H241.509V131.5H238.944V130.3C238.479 131.065 237.594 131.62 236.364 131.62C234.309 131.62 232.674 129.94 232.674 127.3ZM238.944 127.315C238.944 125.98 238.089 125.245 237.114 125.245C236.154 125.245 235.284 125.965 235.284 127.3C235.284 128.635 236.154 129.385 237.114 129.385C238.089 129.385 238.944 128.65 238.944 127.315ZM251.555 127.315C251.555 129.97 249.635 131.62 247.175 131.62C244.715 131.62 242.855 129.97 242.855 127.315C242.855 124.66 244.76 123.01 247.205 123.01C249.665 123.01 251.555 124.66 251.555 127.315ZM245.465 127.315C245.465 128.725 246.245 129.4 247.175 129.4C248.09 129.4 248.945 128.725 248.945 127.315C248.945 125.89 248.105 125.23 247.205 125.23C246.275 125.23 245.465 125.89 245.465 127.315ZM252.915 131.5V120.4H255.48V126.535L258.015 123.13H261.18L257.7 127.33L261.21 131.5H258.03L255.48 127.99V131.5H252.915ZM262.593 128.59V125.26H261.573V123.13H262.593V121.09H265.158V123.13H266.838V125.26H265.158V128.62C265.158 129.115 265.368 129.325 265.938 129.325H266.853V131.5H265.548C263.808 131.5 262.593 130.765 262.593 128.59ZM271.972 125.065C271.132 125.065 270.487 125.575 270.337 126.505H273.547C273.547 125.59 272.827 125.065 271.972 125.065ZM275.977 128.725C275.572 130.36 274.087 131.62 272.002 131.62C269.542 131.62 267.772 129.97 267.772 127.315C267.772 124.66 269.512 123.01 272.002 123.01C274.447 123.01 276.172 124.63 276.172 127.18C276.172 127.42 276.157 127.675 276.127 127.93H270.322C270.412 129.025 271.087 129.535 271.912 129.535C272.632 129.535 273.037 129.175 273.247 128.725H275.977ZM280.09 127.615V131.5H277.525V123.13H280.09V124.525C280.675 123.64 281.59 123.04 282.715 123.04V125.755H282.01C280.795 125.755 280.09 126.175 280.09 127.615ZM147.93 150.5V139.4H150.495V145.535L153.03 142.13H156.195L152.715 146.33L156.225 150.5H153.045L150.495 146.99V150.5H147.93ZM160.892 144.065C160.052 144.065 159.407 144.575 159.257 145.505H162.467C162.467 144.59 161.747 144.065 160.892 144.065ZM164.897 147.725C164.492 149.36 163.007 150.62 160.922 150.62C158.462 150.62 156.692 148.97 156.692 146.315C156.692 143.66 158.432 142.01 160.922 142.01C163.367 142.01 165.092 143.63 165.092 146.18C165.092 146.42 165.077 146.675 165.047 146.93H159.242C159.332 148.025 160.007 148.535 160.832 148.535C161.552 148.535 161.957 148.175 162.167 147.725H164.897ZM165.936 146.315C165.936 143.675 167.676 142.01 170.136 142.01C172.236 142.01 173.721 143.165 174.156 145.16H171.426C171.216 144.575 170.796 144.2 170.091 144.2C169.176 144.2 168.546 144.92 168.546 146.315C168.546 147.71 169.176 148.43 170.091 148.43C170.796 148.43 171.201 148.085 171.426 147.47H174.156C173.721 149.405 172.236 150.62 170.136 150.62C167.676 150.62 165.936 148.97 165.936 146.315ZM175.018 146.3C175.018 143.66 176.653 142.01 178.708 142.01C179.953 142.01 180.838 142.58 181.288 143.315V142.13H183.853V150.5H181.288V149.315C180.823 150.05 179.938 150.62 178.693 150.62C176.653 150.62 175.018 148.94 175.018 146.3ZM181.288 146.315C181.288 144.98 180.433 144.245 179.458 144.245C178.498 144.245 177.628 144.965 177.628 146.3C177.628 147.635 178.498 148.385 179.458 148.385C180.433 148.385 181.288 147.65 181.288 146.315ZM191.483 150.5V145.955C191.483 144.815 190.853 144.185 189.878 144.185C188.903 144.185 188.273 144.815 188.273 145.955V150.5H185.708V142.13H188.273V143.24C188.783 142.535 189.683 142.04 190.808 142.04C192.743 142.04 194.033 143.36 194.033 145.61V150.5H191.483ZM196.221 147.59V144.26H195.201V142.13H196.221V140.09H198.786V142.13H200.466V144.26H198.786V147.62C198.786 148.115 198.996 148.325 199.566 148.325H200.481V150.5H199.176C197.436 150.5 196.221 149.765 196.221 147.59ZM201.909 150.5V142.13H204.474V150.5H201.909ZM203.199 141.26C202.284 141.26 201.669 140.645 201.669 139.88C201.669 139.1 202.284 138.485 203.199 138.485C204.099 138.485 204.714 139.1 204.714 139.88C204.714 140.645 204.099 141.26 203.199 141.26ZM206.333 150.5V139.4H208.898V145.535L211.433 142.13H214.598L211.118 146.33L214.628 150.5H211.448L208.898 146.99V150.5H206.333ZM215.096 146.3C215.096 143.66 216.731 142.01 218.786 142.01C220.031 142.01 220.916 142.58 221.366 143.315V142.13H223.931V150.5H221.366V149.315C220.901 150.05 220.016 150.62 218.771 150.62C216.731 150.62 215.096 148.94 215.096 146.3ZM221.366 146.315C221.366 144.98 220.511 144.245 219.536 144.245C218.576 144.245 217.706 144.965 217.706 146.3C217.706 147.635 218.576 148.385 219.536 148.385C220.511 148.385 221.366 147.65 221.366 146.315ZM231.561 150.5V145.955C231.561 144.815 230.931 144.185 229.956 144.185C228.981 144.185 228.351 144.815 228.351 145.955V150.5H225.786V142.13H228.351V143.24C228.861 142.535 229.761 142.04 230.886 142.04C232.821 142.04 234.111 143.36 234.111 145.61V150.5H231.561Z" fill="white"/>
<path d="M127 165.5H351V201.5C351 212.546 342.046 221.5 331 221.5H127V165.5Z" fill="#00B2AE"/>
<path d="M147.93 199V188.47H150.96L153.915 195.76L156.84 188.47H159.855V199H157.29V192.685L154.935 199H152.865L150.495 192.67V199H147.93ZM161.19 194.8C161.19 192.16 162.825 190.51 164.88 190.51C166.125 190.51 167.01 191.08 167.46 191.815V190.63H170.025V199H167.46V197.815C166.995 198.55 166.11 199.12 164.865 199.12C162.825 199.12 161.19 197.44 161.19 194.8ZM167.46 194.815C167.46 193.48 166.605 192.745 165.63 192.745C164.67 192.745 163.8 193.465 163.8 194.8C163.8 196.135 164.67 196.885 165.63 196.885C166.605 196.885 167.46 196.15 167.46 194.815ZM178.675 196.57C178.675 198.025 177.385 199.12 175.285 199.12C173.05 199.12 171.55 197.875 171.43 196.255H173.965C174.025 196.84 174.55 197.23 175.255 197.23C175.915 197.23 176.26 196.93 176.26 196.555C176.26 195.205 171.7 196.18 171.7 193.105C171.7 191.68 172.915 190.51 175.105 190.51C177.265 190.51 178.465 191.71 178.63 193.36H176.26C176.185 192.79 175.75 192.415 175.03 192.415C174.43 192.415 174.1 192.655 174.1 193.06C174.1 194.395 178.63 193.45 178.675 196.57ZM180.244 199V187.9H182.809V194.035L185.344 190.63H188.509L185.029 194.83L188.539 199H185.359L182.809 195.49V199H180.244ZM193.207 192.565C192.367 192.565 191.722 193.075 191.572 194.005H194.782C194.782 193.09 194.062 192.565 193.207 192.565ZM197.212 196.225C196.807 197.86 195.322 199.12 193.237 199.12C190.777 199.12 189.007 197.47 189.007 194.815C189.007 192.16 190.747 190.51 193.237 190.51C195.682 190.51 197.407 192.13 197.407 194.68C197.407 194.92 197.392 195.175 197.362 195.43H191.557C191.647 196.525 192.322 197.035 193.147 197.035C193.867 197.035 194.272 196.675 194.482 196.225H197.212ZM201.325 195.115V199H198.76V190.63H201.325V192.025C201.91 191.14 202.825 190.54 203.95 190.54V193.255H203.245C202.03 193.255 201.325 193.675 201.325 195.115ZM207.845 194.8C207.845 192.16 209.48 190.51 211.535 190.51C212.765 190.51 213.665 191.065 214.115 191.815V190.63H216.68V198.985C216.68 201.22 215.39 203.125 212.495 203.125C210.005 203.125 208.385 201.865 208.16 199.87H210.695C210.86 200.5 211.49 200.905 212.375 200.905C213.35 200.905 214.115 200.395 214.115 198.985V197.8C213.65 198.535 212.765 199.12 211.535 199.12C209.48 199.12 207.845 197.44 207.845 194.8ZM214.115 194.815C214.115 193.48 213.26 192.745 212.285 192.745C211.325 192.745 210.455 193.465 210.455 194.8C210.455 196.135 211.325 196.885 212.285 196.885C213.26 196.885 214.115 196.15 214.115 194.815ZM218.535 199V187.9H221.1V199H218.535ZM231.149 194.815C231.149 197.47 229.229 199.12 226.769 199.12C224.309 199.12 222.449 197.47 222.449 194.815C222.449 192.16 224.354 190.51 226.799 190.51C229.259 190.51 231.149 192.16 231.149 194.815ZM225.059 194.815C225.059 196.225 225.839 196.9 226.769 196.9C227.684 196.9 228.539 196.225 228.539 194.815C228.539 193.39 227.699 192.73 226.799 192.73C225.869 192.73 225.059 193.39 225.059 194.815ZM233.92 199L231.64 190.63H234.205L235.39 196.615L236.8 190.63H239.515L240.94 196.585L242.11 190.63H244.525L242.26 199H239.425L238.105 193.57L236.74 199H233.92ZM245.503 199V190.63H248.068V199H245.503ZM246.793 189.76C245.878 189.76 245.263 189.145 245.263 188.38C245.263 187.6 245.878 186.985 246.793 186.985C247.693 186.985 248.308 187.6 248.308 188.38C248.308 189.145 247.693 189.76 246.793 189.76ZM255.702 199V194.455C255.702 193.315 255.072 192.685 254.097 192.685C253.122 192.685 252.492 193.315 252.492 194.455V199H249.927V190.63H252.492V191.74C253.002 191.035 253.902 190.54 255.027 190.54C256.962 190.54 258.252 191.86 258.252 194.11V199H255.702ZM259.524 194.8C259.524 192.16 261.159 190.51 263.214 190.51C264.444 190.51 265.344 191.065 265.794 191.815V190.63H268.359V198.985C268.359 201.22 267.069 203.125 264.174 203.125C261.684 203.125 260.064 201.865 259.839 199.87H262.374C262.539 200.5 263.169 200.905 264.054 200.905C265.029 200.905 265.794 200.395 265.794 198.985V197.8C265.329 198.535 264.444 199.12 263.214 199.12C261.159 199.12 259.524 197.44 259.524 194.8ZM265.794 194.815C265.794 193.48 264.939 192.745 263.964 192.745C263.004 192.745 262.134 193.465 262.134 194.8C262.134 196.135 263.004 196.885 263.964 196.885C264.939 196.885 265.794 196.15 265.794 194.815Z" fill="white"/>
</svg>
