<svg width="360" height="231" viewBox="0 0 360 231" fill="none" xmlns="http://www.w3.org/2000/svg">
<rect x="85.5" y="1.5" width="189" height="228" rx="15" fill="#01737F" stroke="#01737F" stroke-width="2"/>
<rect x="1.5" y="43.5" width="357" height="186" rx="26" fill="white" stroke="#01737F" stroke-width="2"/>
<path d="M111.154 28.5L107.95 15.864H111.244L113.062 25.062L115.312 15.864H118.696L120.856 25.062L122.692 15.864H126.004L122.71 28.5H118.984L116.968 20.184L114.88 28.5H111.154ZM127.548 28.5V15.18H130.626V19.806C131.238 18.942 132.336 18.348 133.722 18.348C136.008 18.348 137.538 19.932 137.538 22.632V28.5H134.478V23.046C134.478 21.678 133.722 20.922 132.552 20.922C131.382 20.922 130.626 21.678 130.626 23.046V28.5H127.548ZM139.065 23.46C139.065 20.292 141.027 18.312 143.493 18.312C144.987 18.312 146.049 18.996 146.589 19.878V18.456H149.667V28.5H146.589V27.078C146.031 27.96 144.969 28.644 143.475 28.644C141.027 28.644 139.065 26.628 139.065 23.46ZM146.589 23.478C146.589 21.876 145.563 20.994 144.393 20.994C143.241 20.994 142.197 21.858 142.197 23.46C142.197 25.062 143.241 25.962 144.393 25.962C145.563 25.962 146.589 25.08 146.589 23.478ZM152.379 25.008V21.012H151.155V18.456H152.379V16.008H155.457V18.456H157.473V21.012H155.457V25.044C155.457 25.638 155.709 25.89 156.393 25.89H157.491V28.5H155.925C153.837 28.5 152.379 27.618 152.379 25.008ZM166.404 24.324L162.03 15.864H165.522L167.97 21.156L170.4 15.864H173.856L169.482 24.324V28.5H166.404V24.324ZM184.924 23.478C184.924 26.664 182.62 28.644 179.668 28.644C176.716 28.644 174.484 26.664 174.484 23.478C174.484 20.292 176.77 18.312 179.704 18.312C182.656 18.312 184.924 20.292 184.924 23.478ZM177.616 23.478C177.616 25.17 178.552 25.98 179.668 25.98C180.766 25.98 181.792 25.17 181.792 23.478C181.792 21.768 180.784 20.976 179.704 20.976C178.588 20.976 177.616 21.768 177.616 23.478ZM196.475 18.456V28.5H193.397V27.132C192.785 27.996 191.705 28.608 190.355 28.608C188.033 28.608 186.467 27.006 186.467 24.324V18.456H189.527V23.91C189.527 25.278 190.301 26.034 191.453 26.034C192.641 26.034 193.397 25.278 193.397 23.91V18.456H196.475ZM198.524 18.078L198.29 14.1H200.828L200.594 18.078H198.524ZM202.659 28.5V15.18H205.737V28.5H202.659ZM207.968 28.5V15.18H211.046V28.5H207.968ZM222.995 15.72C226.019 15.72 228.215 17.268 228.881 19.86H225.479C225.011 19.014 224.147 18.564 222.995 18.564C221.015 18.564 219.701 19.968 219.701 22.164C219.701 24.504 221.033 25.872 223.247 25.872C224.777 25.872 225.839 25.062 226.307 23.64H222.401V21.372H229.097V24.234C228.449 26.412 226.343 28.59 223.013 28.59C219.233 28.59 216.569 25.944 216.569 22.164C216.569 18.384 219.215 15.72 222.995 15.72ZM235.23 20.778C234.222 20.778 233.448 21.39 233.268 22.506H237.12C237.12 21.408 236.256 20.778 235.23 20.778ZM240.036 25.17C239.55 27.132 237.768 28.644 235.266 28.644C232.314 28.644 230.19 26.664 230.19 23.478C230.19 20.292 232.278 18.312 235.266 18.312C238.2 18.312 240.27 20.256 240.27 23.316C240.27 23.604 240.252 23.91 240.216 24.216H233.25C233.358 25.53 234.168 26.142 235.158 26.142C236.022 26.142 236.508 25.71 236.76 25.17H240.036ZM242.379 25.008V21.012H241.155V18.456H242.379V16.008H245.457V18.456H247.473V21.012H245.457V25.044C245.457 25.638 245.709 25.89 246.393 25.89H247.491V28.5H245.925C243.837 28.5 242.379 27.618 242.379 25.008Z" fill="white"/>
<path d="M8.5 70.5C8.5 59.4543 17.4543 50.5 28.5 50.5H125.5V222.5H28.5C17.4543 222.5 8.5 213.546 8.5 202.5V70.5Z" fill="#01737F"/>
<path d="M29.611 125.536C29.977 116.752 35.711 111.933 44.8 111.933C54.194 111.933 59.257 117.301 59.257 124.011C59.257 129.867 55.597 132.978 52.547 134.015V134.259C57 135.723 60.05 139.139 60.05 144.995C60.05 152.498 54.682 157.866 45.349 157.866C36.077 157.866 29.367 153.474 29.062 143.409H39.188C39.249 146.886 41.14 149.204 44.983 149.204C48.216 149.204 49.985 147.13 49.985 144.202C49.985 140.237 47.606 138.651 42.177 138.651H40.225V130.172H42.177C45.715 130.172 49.131 129.318 49.131 125.292C49.131 122.303 47.362 120.656 44.556 120.656C41.201 120.656 39.981 123.096 39.798 125.536H29.611ZM93.4456 157.5L84.7226 144.385L77.0366 157.5H65.2026L78.9276 135.723L64.8976 114.678H77.0366L85.6376 127.61L93.2016 114.678H105.036L91.4326 136.272L105.585 157.5H93.4456Z" fill="white"/>
<path d="M127.5 50.5H331.5C342.546 50.5 351.5 59.4543 351.5 70.5V106.5H127.5V50.5Z" fill="#00B2AE"/>
<path d="M150.748 84.5L147.9 73.268H150.828L152.444 81.444L154.444 73.268H157.452L159.372 81.444L161.004 73.268H163.948L161.02 84.5H157.708L155.916 77.108L154.06 84.5H150.748ZM165.32 84.5V72.66H168.056V76.772C168.6 76.004 169.576 75.476 170.808 75.476C172.84 75.476 174.2 76.884 174.2 79.284V84.5H171.48V79.652C171.48 78.436 170.808 77.764 169.768 77.764C168.728 77.764 168.056 78.436 168.056 79.652V84.5H165.32ZM176.101 84.5V75.572H178.837V84.5H176.101ZM177.477 74.644C176.501 74.644 175.845 73.988 175.845 73.172C175.845 72.34 176.501 71.684 177.477 71.684C178.437 71.684 179.093 72.34 179.093 73.172C179.093 73.988 178.437 74.644 177.477 74.644ZM181.252 81.396V77.844H180.164V75.572H181.252V73.396H183.988V75.572H185.78V77.844H183.988V81.428C183.988 81.956 184.212 82.18 184.82 82.18H185.796V84.5H184.404C182.548 84.5 181.252 83.716 181.252 81.396ZM191.256 77.636C190.36 77.636 189.672 78.18 189.512 79.172H192.936C192.936 78.196 192.168 77.636 191.256 77.636ZM195.528 81.54C195.096 83.284 193.512 84.628 191.288 84.628C188.664 84.628 186.776 82.868 186.776 80.036C186.776 77.204 188.632 75.444 191.288 75.444C193.896 75.444 195.736 77.172 195.736 79.892C195.736 80.148 195.72 80.42 195.688 80.692H189.496C189.592 81.86 190.312 82.404 191.192 82.404C191.96 82.404 192.392 82.02 192.616 81.54H195.528ZM203.34 84.5V79.652C203.34 78.436 202.668 77.764 201.628 77.764C200.588 77.764 199.916 78.436 199.916 79.652V84.5H197.18V75.572H199.916V76.756C200.46 76.004 201.42 75.476 202.62 75.476C204.684 75.476 206.06 76.884 206.06 79.284V84.5H203.34ZM207.961 84.5V75.572H210.697V84.5H207.961ZM209.337 74.644C208.361 74.644 207.705 73.988 207.705 73.172C207.705 72.34 208.361 71.684 209.337 71.684C210.297 71.684 210.953 72.34 210.953 73.172C210.953 73.988 210.297 74.644 209.337 74.644ZM218.84 84.5V79.652C218.84 78.436 218.168 77.764 217.128 77.764C216.088 77.764 215.416 78.436 215.416 79.652V84.5H212.68V75.572H215.416V76.756C215.96 76.004 216.92 75.476 218.12 75.476C220.184 75.476 221.56 76.884 221.56 79.284V84.5H218.84ZM222.917 80.02C222.917 77.204 224.661 75.444 226.853 75.444C228.165 75.444 229.125 76.036 229.605 76.836V75.572H232.341V84.484C232.341 86.868 230.965 88.9 227.877 88.9C225.221 88.9 223.493 87.556 223.253 85.428H225.957C226.133 86.1 226.805 86.532 227.749 86.532C228.789 86.532 229.605 85.988 229.605 84.484V83.22C229.109 84.004 228.165 84.628 226.853 84.628C224.661 84.628 222.917 82.836 222.917 80.02ZM229.605 80.036C229.605 78.612 228.693 77.828 227.653 77.828C226.629 77.828 225.701 78.596 225.701 80.02C225.701 81.444 226.629 82.244 227.653 82.244C228.693 82.244 229.605 81.46 229.605 80.036ZM237.711 84.5V73.268H240.447V84.5H237.711ZM248.59 84.5V79.652C248.59 78.436 247.918 77.764 246.878 77.764C245.838 77.764 245.166 78.436 245.166 79.652V84.5H242.43V75.572H245.166V76.756C245.71 76.004 246.67 75.476 247.87 75.476C249.934 75.476 251.31 76.884 251.31 79.284V84.5H248.59ZM253.483 84.5V77.844H252.491V75.572H253.483V75.316C253.483 72.98 254.923 71.828 257.643 71.972V74.292C256.587 74.228 256.219 74.548 256.219 75.492V75.572H257.691V77.844H256.219V84.5H253.483ZM267.792 75.572V84.5H265.056V83.284C264.512 84.052 263.552 84.596 262.352 84.596C260.288 84.596 258.896 83.172 258.896 80.788V75.572H261.616V80.42C261.616 81.636 262.304 82.308 263.328 82.308C264.384 82.308 265.056 81.636 265.056 80.42V75.572H267.792ZM277.006 81.908C277.006 83.46 275.63 84.628 273.39 84.628C271.006 84.628 269.406 83.3 269.278 81.572H271.982C272.046 82.196 272.606 82.612 273.358 82.612C274.062 82.612 274.43 82.292 274.43 81.892C274.43 80.452 269.566 81.492 269.566 78.212C269.566 76.692 270.862 75.444 273.198 75.444C275.502 75.444 276.782 76.724 276.958 78.484H274.43C274.35 77.876 273.886 77.476 273.118 77.476C272.478 77.476 272.126 77.732 272.126 78.164C272.126 79.588 276.958 78.58 277.006 81.908ZM278.68 84.5V75.572H281.416V84.5H278.68ZM280.056 74.644C279.08 74.644 278.424 73.988 278.424 73.172C278.424 72.34 279.08 71.684 280.056 71.684C281.016 71.684 281.672 72.34 281.672 73.172C281.672 73.988 281.016 74.644 280.056 74.644ZM292.134 80.036C292.134 82.868 290.086 84.628 287.462 84.628C284.838 84.628 282.854 82.868 282.854 80.036C282.854 77.204 284.886 75.444 287.494 75.444C290.118 75.444 292.134 77.204 292.134 80.036ZM285.638 80.036C285.638 81.54 286.47 82.26 287.462 82.26C288.438 82.26 289.35 81.54 289.35 80.036C289.35 78.516 288.454 77.812 287.494 77.812C286.502 77.812 285.638 78.516 285.638 80.036ZM299.746 84.5V79.652C299.746 78.436 299.074 77.764 298.034 77.764C296.994 77.764 296.322 78.436 296.322 79.652V84.5H293.586V75.572H296.322V76.756C296.866 76.004 297.826 75.476 299.026 75.476C301.09 75.476 302.466 76.884 302.466 79.284V84.5H299.746ZM311.615 81.908C311.615 83.46 310.239 84.628 307.999 84.628C305.615 84.628 304.015 83.3 303.887 81.572H306.591C306.655 82.196 307.215 82.612 307.967 82.612C308.671 82.612 309.039 82.292 309.039 81.892C309.039 80.452 304.175 81.492 304.175 78.212C304.175 76.692 305.471 75.444 307.807 75.444C310.111 75.444 311.391 76.724 311.567 78.484H309.039C308.959 77.876 308.495 77.476 307.727 77.476C307.087 77.476 306.735 77.732 306.735 78.164C306.735 79.588 311.567 78.58 311.615 81.908Z" fill="white"/>
<rect width="224" height="56" transform="translate(127.5 108.5)" fill="#00B2AE"/>
<path d="M154.235 129.29C154.235 128.54 153.71 128.105 152.855 128.105H150.995V130.43H152.885C153.74 130.43 154.235 130.04 154.235 129.29ZM153.98 125.135C153.98 124.415 153.515 124.025 152.675 124.025H150.995V126.23H152.675C153.515 126.23 153.98 125.855 153.98 125.135ZM156.83 129.635C156.83 131.375 155.555 132.5 153.335 132.5H148.43V121.97H153.17C155.315 121.97 156.59 123.035 156.59 124.7C156.59 125.975 155.825 126.8 154.805 127.1C156.035 127.355 156.83 128.435 156.83 129.635ZM162.008 126.065C161.168 126.065 160.523 126.575 160.373 127.505H163.583C163.583 126.59 162.863 126.065 162.008 126.065ZM166.013 129.725C165.608 131.36 164.123 132.62 162.038 132.62C159.578 132.62 157.808 130.97 157.808 128.315C157.808 125.66 159.548 124.01 162.038 124.01C164.483 124.01 166.208 125.63 166.208 128.18C166.208 128.42 166.193 128.675 166.163 128.93H160.358C160.448 130.025 161.123 130.535 161.948 130.535C162.668 130.535 163.073 130.175 163.283 129.725H166.013ZM167.051 128.3C167.051 125.66 168.686 124.01 170.741 124.01C171.986 124.01 172.871 124.58 173.321 125.315V124.13H175.886V132.5H173.321V131.315C172.856 132.05 171.971 132.62 170.726 132.62C168.686 132.62 167.051 130.94 167.051 128.3ZM173.321 128.315C173.321 126.98 172.466 126.245 171.491 126.245C170.531 126.245 169.661 126.965 169.661 128.3C169.661 129.635 170.531 130.385 171.491 130.385C172.466 130.385 173.321 129.65 173.321 128.315ZM186.007 124.13V132.5H183.442V131.36C182.932 132.08 182.032 132.59 180.907 132.59C178.972 132.59 177.667 131.255 177.667 129.02V124.13H180.217V128.675C180.217 129.815 180.862 130.445 181.822 130.445C182.812 130.445 183.442 129.815 183.442 128.675V124.13H186.007ZM188.254 129.59V126.26H187.234V124.13H188.254V122.09H190.819V124.13H192.499V126.26H190.819V129.62C190.819 130.115 191.029 130.325 191.599 130.325H192.514V132.5H191.209C189.469 132.5 188.254 131.765 188.254 129.59ZM197.798 129.365L199.718 124.13H202.493L197.243 136.475H194.483L196.403 132.215L192.998 124.13H195.863L197.798 129.365ZM210.544 121.97C213.904 121.97 216.064 124.1 216.064 127.235C216.064 130.355 213.904 132.5 210.544 132.5H206.599V121.97H210.544ZM209.164 130.28H210.379C212.314 130.28 213.454 129.17 213.454 127.235C213.454 125.3 212.314 124.16 210.379 124.16H209.164V130.28ZM225.687 128.315C225.687 130.97 223.767 132.62 221.307 132.62C218.847 132.62 216.987 130.97 216.987 128.315C216.987 125.66 218.892 124.01 221.337 124.01C223.797 124.01 225.687 125.66 225.687 128.315ZM219.597 128.315C219.597 129.725 220.377 130.4 221.307 130.4C222.222 130.4 223.077 129.725 223.077 128.315C223.077 126.89 222.237 126.23 221.337 126.23C220.407 126.23 219.597 126.89 219.597 128.315ZM226.538 128.315C226.538 125.675 228.278 124.01 230.738 124.01C232.838 124.01 234.323 125.165 234.758 127.16H232.028C231.818 126.575 231.398 126.2 230.693 126.2C229.778 126.2 229.148 126.92 229.148 128.315C229.148 129.71 229.778 130.43 230.693 130.43C231.398 130.43 231.803 130.085 232.028 129.47H234.758C234.323 131.405 232.838 132.62 230.738 132.62C228.278 132.62 226.538 130.97 226.538 128.315ZM236.535 129.59V126.26H235.515V124.13H236.535V122.09H239.1V124.13H240.78V126.26H239.1V129.62C239.1 130.115 239.31 130.325 239.88 130.325H240.795V132.5H239.49C237.75 132.5 236.535 131.765 236.535 129.59ZM250.414 128.315C250.414 130.97 248.494 132.62 246.034 132.62C243.574 132.62 241.714 130.97 241.714 128.315C241.714 125.66 243.619 124.01 246.064 124.01C248.524 124.01 250.414 125.66 250.414 128.315ZM244.324 128.315C244.324 129.725 245.104 130.4 246.034 130.4C246.949 130.4 247.804 129.725 247.804 128.315C247.804 126.89 246.964 126.23 246.064 126.23C245.134 126.23 244.324 126.89 244.324 128.315ZM254.34 128.615V132.5H251.775V124.13H254.34V125.525C254.925 124.64 255.84 124.04 256.965 124.04V126.755H256.26C255.045 126.755 254.34 127.175 254.34 128.615ZM147.995 146.22C147.995 143.07 150.185 140.85 153.29 140.85C155.795 140.85 157.685 142.26 158.285 144.54H155.465C155.03 143.64 154.235 143.19 153.26 143.19C151.685 143.19 150.605 144.36 150.605 146.22C150.605 148.08 151.685 149.25 153.26 149.25C154.235 149.25 155.03 148.8 155.465 147.9H158.285C157.685 150.18 155.795 151.575 153.29 151.575C150.185 151.575 147.995 149.37 147.995 146.22ZM168.046 147.315C168.046 149.97 166.126 151.62 163.666 151.62C161.206 151.62 159.346 149.97 159.346 147.315C159.346 144.66 161.251 143.01 163.696 143.01C166.156 143.01 168.046 144.66 168.046 147.315ZM161.956 147.315C161.956 148.725 162.736 149.4 163.666 149.4C164.581 149.4 165.436 148.725 165.436 147.315C165.436 145.89 164.596 145.23 163.696 145.23C162.766 145.23 161.956 145.89 161.956 147.315ZM175.182 151.5V146.955C175.182 145.815 174.552 145.185 173.577 145.185C172.602 145.185 171.972 145.815 171.972 146.955V151.5H169.407V143.13H171.972V144.24C172.482 143.535 173.382 143.04 174.507 143.04C176.442 143.04 177.732 144.36 177.732 146.61V151.5H175.182ZM186.309 149.07C186.309 150.525 185.019 151.62 182.919 151.62C180.684 151.62 179.184 150.375 179.064 148.755H181.599C181.659 149.34 182.184 149.73 182.889 149.73C183.549 149.73 183.894 149.43 183.894 149.055C183.894 147.705 179.334 148.68 179.334 145.605C179.334 144.18 180.549 143.01 182.739 143.01C184.899 143.01 186.099 144.21 186.264 145.86H183.894C183.819 145.29 183.384 144.915 182.664 144.915C182.064 144.915 181.734 145.155 181.734 145.56C181.734 146.895 186.264 145.95 186.309 149.07ZM196.143 143.13V151.5H193.578V150.36C193.068 151.08 192.168 151.59 191.043 151.59C189.108 151.59 187.803 150.255 187.803 148.02V143.13H190.353V147.675C190.353 148.815 190.998 149.445 191.958 149.445C192.948 149.445 193.578 148.815 193.578 147.675V143.13H196.143ZM197.986 151.5V140.4H200.551V151.5H197.986ZM202.814 148.59V145.26H201.794V143.13H202.814V141.09H205.379V143.13H207.059V145.26H205.379V148.62C205.379 149.115 205.589 149.325 206.159 149.325H207.074V151.5H205.769C204.029 151.5 202.814 150.765 202.814 148.59ZM207.993 147.3C207.993 144.66 209.628 143.01 211.683 143.01C212.928 143.01 213.813 143.58 214.263 144.315V143.13H216.828V151.5H214.263V150.315C213.798 151.05 212.913 151.62 211.668 151.62C209.628 151.62 207.993 149.94 207.993 147.3ZM214.263 147.315C214.263 145.98 213.408 145.245 212.433 145.245C211.473 145.245 210.603 145.965 210.603 147.3C210.603 148.635 211.473 149.385 212.433 149.385C213.408 149.385 214.263 148.65 214.263 147.315ZM219.089 148.59V145.26H218.069V143.13H219.089V141.09H221.654V143.13H223.334V145.26H221.654V148.62C221.654 149.115 221.864 149.325 222.434 149.325H223.349V151.5H222.044C220.304 151.5 219.089 150.765 219.089 148.59ZM224.778 151.5V143.13H227.343V151.5H224.778ZM226.068 142.26C225.153 142.26 224.538 141.645 224.538 140.88C224.538 140.1 225.153 139.485 226.068 139.485C226.968 139.485 227.583 140.1 227.583 140.88C227.583 141.645 226.968 142.26 226.068 142.26ZM237.391 147.315C237.391 149.97 235.471 151.62 233.011 151.62C230.551 151.62 228.691 149.97 228.691 147.315C228.691 144.66 230.596 143.01 233.041 143.01C235.501 143.01 237.391 144.66 237.391 147.315ZM231.301 147.315C231.301 148.725 232.081 149.4 233.011 149.4C233.926 149.4 234.781 148.725 234.781 147.315C234.781 145.89 233.941 145.23 233.041 145.23C232.111 145.23 231.301 145.89 231.301 147.315ZM244.527 151.5V146.955C244.527 145.815 243.897 145.185 242.922 145.185C241.947 145.185 241.317 145.815 241.317 146.955V151.5H238.752V143.13H241.317V144.24C241.827 143.535 242.727 143.04 243.852 143.04C245.787 143.04 247.077 144.36 247.077 146.61V151.5H244.527ZM255.655 149.07C255.655 150.525 254.365 151.62 252.265 151.62C250.03 151.62 248.53 150.375 248.41 148.755H250.945C251.005 149.34 251.53 149.73 252.235 149.73C252.895 149.73 253.24 149.43 253.24 149.055C253.24 147.705 248.68 148.68 248.68 145.605C248.68 144.18 249.895 143.01 252.085 143.01C254.245 143.01 255.445 144.21 255.61 145.86H253.24C253.165 145.29 252.73 144.915 252.01 144.915C251.41 144.915 251.08 145.155 251.08 145.56C251.08 146.895 255.61 145.95 255.655 149.07Z" fill="white"/>
<path d="M127.5 166.5H351.5V202.5C351.5 213.546 342.546 222.5 331.5 222.5H127.5V166.5Z" fill="#00B2AE"/>
<path d="M148.43 200V189.47H155.285V191.525H150.995V193.745H154.205V195.74H150.995V200H148.43ZM156.123 195.8C156.123 193.16 157.758 191.51 159.813 191.51C161.058 191.51 161.943 192.08 162.393 192.815V191.63H164.958V200H162.393V198.815C161.928 199.55 161.043 200.12 159.798 200.12C157.758 200.12 156.123 198.44 156.123 195.8ZM162.393 195.815C162.393 194.48 161.538 193.745 160.563 193.745C159.603 193.745 158.733 194.465 158.733 195.8C158.733 197.135 159.603 197.885 160.563 197.885C161.538 197.885 162.393 197.15 162.393 195.815ZM166.304 195.815C166.304 193.175 168.044 191.51 170.504 191.51C172.604 191.51 174.089 192.665 174.524 194.66H171.794C171.584 194.075 171.164 193.7 170.459 193.7C169.544 193.7 168.914 194.42 168.914 195.815C168.914 197.21 169.544 197.93 170.459 197.93C171.164 197.93 171.569 197.585 171.794 196.97H174.524C174.089 198.905 172.604 200.12 170.504 200.12C168.044 200.12 166.304 198.47 166.304 195.815ZM175.896 200V191.63H178.461V200H175.896ZM177.186 190.76C176.271 190.76 175.656 190.145 175.656 189.38C175.656 188.6 176.271 187.985 177.186 187.985C178.086 187.985 178.701 188.6 178.701 189.38C178.701 190.145 178.086 190.76 177.186 190.76ZM179.81 195.8C179.81 193.16 181.445 191.51 183.5 191.51C184.745 191.51 185.63 192.08 186.08 192.815V191.63H188.645V200H186.08V198.815C185.615 199.55 184.73 200.12 183.485 200.12C181.445 200.12 179.81 198.44 179.81 195.8ZM186.08 195.815C186.08 194.48 185.225 193.745 184.25 193.745C183.29 193.745 182.42 194.465 182.42 195.8C182.42 197.135 183.29 197.885 184.25 197.885C185.225 197.885 186.08 197.15 186.08 195.815ZM190.5 200V188.9H193.065V200H190.5ZM198.103 200V189.47H201.133L204.088 196.76L207.013 189.47H210.028V200H207.463V193.685L205.108 200H203.038L200.668 193.67V200H198.103ZM211.362 195.8C211.362 193.16 212.997 191.51 215.052 191.51C216.297 191.51 217.182 192.08 217.632 192.815V191.63H220.197V200H217.632V198.815C217.167 199.55 216.282 200.12 215.037 200.12C212.997 200.12 211.362 198.44 211.362 195.8ZM217.632 195.815C217.632 194.48 216.777 193.745 215.802 193.745C214.842 193.745 213.972 194.465 213.972 195.8C213.972 197.135 214.842 197.885 215.802 197.885C216.777 197.885 217.632 197.15 217.632 195.815ZM228.848 197.57C228.848 199.025 227.558 200.12 225.458 200.12C223.223 200.12 221.723 198.875 221.603 197.255H224.138C224.198 197.84 224.723 198.23 225.428 198.23C226.088 198.23 226.433 197.93 226.433 197.555C226.433 196.205 221.873 197.18 221.873 194.105C221.873 192.68 223.088 191.51 225.278 191.51C227.438 191.51 228.638 192.71 228.803 194.36H226.433C226.358 193.79 225.923 193.415 225.203 193.415C224.603 193.415 224.273 193.655 224.273 194.06C224.273 195.395 228.803 194.45 228.848 197.57ZM230.417 200V188.9H232.982V195.035L235.517 191.63H238.682L235.202 195.83L238.712 200H235.532L232.982 196.49V200H230.417ZM246.485 197.57C246.485 199.025 245.195 200.12 243.095 200.12C240.86 200.12 239.36 198.875 239.24 197.255H241.775C241.835 197.84 242.36 198.23 243.065 198.23C243.725 198.23 244.07 197.93 244.07 197.555C244.07 196.205 239.51 197.18 239.51 194.105C239.51 192.68 240.725 191.51 242.915 191.51C245.075 191.51 246.275 192.71 246.44 194.36H244.07C243.995 193.79 243.56 193.415 242.84 193.415C242.24 193.415 241.91 193.655 241.91 194.06C241.91 195.395 246.44 194.45 246.485 197.57Z" fill="white"/>
</svg>
