<svg width="29" height="31" viewBox="0 0 29 31" fill="none" xmlns="http://www.w3.org/2000/svg">
<path d="M27.4769 11.4462V26.9269C27.4813 27.5362 27.2999 28.1324 26.9568 28.636C26.8466 28.8103 26.7178 28.9723 26.5729 29.119L14.2873 16.8335L13.8539 16.4L22.3125 7.9413L22.8451 8.27568L27.1797 10.9136C27.3641 11.0279 27.4765 11.2292 27.4769 11.4462Z" fill="#CFD8DC"/>
<path d="M22.3125 7.9413L13.4204 16.8335L1.13491 29.119C0.989892 28.9723 0.861189 28.8103 0.751005 28.636C0.407913 28.1324 0.22644 27.5362 0.230853 26.9269V7.11155C0.230853 5.40161 1.61704 4.01542 3.32698 4.01542H15.7115C15.8241 4.01925 15.9343 4.04892 16.0336 4.1021L21.78 7.60691L22.3125 7.9413Z" fill="#40A459"/>
<path d="M26.5729 29.119C26.4262 29.2641 26.2643 29.3928 26.0899 29.5029C25.5863 29.846 24.9901 30.0275 24.3808 30.023H3.32698C2.71766 30.0275 2.12146 29.846 1.61791 29.5029C1.44346 29.3928 1.28155 29.2641 1.13491 29.119L13.4204 16.8335L13.8539 16.4L14.2873 16.8335L26.5729 29.119Z" fill="#2196F3"/>
<path d="M26.9568 28.636C26.7376 28.9872 26.4411 29.2837 26.0899 29.5029L13.4204 16.8335C13.1835 16.5917 13.1874 16.2035 13.4292 15.9666C13.6676 15.733 14.049 15.733 14.2873 15.9666L26.9568 28.636Z" fill="#FAFAFA"/>
<path d="M22.8451 8.27568L14.2873 16.8335L1.61791 29.5029C1.26669 29.2837 0.970154 28.9872 0.751005 28.636L21.78 7.60691L22.8451 8.27568Z" fill="#FFC107"/>
<path d="M21.9039 0.300049C18.1439 0.304809 15.0971 3.35165 15.0924 7.11155C15.0944 7.4857 15.1313 7.85886 15.2026 8.22616C15.3518 9.1863 15.7099 10.102 16.2515 10.9087C16.5389 11.404 16.8708 11.9192 17.2213 12.4691C19.2349 15.3599 20.623 18.639 21.297 22.0969C21.3651 22.432 21.692 22.6486 22.0271 22.5805C22.2708 22.5311 22.4612 22.3406 22.5107 22.0969C23.1841 18.6387 24.572 15.3591 26.5853 12.4678C26.9382 11.9192 27.2677 11.4077 27.5302 10.9483C28.082 10.1341 28.4481 9.20859 28.6027 8.23725C28.6751 7.86629 28.7128 7.48941 28.7154 7.11149C28.7106 3.35165 25.6638 0.304809 21.9039 0.300049Z" fill="#F44336"/>
<path d="M21.9039 10.2077C23.6138 10.2077 25 8.82149 25 7.11155C25 5.40161 23.6138 4.01542 21.9039 4.01542C20.1939 4.01542 18.8077 5.40161 18.8077 7.11155C18.8077 8.82149 20.1939 10.2077 21.9039 10.2077Z" fill="#C62828"/>
<path d="M6.79872 15.6488C9.01519 15.6488 10.8186 13.8455 10.8186 11.6288C10.8186 11.2783 10.5345 10.9941 10.1839 10.9941H7.64498C7.29447 10.9941 7.01024 11.2782 7.01024 11.6288C7.01024 11.9794 7.29439 12.2636 7.64498 12.2636H9.47513C9.18794 13.4753 8.09684 14.3794 6.79864 14.3794C5.28213 14.3794 4.04823 13.1455 4.04823 11.6289C4.04823 10.1124 5.28213 8.87843 6.79864 8.87843C7.46919 8.87843 8.11498 9.12243 8.61713 9.56539C8.88017 9.79734 9.28121 9.77212 9.513 9.5093C9.74488 9.24641 9.71973 8.84529 9.45692 8.61341C8.72267 7.96569 7.77864 7.609 6.79864 7.609C4.58216 7.609 2.77876 9.41237 2.77876 11.629C2.77876 13.8456 4.58216 15.6488 6.79872 15.6488Z" fill="white"/>
</svg>
