<svg width="327" height="233" viewBox="0 0 327 233" fill="none" xmlns="http://www.w3.org/2000/svg">
<rect x="3.90147" y="3.90147" width="319.197" height="225.197" rx="19.9191" fill="#00B2AE" stroke="#00B2AE" stroke-width="6.19706"/>
<rect x="6.11471" y="6.11471" width="314.771" height="220.771" rx="17.7059" stroke="white" stroke-width="1.77059"/>
<rect x="84" y="77" width="159" height="135" rx="11.8816" fill="#01737F" stroke="#01737F" stroke-width="1.58421"/>
<rect x="22" y="102" width="283" height="110" rx="20.5947" fill="white" stroke="#01737F" stroke-width="1.58421"/>
<path d="M103.547 89.0771H104.873C105.842 89.0771 106.256 88.5924 106.256 87.8224C106.256 87.0525 105.842 86.5677 104.873 86.5677H103.547V89.0771ZM108.737 87.8224C108.737 89.4764 107.61 91.0162 105.058 91.0162H103.547V94.6092H101.109V84.6002H105.058C107.511 84.6002 108.737 85.9832 108.737 87.8224ZM109.521 90.617C109.521 88.1076 111.075 86.5392 113.029 86.5392C114.212 86.5392 115.053 87.081 115.481 87.7797V86.6533H117.919V94.6092H115.481V93.4828C115.039 94.1815 114.198 94.7233 113.015 94.7233C111.075 94.7233 109.521 93.1264 109.521 90.617ZM115.481 90.6312C115.481 89.3623 114.668 88.6636 113.742 88.6636C112.829 88.6636 112.002 89.348 112.002 90.617C112.002 91.8859 112.829 92.5988 113.742 92.5988C114.668 92.5988 115.481 91.9002 115.481 90.6312ZM119.683 94.6092V84.0584H122.121V89.8898L124.531 86.6533H127.539L124.231 90.6455L127.568 94.6092H124.545L122.121 91.2728V94.6092H119.683ZM132.004 88.4926C131.206 88.4926 130.593 88.9773 130.45 89.8613H133.501C133.501 88.9916 132.817 88.4926 132.004 88.4926ZM135.811 91.9715C135.426 93.5256 134.015 94.7233 132.033 94.7233C129.695 94.7233 128.012 93.1549 128.012 90.6312C128.012 88.1076 129.666 86.5392 132.033 86.5392C134.357 86.5392 135.996 88.0791 135.996 90.5029C135.996 90.731 135.982 90.9734 135.954 91.2158H130.436C130.521 92.2566 131.163 92.7414 131.947 92.7414C132.632 92.7414 133.017 92.3992 133.216 91.9715H135.811ZM137.668 91.8432V88.6779H136.698V86.6533H137.668V84.7142H140.106V86.6533H141.703V88.6779H140.106V91.8717C140.106 92.3422 140.305 92.5418 140.847 92.5418H141.717V94.6092H140.476C138.823 94.6092 137.668 93.9106 137.668 91.8432ZM148.535 89.0771H149.861C150.83 89.0771 151.244 88.5924 151.244 87.8224C151.244 87.0525 150.83 86.5677 149.861 86.5677H148.535V89.0771ZM153.724 87.8224C153.724 89.4764 152.598 91.0162 150.046 91.0162H148.535V94.6092H146.096V84.6002H150.046C152.498 84.6002 153.724 85.9832 153.724 87.8224ZM158.501 88.4926C157.703 88.4926 157.09 88.9773 156.947 89.8613H159.998C159.998 88.9916 159.314 88.4926 158.501 88.4926ZM162.308 91.9715C161.923 93.5256 160.511 94.7233 158.53 94.7233C156.191 94.7233 154.509 93.1549 154.509 90.6312C154.509 88.1076 156.163 86.5392 158.53 86.5392C160.854 86.5392 162.493 88.0791 162.493 90.5029C162.493 90.731 162.479 90.9734 162.451 91.2158H156.933C157.018 92.2566 157.66 92.7414 158.444 92.7414C159.128 92.7414 159.513 92.3992 159.713 91.9715H162.308ZM166.218 90.9164V94.6092H163.78V86.6533H166.218V87.9793C166.774 87.1381 167.643 86.5677 168.713 86.5677V89.1484H168.043C166.888 89.1484 166.218 89.5476 166.218 90.9164ZM169.393 90.617C169.393 88.1076 170.947 86.5392 172.901 86.5392C174.084 86.5392 174.925 87.081 175.353 87.7797V86.6533H177.791V94.6092H175.353V93.4828C174.911 94.1815 174.07 94.7233 172.887 94.7233C170.947 94.7233 169.393 93.1264 169.393 90.617ZM175.353 90.6312C175.353 89.3623 174.54 88.6636 173.614 88.6636C172.701 88.6636 171.874 89.348 171.874 90.617C171.874 91.8859 172.701 92.5988 173.614 92.5988C174.54 92.5988 175.353 91.9002 175.353 90.6312ZM180.895 94.6092L178.728 86.6533H181.166L182.293 92.3422L183.633 86.6533H186.214L187.568 92.3137L188.68 86.6533H190.976L188.823 94.6092H186.128L184.873 89.4478L183.576 94.6092H180.895ZM191.421 90.617C191.421 88.1076 192.975 86.5392 194.928 86.5392C196.112 86.5392 196.953 87.081 197.381 87.7797V86.6533H199.819V94.6092H197.381V93.4828C196.939 94.1815 196.097 94.7233 194.914 94.7233C192.975 94.7233 191.421 93.1264 191.421 90.617ZM197.381 90.6312C197.381 89.3623 196.568 88.6636 195.641 88.6636C194.729 88.6636 193.902 89.348 193.902 90.617C193.902 91.8859 194.729 92.5988 195.641 92.5988C196.568 92.5988 197.381 91.9002 197.381 90.6312ZM201.967 91.8432V88.6779H200.998V86.6533H201.967V84.7142H204.406V86.6533H206.002V88.6779H204.406V91.8717C204.406 92.3422 204.605 92.5418 205.147 92.5418H206.017V94.6092H204.776C203.122 94.6092 201.967 93.9106 201.967 91.8432ZM206.89 90.617C206.89 88.1076 208.444 86.5392 210.397 86.5392C211.581 86.5392 212.422 87.081 212.85 87.7797V86.6533H215.288V94.6092H212.85V93.4828C212.408 94.1815 211.567 94.7233 210.383 94.7233C208.444 94.7233 206.89 93.1264 206.89 90.617ZM212.85 90.6312C212.85 89.3623 212.037 88.6636 211.11 88.6636C210.198 88.6636 209.371 89.348 209.371 90.617C209.371 91.8859 210.198 92.5988 211.11 92.5988C212.037 92.5988 212.85 91.9002 212.85 90.6312ZM222.541 94.6092V90.2891C222.541 89.2055 221.942 88.6066 221.015 88.6066C220.089 88.6066 219.49 89.2055 219.49 90.2891V94.6092H217.052V86.6533H219.49V87.7084C219.975 87.0383 220.83 86.5677 221.899 86.5677C223.739 86.5677 224.965 87.8224 224.965 89.9611V94.6092H222.541Z" fill="white"/>
<path d="M27 122.842C27 114.093 34.0928 107 42.8421 107H120V206H42.8421C34.0927 206 27 198.907 27 190.158V122.842Z" fill="#01737F"/>
<path d="M43.9642 148.181C44.2541 141.223 48.7961 137.406 55.9955 137.406C63.4366 137.406 67.447 141.658 67.447 146.973C67.447 151.612 64.5479 154.076 62.132 154.897V155.091C65.6592 156.25 68.0751 158.956 68.0751 163.595C68.0751 169.538 63.8231 173.79 56.4304 173.79C49.086 173.79 43.771 170.311 43.5294 162.338H51.5502C51.5985 165.093 53.0964 166.929 56.1405 166.929C58.7014 166.929 60.1026 165.286 60.1026 162.967C60.1026 159.826 58.2182 158.57 53.9178 158.57H52.3716V151.853H53.9178C56.7203 151.853 59.4261 151.177 59.4261 147.988C59.4261 145.62 58.0249 144.316 55.8023 144.316C53.1447 144.316 52.1784 146.248 52.0334 148.181H43.9642ZM94.528 173.5L87.6184 163.112L81.5303 173.5H72.1565L83.0282 156.25L71.9149 139.58H81.5303L88.3432 149.824L94.3347 139.58H103.708L92.9334 156.685L104.143 173.5H94.528Z" fill="white"/>
<path d="M121.584 107H282.742C291.491 107 298.584 114.093 298.584 122.842V139H121.584V107Z" fill="#00B2AE"/>
<path d="M138.212 127V118.103H140.379V127H138.212ZM146.829 127V123.16C146.829 122.197 146.297 121.664 145.473 121.664C144.649 121.664 144.117 122.197 144.117 123.16V127H141.95V119.928H144.117V120.866C144.548 120.27 145.308 119.852 146.259 119.852C147.894 119.852 148.984 120.967 148.984 122.868V127H146.829ZM150.705 127V121.728H149.919V119.928H150.705V119.725C150.705 117.875 151.846 116.962 154 117.077V118.914C153.164 118.863 152.872 119.117 152.872 119.865V119.928H154.038V121.728H152.872V127H150.705ZM162.04 119.928V127H159.873V126.037C159.442 126.645 158.681 127.076 157.731 127.076C156.096 127.076 154.993 125.948 154.993 124.06V119.928H157.148V123.768C157.148 124.731 157.693 125.264 158.504 125.264C159.34 125.264 159.873 124.731 159.873 123.768V119.928H162.04ZM169.338 124.947C169.338 126.176 168.248 127.101 166.474 127.101C164.585 127.101 163.318 126.049 163.216 124.681H165.358C165.409 125.175 165.852 125.505 166.448 125.505C167.006 125.505 167.297 125.251 167.297 124.934C167.297 123.794 163.444 124.617 163.444 122.019C163.444 120.815 164.471 119.827 166.321 119.827C168.146 119.827 169.16 120.841 169.3 122.235H167.297C167.234 121.753 166.866 121.436 166.258 121.436C165.751 121.436 165.472 121.639 165.472 121.981C165.472 123.109 169.3 122.311 169.338 124.947ZM175.136 127L172.88 118.103H175.2L176.48 124.579L178.064 118.103H180.447L181.967 124.579L183.26 118.103H185.592L183.273 127H180.649L179.23 121.145L177.76 127H175.136ZM186.679 127V117.621H188.846V120.879C189.277 120.27 190.05 119.852 191.026 119.852C192.636 119.852 193.713 120.967 193.713 122.868V127H191.558V123.16C191.558 122.197 191.026 121.664 190.202 121.664C189.379 121.664 188.846 122.197 188.846 123.16V127H186.679ZM195.219 127V119.928H197.386V127H195.219ZM196.309 119.193C195.536 119.193 195.016 118.673 195.016 118.027C195.016 117.368 195.536 116.848 196.309 116.848C197.069 116.848 197.589 117.368 197.589 118.027C197.589 118.673 197.069 119.193 196.309 119.193ZM199.299 124.541V121.728H198.437V119.928H199.299V118.204H201.466V119.928H202.885V121.728H201.466V124.567C201.466 124.985 201.643 125.162 202.125 125.162H202.898V127H201.796C200.325 127 199.299 126.379 199.299 124.541ZM207.223 121.563C206.513 121.563 205.968 121.994 205.842 122.78H208.554C208.554 122.007 207.945 121.563 207.223 121.563ZM210.607 124.655C210.265 126.037 209.01 127.101 207.248 127.101C205.17 127.101 203.674 125.707 203.674 123.464C203.674 121.221 205.145 119.827 207.248 119.827C209.314 119.827 210.772 121.195 210.772 123.35C210.772 123.553 210.759 123.768 210.734 123.984H205.829C205.905 124.909 206.475 125.34 207.172 125.34C207.781 125.34 208.123 125.036 208.3 124.655H210.607ZM216.794 127V123.16C216.794 122.197 216.262 121.664 215.438 121.664C214.614 121.664 214.082 122.197 214.082 123.16V127H211.915V119.928H214.082V120.866C214.513 120.27 215.274 119.852 216.224 119.852C217.859 119.852 218.949 120.967 218.949 122.868V127H216.794ZM220.455 127V119.928H222.622V127H220.455ZM221.545 119.193C220.772 119.193 220.252 118.673 220.252 118.027C220.252 117.368 220.772 116.848 221.545 116.848C222.305 116.848 222.825 117.368 222.825 118.027C222.825 118.673 222.305 119.193 221.545 119.193ZM229.072 127V123.16C229.072 122.197 228.54 121.664 227.716 121.664C226.892 121.664 226.36 122.197 226.36 123.16V127H224.193V119.928H226.36V120.866C226.791 120.27 227.551 119.852 228.502 119.852C230.137 119.852 231.227 120.967 231.227 122.868V127H229.072ZM232.302 123.451C232.302 121.221 233.683 119.827 235.419 119.827C236.459 119.827 237.219 120.296 237.599 120.929V119.928H239.766V126.987C239.766 128.876 238.676 130.485 236.23 130.485C234.127 130.485 232.758 129.421 232.568 127.735H234.71C234.849 128.267 235.381 128.61 236.129 128.61C236.953 128.61 237.599 128.179 237.599 126.987V125.986C237.206 126.607 236.459 127.101 235.419 127.101C233.683 127.101 232.302 125.682 232.302 123.451ZM237.599 123.464C237.599 122.336 236.877 121.715 236.053 121.715C235.242 121.715 234.507 122.323 234.507 123.451C234.507 124.579 235.242 125.213 236.053 125.213C236.877 125.213 237.599 124.592 237.599 123.464Z" fill="white"/>
<rect width="177" height="32" transform="translate(121.584 140.584)" fill="#00B2AE"/>
<path d="M142.999 153.584L140.195 149.901V153.584H138.163V145.243H140.195V148.903L142.975 145.243H145.363L142.131 149.331L145.482 153.584H142.999ZM152.935 150.269C152.935 152.372 151.414 153.679 149.466 153.679C147.517 153.679 146.044 152.372 146.044 150.269C146.044 148.166 147.553 146.859 149.489 146.859C151.438 146.859 152.935 148.166 152.935 150.269ZM148.111 150.269C148.111 151.386 148.729 151.921 149.466 151.921C150.19 151.921 150.868 151.386 150.868 150.269C150.868 149.14 150.202 148.618 149.489 148.618C148.753 148.618 148.111 149.14 148.111 150.269ZM158.587 153.584V149.984C158.587 149.081 158.088 148.582 157.316 148.582C156.544 148.582 156.045 149.081 156.045 149.984V153.584H154.013V146.954H156.045V147.834C156.449 147.275 157.161 146.883 158.053 146.883C159.585 146.883 160.607 147.929 160.607 149.711V153.584H158.587ZM167.401 151.659C167.401 152.812 166.379 153.679 164.716 153.679C162.946 153.679 161.758 152.693 161.663 151.41H163.67C163.718 151.873 164.134 152.182 164.692 152.182C165.215 152.182 165.488 151.945 165.488 151.648C165.488 150.578 161.876 151.35 161.876 148.915C161.876 147.786 162.839 146.859 164.573 146.859C166.284 146.859 167.235 147.81 167.366 149.117H165.488C165.429 148.665 165.084 148.368 164.514 148.368C164.039 148.368 163.777 148.558 163.777 148.879C163.777 149.937 167.366 149.188 167.401 151.659ZM175.191 146.954V153.584H173.159V152.681C172.755 153.252 172.042 153.655 171.151 153.655C169.619 153.655 168.585 152.598 168.585 150.828V146.954H170.605V150.554C170.605 151.457 171.116 151.956 171.876 151.956C172.66 151.956 173.159 151.457 173.159 150.554V146.954H175.191ZM176.65 153.584V144.792H178.682V153.584H176.65ZM180.475 151.279V148.641H179.667V146.954H180.475V145.338H182.507V146.954H183.838V148.641H182.507V151.303C182.507 151.695 182.674 151.861 183.125 151.861H183.85V153.584H182.816C181.438 153.584 180.475 153.002 180.475 151.279ZM184.578 150.257C184.578 148.166 185.873 146.859 187.5 146.859C188.487 146.859 189.188 147.311 189.544 147.893V146.954H191.576V153.584H189.544V152.646C189.176 153.228 188.475 153.679 187.489 153.679C185.873 153.679 184.578 152.349 184.578 150.257ZM189.544 150.269C189.544 149.212 188.867 148.63 188.094 148.63C187.334 148.63 186.645 149.2 186.645 150.257C186.645 151.315 187.334 151.909 188.094 151.909C188.867 151.909 189.544 151.327 189.544 150.269ZM198.428 151.659C198.428 152.812 197.406 153.679 195.743 153.679C193.972 153.679 192.784 152.693 192.689 151.41H194.697C194.745 151.873 195.161 152.182 195.719 152.182C196.242 152.182 196.515 151.945 196.515 151.648C196.515 150.578 192.903 151.35 192.903 148.915C192.903 147.786 193.865 146.859 195.6 146.859C197.311 146.859 198.262 147.81 198.392 149.117H196.515C196.456 148.665 196.111 148.368 195.541 148.368C195.066 148.368 194.804 148.558 194.804 148.879C194.804 149.937 198.392 149.188 198.428 151.659ZM199.671 153.584V146.954H201.703V153.584H199.671ZM200.693 146.265C199.968 146.265 199.481 145.778 199.481 145.172C199.481 144.554 199.968 144.067 200.693 144.067C201.406 144.067 201.893 144.554 201.893 145.172C201.893 145.778 201.406 146.265 200.693 146.265ZM205.289 150.257C205.289 148.166 206.584 146.859 208.212 146.859C209.091 146.859 209.852 147.263 210.256 147.869V144.792H212.287V153.584H210.256V152.634C209.887 153.24 209.186 153.679 208.212 153.679C206.584 153.679 205.289 152.349 205.289 150.257ZM210.256 150.269C210.256 149.212 209.578 148.63 208.806 148.63C208.046 148.63 207.356 149.2 207.356 150.257C207.356 151.315 208.046 151.909 208.806 151.909C209.578 151.909 210.256 151.327 210.256 150.269ZM220.245 150.269C220.245 152.372 218.724 153.679 216.775 153.679C214.827 153.679 213.353 152.372 213.353 150.269C213.353 148.166 214.862 146.859 216.799 146.859C218.747 146.859 220.245 148.166 220.245 150.269ZM215.421 150.269C215.421 151.386 216.038 151.921 216.775 151.921C217.5 151.921 218.177 151.386 218.177 150.269C218.177 149.14 217.512 148.618 216.799 148.618C216.062 148.618 215.421 149.14 215.421 150.269ZM221.322 153.584V144.792H223.354V149.651L225.362 146.954H227.869L225.113 150.281L227.893 153.584H225.374L223.354 150.804V153.584H221.322ZM228.988 151.279V148.641H228.18V146.954H228.988V145.338H231.02V146.954H232.35V148.641H231.02V151.303C231.02 151.695 231.186 151.861 231.638 151.861H232.362V153.584H231.329C229.95 153.584 228.988 153.002 228.988 151.279ZM236.417 148.487C235.752 148.487 235.241 148.891 235.122 149.628H237.665C237.665 148.903 237.094 148.487 236.417 148.487ZM239.589 151.386C239.269 152.681 238.092 153.679 236.441 153.679C234.492 153.679 233.09 152.372 233.09 150.269C233.09 148.166 234.468 146.859 236.441 146.859C238.377 146.859 239.744 148.142 239.744 150.162C239.744 150.352 239.732 150.554 239.708 150.756H235.11C235.181 151.624 235.716 152.028 236.369 152.028C236.94 152.028 237.261 151.743 237.427 151.386H239.589ZM242.847 150.507V153.584H240.816V146.954H242.847V148.059C243.311 147.358 244.036 146.883 244.927 146.883V149.034H244.368C243.406 149.034 242.847 149.366 242.847 150.507ZM138.163 168.584V159.792H140.195V164.651L142.203 161.954H144.71L141.953 165.281L144.733 168.584H142.215L140.195 165.804V168.584H138.163ZM148.431 163.487C147.765 163.487 147.254 163.891 147.136 164.628H149.678C149.678 163.903 149.108 163.487 148.431 163.487ZM151.603 166.386C151.282 167.681 150.106 168.679 148.454 168.679C146.506 168.679 145.104 167.372 145.104 165.269C145.104 163.166 146.482 161.859 148.454 161.859C150.391 161.859 151.757 163.142 151.757 165.162C151.757 165.352 151.746 165.554 151.722 165.756H147.124C147.195 166.624 147.73 167.028 148.383 167.028C148.953 167.028 149.274 166.743 149.441 166.386H151.603ZM152.425 165.269C152.425 163.178 153.804 161.859 155.752 161.859C157.416 161.859 158.592 162.774 158.936 164.354H156.774C156.608 163.891 156.275 163.594 155.717 163.594C154.992 163.594 154.493 164.164 154.493 165.269C154.493 166.374 154.992 166.945 155.717 166.945C156.275 166.945 156.596 166.671 156.774 166.184H158.936C158.592 167.717 157.416 168.679 155.752 168.679C153.804 168.679 152.425 167.372 152.425 165.269ZM159.619 165.257C159.619 163.166 160.914 161.859 162.542 161.859C163.528 161.859 164.229 162.311 164.586 162.893V161.954H166.617V168.584H164.586V167.646C164.217 168.228 163.516 168.679 162.53 168.679C160.914 168.679 159.619 167.349 159.619 165.257ZM164.586 165.269C164.586 164.212 163.908 163.63 163.136 163.63C162.376 163.63 161.687 164.2 161.687 165.257C161.687 166.315 162.376 166.909 163.136 166.909C163.908 166.909 164.586 166.327 164.586 165.269ZM172.662 168.584V164.984C172.662 164.081 172.163 163.582 171.39 163.582C170.618 163.582 170.119 164.081 170.119 164.984V168.584H168.087V161.954H170.119V162.834C170.523 162.275 171.236 161.883 172.127 161.883C173.66 161.883 174.682 162.929 174.682 164.711V168.584H172.662ZM176.414 166.279V163.641H175.606V161.954H176.414V160.338H178.446V161.954H179.777V163.641H178.446V166.303C178.446 166.695 178.612 166.861 179.064 166.861H179.789V168.584H178.755C177.377 168.584 176.414 168.002 176.414 166.279ZM180.92 168.584V161.954H182.952V168.584H180.92ZM181.942 161.265C181.217 161.265 180.73 160.778 180.73 160.172C180.73 159.554 181.217 159.067 181.942 159.067C182.655 159.067 183.142 159.554 183.142 160.172C183.142 160.778 182.655 161.265 181.942 161.265ZM184.425 168.584V159.792H186.456V164.651L188.464 161.954H190.971L188.215 165.281L190.995 168.584H188.476L186.456 165.804V168.584H184.425ZM191.365 165.257C191.365 163.166 192.66 161.859 194.288 161.859C195.274 161.859 195.975 162.311 196.332 162.893V161.954H198.364V168.584H196.332V167.646C195.964 168.228 195.262 168.679 194.276 168.679C192.66 168.679 191.365 167.349 191.365 165.257ZM196.332 165.269C196.332 164.212 195.655 163.63 194.882 163.63C194.122 163.63 193.433 164.2 193.433 165.257C193.433 166.315 194.122 166.909 194.882 166.909C195.655 166.909 196.332 166.327 196.332 165.269ZM204.408 168.584V164.984C204.408 164.081 203.909 163.582 203.137 163.582C202.364 163.582 201.865 164.081 201.865 164.984V168.584H199.833V161.954H201.865V162.834C202.269 162.275 202.982 161.883 203.873 161.883C205.406 161.883 206.428 162.929 206.428 164.711V168.584H204.408Z" fill="white"/>
<path d="M121.584 174.168H298.584V190.326C298.584 199.076 291.491 206.168 282.742 206.168H121.584V174.168Z" fill="#00B2AE"/>
<path d="M138.163 194.668V186.328H140.563L142.904 192.102L145.221 186.328H147.609V194.668H145.577V189.666L143.712 194.668H142.072L140.195 189.654V194.668H138.163ZM148.666 191.342C148.666 189.25 149.961 187.943 151.589 187.943C152.575 187.943 153.276 188.395 153.632 188.977V188.039H155.664V194.668H153.632V193.73C153.264 194.312 152.563 194.763 151.577 194.763C149.961 194.763 148.666 193.433 148.666 191.342ZM153.632 191.353C153.632 190.296 152.955 189.714 152.183 189.714C151.422 189.714 150.733 190.284 150.733 191.342C150.733 192.399 151.422 192.993 152.183 192.993C152.955 192.993 153.632 192.411 153.632 191.353ZM162.516 192.744C162.516 193.896 161.495 194.763 159.831 194.763C158.061 194.763 156.873 193.777 156.778 192.494H158.786C158.833 192.957 159.249 193.266 159.807 193.266C160.33 193.266 160.603 193.029 160.603 192.732C160.603 191.662 156.991 192.435 156.991 189.999C156.991 188.87 157.954 187.943 159.689 187.943C161.4 187.943 162.35 188.894 162.481 190.201H160.603C160.544 189.749 160.199 189.452 159.629 189.452C159.154 189.452 158.893 189.643 158.893 189.963C158.893 191.021 162.481 190.272 162.516 192.744ZM163.759 194.668V185.876H165.791V190.736L167.799 188.039H170.306L167.55 191.365L170.33 194.668H167.811L165.791 191.888V194.668H163.759ZM174.027 189.571C173.362 189.571 172.851 189.975 172.732 190.712H175.275C175.275 189.987 174.704 189.571 174.027 189.571ZM177.199 192.47C176.879 193.765 175.702 194.763 174.051 194.763C172.102 194.763 170.7 193.457 170.7 191.353C170.7 189.25 172.078 187.943 174.051 187.943C175.988 187.943 177.354 189.227 177.354 191.247C177.354 191.437 177.342 191.639 177.318 191.841H172.72C172.791 192.708 173.326 193.112 173.98 193.112C174.55 193.112 174.871 192.827 175.037 192.47H177.199ZM180.457 191.591V194.668H178.426V188.039H180.457V189.143C180.921 188.442 181.646 187.967 182.537 187.967V190.118H181.978C181.016 190.118 180.457 190.45 180.457 191.591ZM185.622 191.342C185.622 189.25 186.917 187.943 188.545 187.943C189.519 187.943 190.232 188.383 190.588 188.977V188.039H192.62V194.657C192.62 196.427 191.598 197.936 189.305 197.936C187.333 197.936 186.05 196.938 185.871 195.358H187.879C188.01 195.857 188.509 196.177 189.21 196.177C189.982 196.177 190.588 195.773 190.588 194.657V193.718C190.22 194.3 189.519 194.763 188.545 194.763C186.917 194.763 185.622 193.433 185.622 191.342ZM190.588 191.353C190.588 190.296 189.911 189.714 189.139 189.714C188.378 189.714 187.689 190.284 187.689 191.342C187.689 192.399 188.378 192.993 189.139 192.993C189.911 192.993 190.588 192.411 190.588 191.353ZM194.09 194.668V185.876H196.122V194.668H194.09ZM204.081 191.353C204.081 193.457 202.561 194.763 200.612 194.763C198.663 194.763 197.19 193.457 197.19 191.353C197.19 189.25 198.699 187.943 200.636 187.943C202.584 187.943 204.081 189.25 204.081 191.353ZM199.257 191.353C199.257 192.47 199.875 193.005 200.612 193.005C201.337 193.005 202.014 192.47 202.014 191.353C202.014 190.225 201.349 189.702 200.636 189.702C199.899 189.702 199.257 190.225 199.257 191.353ZM206.276 194.668L204.47 188.039H206.502L207.441 192.779L208.557 188.039H210.708L211.837 192.755L212.764 188.039H214.676L212.882 194.668H210.637L209.591 190.367L208.51 194.668H206.276ZM215.451 194.668V188.039H217.483V194.668H215.451ZM216.473 187.349C215.748 187.349 215.261 186.862 215.261 186.256C215.261 185.638 215.748 185.151 216.473 185.151C217.186 185.151 217.673 185.638 217.673 186.256C217.673 186.862 217.186 187.349 216.473 187.349ZM223.53 194.668V191.068C223.53 190.165 223.031 189.666 222.258 189.666C221.486 189.666 220.987 190.165 220.987 191.068V194.668H218.955V188.039H220.987V188.918C221.391 188.359 222.104 187.967 222.995 187.967C224.528 187.967 225.55 189.013 225.55 190.795V194.668H223.53ZM226.558 191.342C226.558 189.25 227.853 187.943 229.48 187.943C230.455 187.943 231.168 188.383 231.524 188.977V188.039H233.556V194.657C233.556 196.427 232.534 197.936 230.241 197.936C228.268 197.936 226.985 196.938 226.807 195.358H228.815C228.946 195.857 229.445 196.177 230.146 196.177C230.918 196.177 231.524 195.773 231.524 194.657V193.718C231.156 194.3 230.455 194.763 229.48 194.763C227.853 194.763 226.558 193.433 226.558 191.342ZM231.524 191.353C231.524 190.296 230.847 189.714 230.074 189.714C229.314 189.714 228.625 190.284 228.625 191.342C228.625 192.399 229.314 192.993 230.074 192.993C230.847 192.993 231.524 192.411 231.524 191.353Z" fill="white"/>
<path d="M67.4836 57.6923V52.2843C74.0839 46.8337 81.11 41.4257 81.11 36.188C81.11 33.9311 80.088 32.4833 77.8737 32.4833C75.702 32.4833 74.4245 34.1866 74.4245 37.1248H67.3984C67.6113 29.5877 72.5083 26.3514 78.1718 26.3514C85.2406 26.3514 88.3917 30.4819 88.3917 35.7196C88.3917 42.5328 82.3023 47.9834 77.3628 51.7733H88.8601V57.6923H67.4836ZM100.497 54.5412C100.497 56.7129 98.7516 58.4588 96.1966 58.4588C93.5991 58.4588 91.8532 56.7129 91.8532 54.5412C91.8532 52.2843 93.5991 50.5384 96.1966 50.5384C98.7516 50.5384 100.497 52.2843 100.497 54.5412ZM105.191 49.0054H111.919C112.345 51.1771 113.58 52.3694 115.837 52.3694C118.903 52.3694 119.967 49.7719 119.967 43.8529C118.733 45.5988 116.433 46.6208 113.793 46.6208C108.47 46.6208 104.382 43.2993 104.382 36.699C104.382 30.3968 108.47 26.3088 115.07 26.3088C123.928 26.3088 126.397 32.313 126.397 41.7663C126.397 52.3694 123.928 58.2459 115.581 58.2459C108.811 58.2459 105.532 53.7747 105.191 49.0054ZM115.454 40.8721C117.838 40.8721 119.371 39.3391 119.371 36.8267C119.371 34.0589 117.753 32.5685 115.283 32.5685C112.771 32.5685 111.238 34.1866 111.238 36.7842C111.238 39.1262 112.601 40.8721 115.454 40.8721ZM130.282 42.1496C130.282 33.0369 133.391 26.394 142.248 26.394C151.105 26.394 154.214 33.0369 154.214 42.1496C154.214 51.3475 151.105 57.9904 142.248 57.9904C133.391 57.9904 130.282 51.3475 130.282 42.1496ZM147.06 42.1496C147.06 37.3803 146.549 33.2072 142.248 33.2072C137.947 33.2072 137.436 37.3803 137.436 42.1496C137.436 47.0892 137.947 51.1771 142.248 51.1771C146.549 51.1771 147.06 47.0892 147.06 42.1496ZM158.061 42.1496C158.061 33.0369 161.17 26.394 170.027 26.394C178.884 26.394 181.992 33.0369 181.992 42.1496C181.992 51.3475 178.884 57.9904 170.027 57.9904C161.17 57.9904 158.061 51.3475 158.061 42.1496ZM174.839 42.1496C174.839 37.3803 174.328 33.2072 170.027 33.2072C165.726 33.2072 165.215 37.3803 165.215 42.1496C165.215 47.0892 165.726 51.1771 170.027 51.1771C174.328 51.1771 174.839 47.0892 174.839 42.1496ZM194.271 54.5412C194.271 56.7129 192.525 58.4588 189.97 58.4588C187.373 58.4588 185.627 56.7129 185.627 54.5412C185.627 52.2843 187.373 50.5384 189.97 50.5384C192.525 50.5384 194.271 52.2843 194.271 54.5412ZM197.857 42.1496C197.857 33.0369 200.966 26.394 209.823 26.394C218.68 26.394 221.789 33.0369 221.789 42.1496C221.789 51.3475 218.68 57.9904 209.823 57.9904C200.966 57.9904 197.857 51.3475 197.857 42.1496ZM214.635 42.1496C214.635 37.3803 214.124 33.2072 209.823 33.2072C205.522 33.2072 205.011 37.3803 205.011 42.1496C205.011 47.0892 205.522 51.1771 209.823 51.1771C214.124 51.1771 214.635 47.0892 214.635 42.1496ZM225.636 42.1496C225.636 33.0369 228.745 26.394 237.602 26.394C246.459 26.394 249.568 33.0369 249.568 42.1496C249.568 51.3475 246.459 57.9904 237.602 57.9904C228.745 57.9904 225.636 51.3475 225.636 42.1496ZM242.414 42.1496C242.414 37.3803 241.903 33.2072 237.602 33.2072C233.301 33.2072 232.79 37.3803 232.79 42.1496C232.79 47.0892 233.301 51.1771 237.602 51.1771C241.903 51.1771 242.414 47.0892 242.414 42.1496ZM253.415 42.1496C253.415 33.0369 256.523 26.394 265.38 26.394C274.238 26.394 277.346 33.0369 277.346 42.1496C277.346 51.3475 274.238 57.9904 265.38 57.9904C256.523 57.9904 253.415 51.3475 253.415 42.1496ZM270.192 42.1496C270.192 37.3803 269.681 33.2072 265.38 33.2072C261.08 33.2072 260.569 37.3803 260.569 42.1496C260.569 47.0892 261.08 51.1771 265.38 51.1771C269.681 51.1771 270.192 47.0892 270.192 42.1496Z" fill="white"/>
<path d="M47.3871 30.9214C47.3871 29.4262 46.5544 28.461 44.5861 28.461H42.0501V33.4574H44.5861C46.5354 33.4574 47.3871 32.3976 47.3871 30.9214ZM40.3278 27.0416H44.5861C47.6899 27.0416 49.1661 28.7638 49.1661 30.9214C49.1661 32.6058 48.2387 34.2144 46.0244 34.7065L49.3364 40.2328H47.2735L44.1319 34.839H42.0501V40.2328H40.3278V27.0416ZM53.5644 31.773C54.1889 30.6753 55.5516 29.6912 57.4442 29.6912C60.2262 29.6912 62.3648 31.773 62.3648 35.0093C62.3648 38.2267 60.2262 40.4031 57.4442 40.4031C55.5516 40.4031 54.2079 39.3811 53.5644 38.3213V45.1535H51.8422V29.8615H53.5644V31.773ZM60.6047 35.0093C60.6047 32.5679 58.9961 31.1863 57.0846 31.1863C55.2109 31.1863 53.5644 32.6247 53.5644 35.0282C53.5644 37.4696 55.2109 38.8891 57.0846 38.8891C58.9961 38.8891 60.6047 37.4507 60.6047 35.0093Z" fill="white"/>
<path d="M281.835 58.5001L283.217 53.4091H285.109L282.99 58.5001H281.835ZM286.722 49.5861V48.1288H294.274V49.5861H286.722Z" fill="white"/>
</svg>
