<svg width="326" height="265" viewBox="0 0 326 265" fill="none" xmlns="http://www.w3.org/2000/svg">
<rect x="3.40147" y="3.90538" width="319.197" height="257.189" rx="19.9191" fill="#00B2AE" stroke="#00B2AE" stroke-width="6.19706"/>
<rect x="5.61471" y="6.11861" width="314.771" height="252.763" rx="17.7059" stroke="white" stroke-width="1.77059"/>
<rect x="83.5" y="77.0039" width="159" height="134.212" rx="11.8816" fill="#01737F" stroke="#01737F" stroke-width="1.58421"/>
<rect x="21.197" y="102.996" width="283" height="143" rx="20.5947" fill="white" stroke="#01737F" stroke-width="1.58421"/>
<path d="M103.047 89.0045H104.373C105.342 89.0045 105.756 88.5198 105.756 87.7498C105.756 86.9799 105.342 86.4952 104.373 86.4952H103.047V89.0045ZM108.237 87.7498C108.237 89.4038 107.11 90.9436 104.558 90.9436H103.047V94.5366H100.609V84.5276H104.558C107.011 84.5276 108.237 85.9106 108.237 87.7498ZM109.021 90.5444C109.021 88.035 110.575 86.4666 112.529 86.4666C113.712 86.4666 114.553 87.0084 114.981 87.7071V86.5807H117.419V94.5366H114.981V93.4102C114.539 94.1089 113.698 94.6507 112.515 94.6507C110.575 94.6507 109.021 93.0538 109.021 90.5444ZM114.981 90.5587C114.981 89.2897 114.168 88.5911 113.242 88.5911C112.329 88.5911 111.502 89.2754 111.502 90.5444C111.502 91.8133 112.329 92.5262 113.242 92.5262C114.168 92.5262 114.981 91.8276 114.981 90.5587ZM119.183 94.5366V83.9858H121.621V89.8172L124.031 86.5807H127.039L123.731 90.5729L127.068 94.5366H124.045L121.621 91.2003V94.5366H119.183ZM131.504 88.42C130.706 88.42 130.093 88.9047 129.95 89.7887H133.001C133.001 88.919 132.317 88.42 131.504 88.42ZM135.311 91.8989C134.926 93.453 133.515 94.6507 131.533 94.6507C129.195 94.6507 127.512 93.0823 127.512 90.5587C127.512 88.035 129.166 86.4666 131.533 86.4666C133.857 86.4666 135.496 88.0065 135.496 90.4303C135.496 90.6585 135.482 90.9008 135.454 91.1432H129.936C130.021 92.1841 130.663 92.6688 131.447 92.6688C132.132 92.6688 132.517 92.3266 132.716 91.8989H135.311ZM137.168 91.7706V88.6053H136.198V86.5807H137.168V84.6416H139.606V86.5807H141.203V88.6053H139.606V91.7991C139.606 92.2696 139.805 92.4692 140.347 92.4692H141.217V94.5366H139.976C138.323 94.5366 137.168 93.838 137.168 91.7706ZM148.035 89.0045H149.361C150.33 89.0045 150.744 88.5198 150.744 87.7498C150.744 86.9799 150.33 86.4952 149.361 86.4952H148.035V89.0045ZM153.224 87.7498C153.224 89.4038 152.098 90.9436 149.546 90.9436H148.035V94.5366H145.596V84.5276H149.546C151.998 84.5276 153.224 85.9106 153.224 87.7498ZM158.001 88.42C157.203 88.42 156.59 88.9047 156.447 89.7887H159.498C159.498 88.919 158.814 88.42 158.001 88.42ZM161.808 91.8989C161.423 93.453 160.011 94.6507 158.03 94.6507C155.691 94.6507 154.009 93.0823 154.009 90.5587C154.009 88.035 155.663 86.4666 158.03 86.4666C160.354 86.4666 161.993 88.0065 161.993 90.4303C161.993 90.6585 161.979 90.9008 161.951 91.1432H156.433C156.518 92.1841 157.16 92.6688 157.944 92.6688C158.628 92.6688 159.013 92.3266 159.213 91.8989H161.808ZM165.718 90.8438V94.5366H163.28V86.5807H165.718V87.9067C166.274 87.0655 167.143 86.4952 168.213 86.4952V89.0758H167.543C166.388 89.0758 165.718 89.4751 165.718 90.8438ZM168.893 90.5444C168.893 88.035 170.447 86.4666 172.401 86.4666C173.584 86.4666 174.425 87.0084 174.853 87.7071V86.5807H177.291V94.5366H174.853V93.4102C174.411 94.1089 173.57 94.6507 172.387 94.6507C170.447 94.6507 168.893 93.0538 168.893 90.5444ZM174.853 90.5587C174.853 89.2897 174.04 88.5911 173.114 88.5911C172.201 88.5911 171.374 89.2754 171.374 90.5444C171.374 91.8133 172.201 92.5262 173.114 92.5262C174.04 92.5262 174.853 91.8276 174.853 90.5587ZM180.395 94.5366L178.228 86.5807H180.666L181.793 92.2696L183.133 86.5807H185.714L187.068 92.2411L188.18 86.5807H190.476L188.323 94.5366H185.628L184.373 89.3752L183.076 94.5366H180.395ZM190.921 90.5444C190.921 88.035 192.475 86.4666 194.428 86.4666C195.612 86.4666 196.453 87.0084 196.881 87.7071V86.5807H199.319V94.5366H196.881V93.4102C196.439 94.1089 195.597 94.6507 194.414 94.6507C192.475 94.6507 190.921 93.0538 190.921 90.5444ZM196.881 90.5587C196.881 89.2897 196.068 88.5911 195.141 88.5911C194.229 88.5911 193.402 89.2754 193.402 90.5444C193.402 91.8133 194.229 92.5262 195.141 92.5262C196.068 92.5262 196.881 91.8276 196.881 90.5587ZM201.467 91.7706V88.6053H200.498V86.5807H201.467V84.6416H203.906V86.5807H205.502V88.6053H203.906V91.7991C203.906 92.2696 204.105 92.4692 204.647 92.4692H205.517V94.5366H204.276C202.622 94.5366 201.467 93.838 201.467 91.7706ZM206.39 90.5444C206.39 88.035 207.944 86.4666 209.897 86.4666C211.081 86.4666 211.922 87.0084 212.35 87.7071V86.5807H214.788V94.5366H212.35V93.4102C211.908 94.1089 211.067 94.6507 209.883 94.6507C207.944 94.6507 206.39 93.0538 206.39 90.5444ZM212.35 90.5587C212.35 89.2897 211.537 88.5911 210.61 88.5911C209.698 88.5911 208.871 89.2754 208.871 90.5444C208.871 91.8133 209.698 92.5262 210.61 92.5262C211.537 92.5262 212.35 91.8276 212.35 90.5587ZM222.041 94.5366V90.2165C222.041 89.1329 221.442 88.534 220.515 88.534C219.589 88.534 218.99 89.1329 218.99 90.2165V94.5366H216.552V86.5807H218.99V87.6358C219.475 86.9657 220.33 86.4952 221.399 86.4952C223.239 86.4952 224.465 87.7498 224.465 89.8885V94.5366H222.041Z" fill="white"/>
<path d="M26.5 123.665C26.5 114.916 33.5928 107.823 42.3421 107.823H119.5V240.823H42.3421C33.5927 240.823 26.5 233.73 26.5 224.981V123.665Z" fill="#01737F"/>
<path d="M67.2999 165.569H59.6173C59.1341 163.25 57.9745 161.994 55.5102 161.994C51.7897 161.994 50.3401 165.134 50.2918 171.947C51.6931 169.676 54.5438 168.323 57.7812 168.323C63.9176 168.323 68.2663 172.334 68.2663 179.678C68.2663 186.684 63.821 191.516 56.235 191.516C45.6049 191.516 42.9957 183.979 42.9957 173.445C42.9957 161.366 46.7646 155.326 55.8968 155.326C63.4828 155.326 66.865 160.351 67.2999 165.569ZM55.8001 174.846C53.1909 174.846 50.9683 176.393 50.9683 179.582C50.9683 182.674 52.7561 184.51 55.8968 184.51C58.6992 184.51 60.487 182.722 60.487 179.727C60.487 176.779 58.8925 174.846 55.8001 174.846ZM94.5379 191.323L87.6284 180.935L81.5402 191.323H72.1665L83.0381 174.073L71.9249 157.403H81.5402L88.3531 167.647L94.3446 157.403H103.718L92.9434 174.508L104.153 191.323H94.5379Z" fill="white"/>
<path d="M121.084 107.823H282.242C290.991 107.823 298.084 114.916 298.084 123.665V139.823H121.084V107.823Z" fill="#00B2AE"/>
<path d="M137.712 127.823V118.926H139.879V127.823H137.712ZM146.329 127.823V123.983C146.329 123.02 145.797 122.487 144.973 122.487C144.149 122.487 143.617 123.02 143.617 123.983V127.823H141.45V120.751H143.617V121.689C144.048 121.093 144.808 120.675 145.759 120.675C147.394 120.675 148.484 121.79 148.484 123.691V127.823H146.329ZM150.205 127.823V122.551H149.419V120.751H150.205V120.548C150.205 118.698 151.346 117.785 153.5 117.899V119.737C152.664 119.686 152.372 119.94 152.372 120.688V120.751H153.538V122.551H152.372V127.823H150.205ZM161.54 120.751V127.823H159.373V126.86C158.942 127.468 158.181 127.899 157.231 127.899C155.596 127.899 154.493 126.771 154.493 124.883V120.751H156.648V124.591C156.648 125.554 157.193 126.087 158.004 126.087C158.84 126.087 159.373 125.554 159.373 124.591V120.751H161.54ZM168.838 125.77C168.838 126.999 167.748 127.924 165.974 127.924C164.085 127.924 162.818 126.872 162.716 125.504H164.858C164.909 125.998 165.352 126.327 165.948 126.327C166.506 126.327 166.797 126.074 166.797 125.757C166.797 124.617 162.944 125.44 162.944 122.842C162.944 121.638 163.971 120.65 165.821 120.65C167.646 120.65 168.66 121.664 168.8 123.058H166.797C166.734 122.576 166.366 122.259 165.758 122.259C165.251 122.259 164.972 122.462 164.972 122.804C164.972 123.932 168.8 123.134 168.838 125.77ZM174.636 127.823L172.38 118.926H174.7L175.98 125.402L177.564 118.926H179.947L181.467 125.402L182.76 118.926H185.092L182.773 127.823H180.149L178.73 121.968L177.26 127.823H174.636ZM186.179 127.823V118.444H188.346V121.702C188.777 121.093 189.55 120.675 190.526 120.675C192.136 120.675 193.213 121.79 193.213 123.691V127.823H191.058V123.983C191.058 123.02 190.526 122.487 189.702 122.487C188.879 122.487 188.346 123.02 188.346 123.983V127.823H186.179ZM194.719 127.823V120.751H196.886V127.823H194.719ZM195.809 120.016C195.036 120.016 194.516 119.496 194.516 118.85C194.516 118.191 195.036 117.671 195.809 117.671C196.569 117.671 197.089 118.191 197.089 118.85C197.089 119.496 196.569 120.016 195.809 120.016ZM198.799 125.364V122.551H197.937V120.751H198.799V119.027H200.966V120.751H202.385V122.551H200.966V125.39C200.966 125.808 201.143 125.985 201.625 125.985H202.398V127.823H201.296C199.825 127.823 198.799 127.202 198.799 125.364ZM206.723 122.386C206.013 122.386 205.468 122.817 205.342 123.603H208.054C208.054 122.83 207.445 122.386 206.723 122.386ZM210.107 125.478C209.765 126.86 208.51 127.924 206.748 127.924C204.67 127.924 203.174 126.53 203.174 124.287C203.174 122.044 204.645 120.65 206.748 120.65C208.814 120.65 210.272 122.018 210.272 124.173C210.272 124.376 210.259 124.591 210.234 124.807H205.329C205.405 125.732 205.975 126.163 206.672 126.163C207.281 126.163 207.623 125.859 207.8 125.478H210.107ZM216.294 127.823V123.983C216.294 123.02 215.762 122.487 214.938 122.487C214.114 122.487 213.582 123.02 213.582 123.983V127.823H211.415V120.751H213.582V121.689C214.013 121.093 214.774 120.675 215.724 120.675C217.359 120.675 218.449 121.79 218.449 123.691V127.823H216.294ZM219.955 127.823V120.751H222.122V127.823H219.955ZM221.045 120.016C220.272 120.016 219.752 119.496 219.752 118.85C219.752 118.191 220.272 117.671 221.045 117.671C221.805 117.671 222.325 118.191 222.325 118.85C222.325 119.496 221.805 120.016 221.045 120.016ZM228.572 127.823V123.983C228.572 123.02 228.04 122.487 227.216 122.487C226.392 122.487 225.86 123.02 225.86 123.983V127.823H223.693V120.751H225.86V121.689C226.291 121.093 227.051 120.675 228.002 120.675C229.637 120.675 230.727 121.79 230.727 123.691V127.823H228.572ZM231.802 124.274C231.802 122.044 233.183 120.65 234.919 120.65C235.959 120.65 236.719 121.119 237.099 121.752V120.751H239.266V127.81C239.266 129.699 238.176 131.308 235.73 131.308C233.627 131.308 232.258 130.244 232.068 128.558H234.21C234.349 129.09 234.881 129.433 235.629 129.433C236.453 129.433 237.099 129.002 237.099 127.81V126.809C236.706 127.43 235.959 127.924 234.919 127.924C233.183 127.924 231.802 126.505 231.802 124.274ZM237.099 124.287C237.099 123.159 236.377 122.538 235.553 122.538C234.742 122.538 234.007 123.146 234.007 124.274C234.007 125.402 234.742 126.036 235.553 126.036C236.377 126.036 237.099 125.415 237.099 124.287Z" fill="white"/>
<rect width="177" height="32" transform="translate(121.084 141.407)" fill="#00B2AE"/>
<path d="M142.499 154.407L139.695 150.724V154.407H137.663V146.066H139.695V149.726L142.475 146.066H144.863L141.631 150.154L144.982 154.407H142.499ZM152.435 151.092C152.435 153.195 150.914 154.502 148.966 154.502C147.017 154.502 145.544 153.195 145.544 151.092C145.544 148.989 147.053 147.682 148.989 147.682C150.938 147.682 152.435 148.989 152.435 151.092ZM147.611 151.092C147.611 152.209 148.229 152.744 148.966 152.744C149.69 152.744 150.368 152.209 150.368 151.092C150.368 149.963 149.702 149.441 148.989 149.441C148.253 149.441 147.611 149.963 147.611 151.092ZM158.087 154.407V150.807C158.087 149.904 157.588 149.405 156.816 149.405C156.044 149.405 155.545 149.904 155.545 150.807V154.407H153.513V147.777H155.545V148.656C155.949 148.098 156.661 147.706 157.553 147.706C159.085 147.706 160.107 148.752 160.107 150.534V154.407H158.087ZM166.901 152.482C166.901 153.635 165.879 154.502 164.216 154.502C162.446 154.502 161.258 153.516 161.163 152.233H163.17C163.218 152.696 163.634 153.005 164.192 153.005C164.715 153.005 164.988 152.768 164.988 152.47C164.988 151.401 161.376 152.173 161.376 149.738C161.376 148.609 162.339 147.682 164.073 147.682C165.784 147.682 166.735 148.633 166.866 149.94H164.988C164.929 149.488 164.584 149.191 164.014 149.191C163.539 149.191 163.277 149.381 163.277 149.702C163.277 150.76 166.866 150.011 166.901 152.482ZM174.691 147.777V154.407H172.659V153.504C172.255 154.074 171.542 154.478 170.651 154.478C169.119 154.478 168.085 153.421 168.085 151.651V147.777H170.105V151.377C170.105 152.28 170.616 152.779 171.376 152.779C172.16 152.779 172.659 152.28 172.659 151.377V147.777H174.691ZM176.15 154.407V145.615H178.182V154.407H176.15ZM179.975 152.102V149.464H179.167V147.777H179.975V146.161H182.007V147.777H183.338V149.464H182.007V152.126C182.007 152.518 182.174 152.684 182.625 152.684H183.35V154.407H182.316C180.938 154.407 179.975 153.825 179.975 152.102ZM184.078 151.08C184.078 148.989 185.373 147.682 187 147.682C187.987 147.682 188.688 148.134 189.044 148.716V147.777H191.076V154.407H189.044V153.469C188.676 154.051 187.975 154.502 186.989 154.502C185.373 154.502 184.078 153.171 184.078 151.08ZM189.044 151.092C189.044 150.035 188.367 149.453 187.594 149.453C186.834 149.453 186.145 150.023 186.145 151.08C186.145 152.138 186.834 152.732 187.594 152.732C188.367 152.732 189.044 152.15 189.044 151.092ZM197.928 152.482C197.928 153.635 196.906 154.502 195.243 154.502C193.472 154.502 192.284 153.516 192.189 152.233H194.197C194.245 152.696 194.661 153.005 195.219 153.005C195.742 153.005 196.015 152.768 196.015 152.47C196.015 151.401 192.403 152.173 192.403 149.738C192.403 148.609 193.365 147.682 195.1 147.682C196.811 147.682 197.762 148.633 197.892 149.94H196.015C195.956 149.488 195.611 149.191 195.041 149.191C194.566 149.191 194.304 149.381 194.304 149.702C194.304 150.76 197.892 150.011 197.928 152.482ZM199.171 154.407V147.777H201.203V154.407H199.171ZM200.193 147.088C199.468 147.088 198.981 146.601 198.981 145.995C198.981 145.377 199.468 144.89 200.193 144.89C200.906 144.89 201.393 145.377 201.393 145.995C201.393 146.601 200.906 147.088 200.193 147.088ZM204.789 151.08C204.789 148.989 206.084 147.682 207.712 147.682C208.591 147.682 209.352 148.086 209.756 148.692V145.615H211.787V154.407H209.756V153.457C209.387 154.063 208.686 154.502 207.712 154.502C206.084 154.502 204.789 153.171 204.789 151.08ZM209.756 151.092C209.756 150.035 209.078 149.453 208.306 149.453C207.546 149.453 206.856 150.023 206.856 151.08C206.856 152.138 207.546 152.732 208.306 152.732C209.078 152.732 209.756 152.15 209.756 151.092ZM219.745 151.092C219.745 153.195 218.224 154.502 216.275 154.502C214.327 154.502 212.853 153.195 212.853 151.092C212.853 148.989 214.362 147.682 216.299 147.682C218.247 147.682 219.745 148.989 219.745 151.092ZM214.921 151.092C214.921 152.209 215.538 152.744 216.275 152.744C217 152.744 217.677 152.209 217.677 151.092C217.677 149.963 217.012 149.441 216.299 149.441C215.562 149.441 214.921 149.963 214.921 151.092ZM220.822 154.407V145.615H222.854V150.474L224.862 147.777H227.369L224.613 151.104L227.393 154.407H224.874L222.854 151.627V154.407H220.822ZM228.488 152.102V149.464H227.68V147.777H228.488V146.161H230.52V147.777H231.85V149.464H230.52V152.126C230.52 152.518 230.686 152.684 231.138 152.684H231.862V154.407H230.829C229.45 154.407 228.488 153.825 228.488 152.102ZM235.917 149.31C235.252 149.31 234.741 149.714 234.622 150.451H237.165C237.165 149.726 236.594 149.31 235.917 149.31ZM239.089 152.209C238.769 153.504 237.592 154.502 235.941 154.502C233.992 154.502 232.59 153.195 232.59 151.092C232.59 148.989 233.968 147.682 235.941 147.682C237.877 147.682 239.244 148.965 239.244 150.985C239.244 151.175 239.232 151.377 239.208 151.579H234.61C234.681 152.447 235.216 152.851 235.869 152.851C236.44 152.851 236.761 152.566 236.927 152.209H239.089ZM242.347 151.33V154.407H240.316V147.777H242.347V148.882C242.811 148.181 243.536 147.706 244.427 147.706V149.857H243.868C242.906 149.857 242.347 150.189 242.347 151.33ZM137.663 169.407V160.615H139.695V165.474L141.703 162.777H144.21L141.453 166.104L144.233 169.407H141.715L139.695 166.627V169.407H137.663ZM147.931 164.31C147.265 164.31 146.754 164.714 146.636 165.451H149.178C149.178 164.726 148.608 164.31 147.931 164.31ZM151.103 167.209C150.782 168.504 149.606 169.502 147.954 169.502C146.006 169.502 144.604 168.195 144.604 166.092C144.604 163.989 145.982 162.682 147.954 162.682C149.891 162.682 151.257 163.965 151.257 165.985C151.257 166.175 151.246 166.377 151.222 166.579H146.624C146.695 167.447 147.23 167.851 147.883 167.851C148.453 167.851 148.774 167.566 148.941 167.209H151.103ZM151.925 166.092C151.925 164.001 153.304 162.682 155.252 162.682C156.916 162.682 158.092 163.597 158.436 165.177H156.274C156.108 164.714 155.775 164.417 155.217 164.417C154.492 164.417 153.993 164.987 153.993 166.092C153.993 167.197 154.492 167.768 155.217 167.768C155.775 167.768 156.096 167.494 156.274 167.007H158.436C158.092 168.54 156.916 169.502 155.252 169.502C153.304 169.502 151.925 168.195 151.925 166.092ZM159.119 166.08C159.119 163.989 160.414 162.682 162.042 162.682C163.028 162.682 163.729 163.134 164.086 163.716V162.777H166.117V169.407H164.086V168.469C163.717 169.051 163.016 169.502 162.03 169.502C160.414 169.502 159.119 168.171 159.119 166.08ZM164.086 166.092C164.086 165.035 163.408 164.453 162.636 164.453C161.876 164.453 161.187 165.023 161.187 166.08C161.187 167.138 161.876 167.732 162.636 167.732C163.408 167.732 164.086 167.15 164.086 166.092ZM172.162 169.407V165.807C172.162 164.904 171.663 164.405 170.89 164.405C170.118 164.405 169.619 164.904 169.619 165.807V169.407H167.587V162.777H169.619V163.656C170.023 163.098 170.736 162.706 171.627 162.706C173.16 162.706 174.182 163.752 174.182 165.534V169.407H172.162ZM175.914 167.102V164.464H175.106V162.777H175.914V161.161H177.946V162.777H179.277V164.464H177.946V167.126C177.946 167.518 178.112 167.684 178.564 167.684H179.289V169.407H178.255C176.877 169.407 175.914 168.825 175.914 167.102ZM180.42 169.407V162.777H182.452V169.407H180.42ZM181.442 162.088C180.717 162.088 180.23 161.601 180.23 160.995C180.23 160.377 180.717 159.89 181.442 159.89C182.155 159.89 182.642 160.377 182.642 160.995C182.642 161.601 182.155 162.088 181.442 162.088ZM183.925 169.407V160.615H185.956V165.474L187.964 162.777H190.471L187.715 166.104L190.495 169.407H187.976L185.956 166.627V169.407H183.925ZM190.865 166.08C190.865 163.989 192.16 162.682 193.788 162.682C194.774 162.682 195.475 163.134 195.832 163.716V162.777H197.864V169.407H195.832V168.469C195.464 169.051 194.762 169.502 193.776 169.502C192.16 169.502 190.865 168.171 190.865 166.08ZM195.832 166.092C195.832 165.035 195.155 164.453 194.382 164.453C193.622 164.453 192.933 165.023 192.933 166.08C192.933 167.138 193.622 167.732 194.382 167.732C195.155 167.732 195.832 167.15 195.832 166.092ZM203.908 169.407V165.807C203.908 164.904 203.409 164.405 202.637 164.405C201.864 164.405 201.365 164.904 201.365 165.807V169.407H199.333V162.777H201.365V163.656C201.769 163.098 202.482 162.706 203.373 162.706C204.906 162.706 205.928 163.752 205.928 165.534V169.407H203.908Z" fill="white"/>
<rect width="177" height="32" transform="translate(121.084 174.991)" fill="#00B2AE"/>
<path d="M137.663 195.491V187.151H140.063L142.404 192.925L144.721 187.151H147.109V195.491H145.077V190.489L143.212 195.491H141.572L139.695 190.477V195.491H137.663ZM148.166 192.165C148.166 190.073 149.461 188.766 151.089 188.766C152.075 188.766 152.776 189.218 153.132 189.8V188.861H155.164V195.491H153.132V194.553C152.764 195.135 152.063 195.586 151.077 195.586C149.461 195.586 148.166 194.256 148.166 192.165ZM153.132 192.176C153.132 191.119 152.455 190.537 151.683 190.537C150.922 190.537 150.233 191.107 150.233 192.165C150.233 193.222 150.922 193.816 151.683 193.816C152.455 193.816 153.132 193.234 153.132 192.176ZM162.016 193.567C162.016 194.719 160.995 195.586 159.331 195.586C157.561 195.586 156.373 194.6 156.278 193.317H158.286C158.333 193.78 158.749 194.089 159.307 194.089C159.83 194.089 160.103 193.852 160.103 193.555C160.103 192.485 156.491 193.258 156.491 190.822C156.491 189.693 157.454 188.766 159.189 188.766C160.9 188.766 161.85 189.717 161.981 191.024H160.103C160.044 190.572 159.699 190.275 159.129 190.275C158.654 190.275 158.393 190.465 158.393 190.786C158.393 191.844 161.981 191.095 162.016 193.567ZM163.259 195.491V186.699H165.291V191.559L167.299 188.861H169.806L167.05 192.188L169.83 195.491H167.311L165.291 192.711V195.491H163.259ZM173.527 190.394C172.862 190.394 172.351 190.798 172.232 191.535H174.775C174.775 190.81 174.204 190.394 173.527 190.394ZM176.699 193.293C176.379 194.588 175.202 195.586 173.551 195.586C171.602 195.586 170.2 194.279 170.2 192.176C170.2 190.073 171.578 188.766 173.551 188.766C175.488 188.766 176.854 190.05 176.854 192.069C176.854 192.26 176.842 192.462 176.818 192.664H172.22C172.291 193.531 172.826 193.935 173.48 193.935C174.05 193.935 174.371 193.65 174.537 193.293H176.699ZM179.957 192.414V195.491H177.926V188.861H179.957V189.966C180.421 189.265 181.146 188.79 182.037 188.79V190.941H181.478C180.516 190.941 179.957 191.273 179.957 192.414ZM185.122 192.165C185.122 190.073 186.417 188.766 188.045 188.766C189.019 188.766 189.732 189.206 190.088 189.8V188.861H192.12V195.48C192.12 197.25 191.098 198.759 188.805 198.759C186.833 198.759 185.55 197.761 185.371 196.181H187.379C187.51 196.68 188.009 197 188.71 197C189.482 197 190.088 196.596 190.088 195.48V194.541C189.72 195.123 189.019 195.586 188.045 195.586C186.417 195.586 185.122 194.256 185.122 192.165ZM190.088 192.176C190.088 191.119 189.411 190.537 188.639 190.537C187.878 190.537 187.189 191.107 187.189 192.165C187.189 193.222 187.878 193.816 188.639 193.816C189.411 193.816 190.088 193.234 190.088 192.176ZM193.59 195.491V186.699H195.622V195.491H193.59ZM203.581 192.176C203.581 194.279 202.061 195.586 200.112 195.586C198.163 195.586 196.69 194.279 196.69 192.176C196.69 190.073 198.199 188.766 200.136 188.766C202.084 188.766 203.581 190.073 203.581 192.176ZM198.757 192.176C198.757 193.293 199.375 193.828 200.112 193.828C200.837 193.828 201.514 193.293 201.514 192.176C201.514 191.048 200.849 190.525 200.136 190.525C199.399 190.525 198.757 191.048 198.757 192.176ZM205.776 195.491L203.97 188.861H206.002L206.941 193.602L208.057 188.861H210.208L211.337 193.578L212.263 188.861H214.176L212.382 195.491H210.137L209.091 191.19L208.01 195.491H205.776ZM214.951 195.491V188.861H216.983V195.491H214.951ZM215.973 188.172C215.248 188.172 214.761 187.685 214.761 187.079C214.761 186.461 215.248 185.974 215.973 185.974C216.686 185.974 217.173 186.461 217.173 187.079C217.173 187.685 216.686 188.172 215.973 188.172ZM223.03 195.491V191.891C223.03 190.988 222.531 190.489 221.758 190.489C220.986 190.489 220.487 190.988 220.487 191.891V195.491H218.455V188.861H220.487V189.741C220.891 189.182 221.604 188.79 222.495 188.79C224.028 188.79 225.05 189.836 225.05 191.618V195.491H223.03ZM226.058 192.165C226.058 190.073 227.353 188.766 228.98 188.766C229.955 188.766 230.668 189.206 231.024 189.8V188.861H233.056V195.48C233.056 197.25 232.034 198.759 229.741 198.759C227.768 198.759 226.485 197.761 226.307 196.181H228.315C228.446 196.68 228.945 197 229.646 197C230.418 197 231.024 196.596 231.024 195.48V194.541C230.656 195.123 229.955 195.586 228.98 195.586C227.353 195.586 226.058 194.256 226.058 192.165ZM231.024 192.176C231.024 191.119 230.347 190.537 229.574 190.537C228.814 190.537 228.125 191.107 228.125 192.165C228.125 193.222 228.814 193.816 229.574 193.816C230.347 193.816 231.024 193.234 231.024 192.176Z" fill="white"/>
<path d="M121.084 208.576H298.084V224.733C298.084 233.483 290.991 240.576 282.242 240.576H121.084V208.576Z" fill="#00B2AE"/>
<path d="M139.338 221.576L137.223 213.235H139.398L140.598 219.306L142.083 213.235H144.317L145.742 219.306L146.954 213.235H149.141L146.966 221.576H144.507L143.176 216.086L141.798 221.576H139.338ZM150.16 221.576V212.783H152.191V215.837C152.595 215.266 153.32 214.874 154.235 214.874C155.744 214.874 156.754 215.92 156.754 217.702V221.576H154.734V217.975C154.734 217.072 154.235 216.573 153.463 216.573C152.69 216.573 152.191 217.072 152.191 217.975V221.576H150.16ZM158.166 221.576V214.946H160.197V221.576H158.166ZM159.187 214.257C158.463 214.257 157.976 213.769 157.976 213.163C157.976 212.546 158.463 212.058 159.187 212.058C159.9 212.058 160.388 212.546 160.388 213.163C160.388 213.769 159.9 214.257 159.187 214.257ZM161.991 219.271V216.633H161.183V214.946H161.991V213.33H164.022V214.946H165.353V216.633H164.022V219.294C164.022 219.686 164.189 219.853 164.64 219.853H165.365V221.576H164.331C162.953 221.576 161.991 220.993 161.991 219.271ZM169.42 216.478C168.754 216.478 168.243 216.882 168.124 217.619H170.667C170.667 216.894 170.097 216.478 169.42 216.478ZM172.592 219.378C172.271 220.673 171.095 221.671 169.443 221.671C167.495 221.671 166.093 220.364 166.093 218.261C166.093 216.158 167.471 214.851 169.443 214.851C171.38 214.851 172.746 216.134 172.746 218.154C172.746 218.344 172.735 218.546 172.711 218.748H168.113C168.184 219.615 168.719 220.019 169.372 220.019C169.942 220.019 170.263 219.734 170.429 219.378H172.592ZM178.393 221.576V217.975C178.393 217.072 177.894 216.573 177.121 216.573C176.349 216.573 175.85 217.072 175.85 217.975V221.576H173.818V214.946H175.85V215.825C176.254 215.266 176.967 214.874 177.858 214.874C179.391 214.874 180.413 215.92 180.413 217.702V221.576H178.393ZM181.824 221.576V214.946H183.856V221.576H181.824ZM182.846 214.257C182.121 214.257 181.634 213.769 181.634 213.163C181.634 212.546 182.121 212.058 182.846 212.058C183.559 212.058 184.046 212.546 184.046 213.163C184.046 213.769 183.559 214.257 182.846 214.257ZM189.903 221.576V217.975C189.903 217.072 189.404 216.573 188.632 216.573C187.859 216.573 187.36 217.072 187.36 217.975V221.576H185.329V214.946H187.36V215.825C187.764 215.266 188.477 214.874 189.368 214.874C190.901 214.874 191.923 215.92 191.923 217.702V221.576H189.903ZM192.931 218.249C192.931 216.158 194.226 214.851 195.854 214.851C196.828 214.851 197.541 215.29 197.897 215.884V214.946H199.929V221.564C199.929 223.334 198.907 224.843 196.614 224.843C194.642 224.843 193.358 223.845 193.18 222.265H195.188C195.319 222.764 195.818 223.085 196.519 223.085C197.291 223.085 197.897 222.681 197.897 221.564V220.625C197.529 221.207 196.828 221.671 195.854 221.671C194.226 221.671 192.931 220.34 192.931 218.249ZM197.897 218.261C197.897 217.203 197.22 216.621 196.448 216.621C195.687 216.621 194.998 217.191 194.998 218.249C194.998 219.306 195.687 219.9 196.448 219.9C197.22 219.9 197.897 219.318 197.897 218.261ZM207.042 213.235C209.703 213.235 211.414 214.922 211.414 217.405C211.414 219.877 209.703 221.576 207.042 221.576H203.917V213.235H207.042ZM205.948 219.817H206.911C208.444 219.817 209.347 218.938 209.347 217.405C209.347 215.872 208.444 214.969 206.911 214.969H205.948V219.817ZM212.145 218.249C212.145 216.158 213.441 214.851 215.068 214.851C216.054 214.851 216.755 215.302 217.112 215.884V214.946H219.144V221.576H217.112V220.637C216.744 221.219 216.043 221.671 215.056 221.671C213.441 221.671 212.145 220.34 212.145 218.249ZM217.112 218.261C217.112 217.203 216.435 216.621 215.662 216.621C214.902 216.621 214.213 217.191 214.213 218.249C214.213 219.306 214.902 219.9 215.662 219.9C216.435 219.9 217.112 219.318 217.112 218.261ZM223.667 219.092L225.188 214.946H227.386L223.228 224.724H221.041L222.562 221.35L219.865 214.946H222.134L223.667 219.092ZM236.556 215.255H234.643C234.655 214.803 234.381 214.589 234.025 214.589C233.645 214.589 233.36 214.827 233.36 215.183C233.36 215.528 233.585 215.872 234.025 216.336L236.057 218.32C236.104 218.213 236.164 218.106 236.211 217.987L236.651 217.239H238.682L238.112 218.273C237.886 218.772 237.637 219.211 237.375 219.603L239.383 221.576H237.019L236.247 220.827C235.486 221.409 234.583 221.706 233.49 221.706C231.554 221.706 230.33 220.696 230.33 219.152C230.33 218.13 230.876 217.239 232.029 216.692C231.601 216.181 231.447 215.73 231.447 215.195C231.447 214.019 232.385 213.068 234.049 213.068C235.748 213.068 236.591 214.102 236.556 215.255ZM233.585 220.067C234.132 220.067 234.595 219.912 234.999 219.615L233.146 217.821C232.575 218.118 232.29 218.534 232.29 219.009C232.29 219.591 232.777 220.067 233.585 220.067ZM248.066 213.235H250.098V221.576H248.066L244.668 216.431V221.576H242.636V213.235H244.668L248.066 218.403V213.235ZM251.571 221.576V214.946H253.602V221.576H251.571ZM252.592 214.257C251.868 214.257 251.381 213.769 251.381 213.163C251.381 212.546 251.868 212.058 252.592 212.058C253.305 212.058 253.792 212.546 253.792 213.163C253.792 213.769 253.305 214.257 252.592 214.257ZM254.671 218.249C254.671 216.158 255.966 214.851 257.594 214.851C258.568 214.851 259.281 215.29 259.637 215.884V214.946H261.669V221.564C261.669 223.334 260.647 224.843 258.354 224.843C256.382 224.843 255.099 223.845 254.92 222.265H256.928C257.059 222.764 257.558 223.085 258.259 223.085C259.031 223.085 259.637 222.681 259.637 221.564V220.625C259.269 221.207 258.568 221.671 257.594 221.671C255.966 221.671 254.671 220.34 254.671 218.249ZM259.637 218.261C259.637 217.203 258.96 216.621 258.188 216.621C257.427 216.621 256.738 217.191 256.738 218.249C256.738 219.306 257.427 219.9 258.188 219.9C258.96 219.9 259.637 219.318 259.637 218.261ZM263.139 221.576V212.783H265.171V215.837C265.575 215.266 266.299 214.874 267.214 214.874C268.723 214.874 269.733 215.92 269.733 217.702V221.576H267.713V217.975C267.713 217.072 267.214 216.573 266.442 216.573C265.67 216.573 265.171 217.072 265.171 217.975V221.576H263.139ZM271.466 219.271V216.633H270.658V214.946H271.466V213.33H273.498V214.946H274.828V216.633H273.498V219.294C273.498 219.686 273.664 219.853 274.115 219.853H274.84V221.576H273.807C272.428 221.576 271.466 220.993 271.466 219.271ZM142.772 228.235V229.863H139.695V231.55H142.416V233.118H139.695V234.948H142.772V236.576H137.663V228.235H142.772ZM146.123 233.498V236.576H144.091V229.946H146.123V231.051C146.586 230.35 147.311 229.874 148.202 229.874V232.025H147.644C146.681 232.025 146.123 232.358 146.123 233.498ZM148.769 233.261C148.769 231.169 150.148 229.851 152.096 229.851C153.76 229.851 154.936 230.766 155.28 232.346H153.118C152.952 231.882 152.619 231.585 152.06 231.585C151.336 231.585 150.837 232.156 150.837 233.261C150.837 234.366 151.336 234.936 152.06 234.936C152.619 234.936 152.94 234.663 153.118 234.176H155.28C154.936 235.708 153.76 236.671 152.096 236.671C150.148 236.671 148.769 235.364 148.769 233.261ZM159.29 231.478C158.625 231.478 158.114 231.882 157.995 232.619H160.538C160.538 231.894 159.967 231.478 159.29 231.478ZM162.462 234.378C162.142 235.673 160.965 236.671 159.314 236.671C157.365 236.671 155.963 235.364 155.963 233.261C155.963 231.158 157.341 229.851 159.314 229.851C161.251 229.851 162.617 231.134 162.617 233.154C162.617 233.344 162.605 233.546 162.581 233.748H157.983C158.054 234.615 158.589 235.019 159.243 235.019C159.813 235.019 160.134 234.734 160.3 234.378H162.462ZM163.689 236.576V227.783H165.72V236.576H163.689ZM167.193 236.576V227.783H169.225V236.576H167.193ZM172.87 232.393C172.87 229.898 174.605 228.14 177.065 228.14C179.049 228.14 180.546 229.257 181.021 231.063H178.787C178.443 230.35 177.813 229.993 177.041 229.993C175.793 229.993 174.938 230.92 174.938 232.393C174.938 233.867 175.793 234.793 177.041 234.793C177.813 234.793 178.443 234.437 178.787 233.724H181.021C180.546 235.53 179.049 236.635 177.065 236.635C174.605 236.635 172.87 234.888 172.87 232.393ZM184.297 233.498V236.576H182.265V229.946H184.297V231.051C184.76 230.35 185.485 229.874 186.376 229.874V232.025H185.818C184.855 232.025 184.297 232.358 184.297 233.498ZM190.27 231.478C189.605 231.478 189.094 231.882 188.975 232.619H191.518C191.518 231.894 190.948 231.478 190.27 231.478ZM193.443 234.378C193.122 235.673 191.946 236.671 190.294 236.671C188.346 236.671 186.943 235.364 186.943 233.261C186.943 231.158 188.322 229.851 190.294 229.851C192.231 229.851 193.597 231.134 193.597 233.154C193.597 233.344 193.585 233.546 193.562 233.748H188.963C189.035 234.615 189.569 235.019 190.223 235.019C190.793 235.019 191.114 234.734 191.28 234.378H193.443ZM194.265 233.249C194.265 231.158 195.56 229.851 197.188 229.851C198.174 229.851 198.875 230.302 199.232 230.884V229.946H201.263V236.576H199.232V235.637C198.863 236.219 198.162 236.671 197.176 236.671C195.56 236.671 194.265 235.34 194.265 233.249ZM199.232 233.261C199.232 232.203 198.554 231.621 197.782 231.621C197.022 231.621 196.332 232.191 196.332 233.249C196.332 234.306 197.022 234.9 197.782 234.9C198.554 234.9 199.232 234.318 199.232 233.261ZM211.87 236.576V232.975C211.87 232.108 211.371 231.633 210.599 231.633C209.826 231.633 209.327 232.108 209.327 232.975V236.576H207.308V232.975C207.308 232.108 206.809 231.633 206.036 231.633C205.264 231.633 204.765 232.108 204.765 232.975V236.576H202.733V229.946H204.765V230.777C205.157 230.243 205.834 229.874 206.702 229.874C207.7 229.874 208.508 230.314 208.959 231.11C209.399 230.409 210.23 229.874 211.193 229.874C212.833 229.874 213.89 230.92 213.89 232.702V236.576H211.87Z" fill="white"/>
<path d="M68.1198 26.9939H88.0059V33.3813H74.7201V39.2577C75.8273 38.0228 77.9564 37.1286 80.4262 37.1286C87.1969 37.1286 89.7944 42.2811 89.7944 47.3058C89.7944 53.8636 85.962 58.1219 79.0636 58.1219C72.08 58.1219 68.0346 54.2468 67.7791 48.8814H74.8905C75.1885 50.4996 76.4234 51.9474 78.8081 51.9474C81.5759 51.9474 82.7683 49.946 82.7683 47.2633C82.7683 44.4528 81.363 42.9624 78.7655 42.9624C76.7215 42.9624 75.5292 44.0696 75.146 45.5174H68.1198V26.9939ZM101.819 54.5449C101.819 56.7166 100.073 58.4625 97.5185 58.4625C94.921 58.4625 93.1751 56.7166 93.1751 54.5449C93.1751 52.288 94.921 50.5421 97.5185 50.5421C100.073 50.5421 101.819 52.288 101.819 54.5449ZM106.982 26.9939H126.868V33.3813H113.582V39.2577C114.689 38.0228 116.818 37.1286 119.288 37.1286C126.059 37.1286 128.656 42.2811 128.656 47.3058C128.656 53.8636 124.824 58.1219 117.925 58.1219C110.942 58.1219 106.896 54.2468 106.641 48.8814H113.752C114.05 50.4996 115.285 51.9474 117.67 51.9474C120.438 51.9474 121.63 49.946 121.63 47.2633C121.63 44.4528 120.225 42.9624 117.627 42.9624C115.583 42.9624 114.391 44.0696 114.008 45.5174H106.982V26.9939ZM132.25 42.1533C132.25 33.0406 135.358 26.3977 144.215 26.3977C153.073 26.3977 156.181 33.0406 156.181 42.1533C156.181 51.3512 153.073 57.9941 144.215 57.9941C135.358 57.9941 132.25 51.3512 132.25 42.1533ZM149.027 42.1533C149.027 37.3841 148.516 33.211 144.215 33.211C139.915 33.211 139.404 37.3841 139.404 42.1533C139.404 47.0929 139.915 51.1809 144.215 51.1809C148.516 51.1809 149.027 47.0929 149.027 42.1533ZM159.602 42.1533C159.602 33.0406 162.711 26.3977 171.568 26.3977C180.425 26.3977 183.534 33.0406 183.534 42.1533C183.534 51.3512 180.425 57.9941 171.568 57.9941C162.711 57.9941 159.602 51.3512 159.602 42.1533ZM176.38 42.1533C176.38 37.3841 175.869 33.211 171.568 33.211C167.267 33.211 166.756 37.3841 166.756 42.1533C166.756 47.0929 167.267 51.1809 171.568 51.1809C175.869 51.1809 176.38 47.0929 176.38 42.1533ZM195.387 54.5449C195.387 56.7166 193.641 58.4625 191.086 58.4625C188.488 58.4625 186.742 56.7166 186.742 54.5449C186.742 52.288 188.488 50.5421 191.086 50.5421C193.641 50.5421 195.387 52.288 195.387 54.5449ZM198.547 42.1533C198.547 33.0406 201.656 26.3977 210.513 26.3977C219.37 26.3977 222.479 33.0406 222.479 42.1533C222.479 51.3512 219.37 57.9941 210.513 57.9941C201.656 57.9941 198.547 51.3512 198.547 42.1533ZM215.325 42.1533C215.325 37.3841 214.814 33.211 210.513 33.211C206.212 33.211 205.701 37.3841 205.701 42.1533C205.701 47.0929 206.212 51.1809 210.513 51.1809C214.814 51.1809 215.325 47.0929 215.325 42.1533ZM225.9 42.1533C225.9 33.0406 229.009 26.3977 237.866 26.3977C246.723 26.3977 249.832 33.0406 249.832 42.1533C249.832 51.3512 246.723 57.9941 237.866 57.9941C229.009 57.9941 225.9 51.3512 225.9 42.1533ZM242.678 42.1533C242.678 37.3841 242.167 33.211 237.866 33.211C233.565 33.211 233.054 37.3841 233.054 42.1533C233.054 47.0929 233.565 51.1809 237.866 51.1809C242.167 51.1809 242.678 47.0929 242.678 42.1533ZM253.253 42.1533C253.253 33.0406 256.361 26.3977 265.219 26.3977C274.076 26.3977 277.184 33.0406 277.184 42.1533C277.184 51.3512 274.076 57.9941 265.219 57.9941C256.361 57.9941 253.253 51.3512 253.253 42.1533ZM270.03 42.1533C270.03 37.3841 269.519 33.211 265.219 33.211C260.918 33.211 260.407 37.3841 260.407 42.1533C260.407 47.0929 260.918 51.1809 265.219 51.1809C269.519 51.1809 270.03 47.0929 270.03 42.1533Z" fill="white"/>
<path d="M46.887 30.9252C46.887 29.43 46.0543 28.4648 44.086 28.4648H41.55V33.4612H44.086C46.0354 33.4612 46.887 32.4014 46.887 30.9252ZM39.8278 27.0454H44.086C47.1898 27.0454 48.666 28.7676 48.666 30.9252C48.666 32.6095 47.7387 34.2182 45.5244 34.7103L48.8364 40.2366H46.7735L43.6318 34.8428H41.55V40.2366H39.8278V27.0454ZM53.0643 31.7768C53.6889 30.6791 55.0515 29.695 56.9441 29.695C59.7262 29.695 61.8648 31.7768 61.8648 35.0131C61.8648 38.2305 59.7262 40.4069 56.9441 40.4069C55.0515 40.4069 53.7078 39.3849 53.0643 38.3251V45.1572H51.3421V29.8653H53.0643V31.7768ZM60.1047 35.0131C60.1047 32.5717 58.496 31.1901 56.5845 31.1901C54.7109 31.1901 53.0643 32.6285 53.0643 35.032C53.0643 37.4734 54.7109 38.8929 56.5845 38.8929C58.496 38.8929 60.1047 37.4545 60.1047 35.0131Z" fill="white"/>
<path d="M281.335 58.5039L282.717 53.4129H284.609L282.489 58.5039H281.335ZM286.222 49.5899V48.1326H293.774V49.5899H286.222Z" fill="white"/>
</svg>
