<svg width="326" height="233" viewBox="0 0 326 233" fill="none" xmlns="http://www.w3.org/2000/svg">
<rect x="3.40147" y="3.90538" width="319.197" height="225.197" rx="19.9191" fill="#00B2AE" stroke="#00B2AE" stroke-width="6.19706"/>
<rect x="5.61471" y="6.11861" width="314.771" height="220.771" rx="17.7059" stroke="white" stroke-width="1.77059"/>
<rect x="83.5" y="77.0039" width="159" height="135" rx="11.8816" fill="#01737F" stroke="#01737F" stroke-width="1.58421"/>
<rect x="21.5" y="102.004" width="283" height="110" rx="20.5947" fill="white" stroke="#01737F" stroke-width="1.58421"/>
<path d="M103.047 89.081H104.373C105.342 89.081 105.756 88.5963 105.756 87.8263C105.756 87.0564 105.342 86.5716 104.373 86.5716H103.047V89.081ZM108.237 87.8263C108.237 89.4803 107.11 91.0201 104.558 91.0201H103.047V94.6131H100.609V84.6041H104.558C107.011 84.6041 108.237 85.9871 108.237 87.8263ZM109.021 90.6209C109.021 88.1115 110.575 86.5431 112.529 86.5431C113.712 86.5431 114.553 87.0849 114.981 87.7836V86.6572H117.419V94.6131H114.981V93.4867C114.539 94.1854 113.698 94.7272 112.515 94.7272C110.575 94.7272 109.021 93.1303 109.021 90.6209ZM114.981 90.6351C114.981 89.3662 114.168 88.6676 113.242 88.6676C112.329 88.6676 111.502 89.3519 111.502 90.6209C111.502 91.8898 112.329 92.6027 113.242 92.6027C114.168 92.6027 114.981 91.9041 114.981 90.6351ZM119.183 94.6131V84.0623H121.621V89.8937L124.031 86.6572H127.039L123.731 90.6494L127.068 94.6131H124.045L121.621 91.2768V94.6131H119.183ZM131.504 88.4965C130.706 88.4965 130.093 88.9812 129.95 89.8652H133.001C133.001 88.9955 132.317 88.4965 131.504 88.4965ZM135.311 91.9754C134.926 93.5295 133.515 94.7272 131.533 94.7272C129.195 94.7272 127.512 93.1588 127.512 90.6351C127.512 88.1115 129.166 86.5431 131.533 86.5431C133.857 86.5431 135.496 88.083 135.496 90.5068C135.496 90.735 135.482 90.9773 135.454 91.2197H129.936C130.021 92.2605 130.663 92.7453 131.447 92.7453C132.132 92.7453 132.517 92.4031 132.716 91.9754H135.311ZM137.168 91.8471V88.6818H136.198V86.6572H137.168V84.7181H139.606V86.6572H141.203V88.6818H139.606V91.8756C139.606 92.3461 139.805 92.5457 140.347 92.5457H141.217V94.6131H139.976C138.323 94.6131 137.168 93.9145 137.168 91.8471ZM148.035 89.081H149.361C150.33 89.081 150.744 88.5963 150.744 87.8263C150.744 87.0564 150.33 86.5716 149.361 86.5716H148.035V89.081ZM153.224 87.8263C153.224 89.4803 152.098 91.0201 149.546 91.0201H148.035V94.6131H145.596V84.6041H149.546C151.998 84.6041 153.224 85.9871 153.224 87.8263ZM158.001 88.4965C157.203 88.4965 156.59 88.9812 156.447 89.8652H159.498C159.498 88.9955 158.814 88.4965 158.001 88.4965ZM161.808 91.9754C161.423 93.5295 160.011 94.7272 158.03 94.7272C155.691 94.7272 154.009 93.1588 154.009 90.6351C154.009 88.1115 155.663 86.5431 158.03 86.5431C160.354 86.5431 161.993 88.083 161.993 90.5068C161.993 90.735 161.979 90.9773 161.951 91.2197H156.433C156.518 92.2605 157.16 92.7453 157.944 92.7453C158.628 92.7453 159.013 92.4031 159.213 91.9754H161.808ZM165.718 90.9203V94.6131H163.28V86.6572H165.718V87.9832C166.274 87.142 167.143 86.5716 168.213 86.5716V89.1523H167.543C166.388 89.1523 165.718 89.5515 165.718 90.9203ZM168.893 90.6209C168.893 88.1115 170.447 86.5431 172.401 86.5431C173.584 86.5431 174.425 87.0849 174.853 87.7836V86.6572H177.291V94.6131H174.853V93.4867C174.411 94.1854 173.57 94.7272 172.387 94.7272C170.447 94.7272 168.893 93.1303 168.893 90.6209ZM174.853 90.6351C174.853 89.3662 174.04 88.6676 173.114 88.6676C172.201 88.6676 171.374 89.3519 171.374 90.6209C171.374 91.8898 172.201 92.6027 173.114 92.6027C174.04 92.6027 174.853 91.9041 174.853 90.6351ZM180.395 94.6131L178.228 86.6572H180.666L181.793 92.3461L183.133 86.6572H185.714L187.068 92.3176L188.18 86.6572H190.476L188.323 94.6131H185.628L184.373 89.4517L183.076 94.6131H180.395ZM190.921 90.6209C190.921 88.1115 192.475 86.5431 194.428 86.5431C195.612 86.5431 196.453 87.0849 196.881 87.7836V86.6572H199.319V94.6131H196.881V93.4867C196.439 94.1854 195.597 94.7272 194.414 94.7272C192.475 94.7272 190.921 93.1303 190.921 90.6209ZM196.881 90.6351C196.881 89.3662 196.068 88.6676 195.141 88.6676C194.229 88.6676 193.402 89.3519 193.402 90.6209C193.402 91.8898 194.229 92.6027 195.141 92.6027C196.068 92.6027 196.881 91.9041 196.881 90.6351ZM201.467 91.8471V88.6818H200.498V86.6572H201.467V84.7181H203.906V86.6572H205.502V88.6818H203.906V91.8756C203.906 92.3461 204.105 92.5457 204.647 92.5457H205.517V94.6131H204.276C202.622 94.6131 201.467 93.9145 201.467 91.8471ZM206.39 90.6209C206.39 88.1115 207.944 86.5431 209.897 86.5431C211.081 86.5431 211.922 87.0849 212.35 87.7836V86.6572H214.788V94.6131H212.35V93.4867C211.908 94.1854 211.067 94.7272 209.883 94.7272C207.944 94.7272 206.39 93.1303 206.39 90.6209ZM212.35 90.6351C212.35 89.3662 211.537 88.6676 210.61 88.6676C209.698 88.6676 208.871 89.3519 208.871 90.6209C208.871 91.8898 209.698 92.6027 210.61 92.6027C211.537 92.6027 212.35 91.9041 212.35 90.6351ZM222.041 94.6131V90.293C222.041 89.2094 221.442 88.6105 220.515 88.6105C219.589 88.6105 218.99 89.2094 218.99 90.293V94.6131H216.552V86.6572H218.99V87.7123C219.475 87.0422 220.33 86.5716 221.399 86.5716C223.239 86.5716 224.465 87.8263 224.465 89.965V94.6131H222.041Z" fill="white"/>
<path d="M26.5 122.846C26.5 114.097 33.5928 107.004 42.3421 107.004H119.5V206.004H42.3421C33.5927 206.004 26.5 198.911 26.5 190.162V122.846Z" fill="#01737F"/>
<path d="M52.5881 173.504V145.914H47.8046V138.231H61.1888V173.504H52.5881ZM88.4393 173.504L81.5297 163.115L75.4416 173.504H66.0678L76.9395 156.254L65.8262 139.584H75.4416L82.2545 149.828L88.246 139.584H97.6198L86.8447 156.689L98.0546 173.504H88.4393Z" fill="white"/>
<path d="M121.084 107.004H282.242C290.991 107.004 298.084 114.097 298.084 122.846V139.004H121.084V107.004Z" fill="#00B2AE"/>
<path d="M137.712 127.004V118.107H139.879V127.004H137.712ZM146.329 127.004V123.164C146.329 122.201 145.797 121.668 144.973 121.668C144.149 121.668 143.617 122.201 143.617 123.164V127.004H141.45V119.932H143.617V120.87C144.048 120.274 144.808 119.856 145.759 119.856C147.394 119.856 148.484 120.971 148.484 122.872V127.004H146.329ZM150.205 127.004V121.732H149.419V119.932H150.205V119.729C150.205 117.879 151.346 116.966 153.5 117.08V118.918C152.664 118.867 152.372 119.121 152.372 119.869V119.932H153.538V121.732H152.372V127.004H150.205ZM161.54 119.932V127.004H159.373V126.041C158.942 126.649 158.181 127.08 157.231 127.08C155.596 127.08 154.493 125.952 154.493 124.064V119.932H156.648V123.772C156.648 124.735 157.193 125.268 158.004 125.268C158.84 125.268 159.373 124.735 159.373 123.772V119.932H161.54ZM168.838 124.951C168.838 126.18 167.748 127.105 165.974 127.105C164.085 127.105 162.818 126.053 162.716 124.685H164.858C164.909 125.179 165.353 125.508 165.948 125.508C166.506 125.508 166.797 125.255 166.797 124.938C166.797 123.797 162.945 124.621 162.945 122.023C162.945 120.819 163.971 119.831 165.821 119.831C167.646 119.831 168.66 120.844 168.8 122.239H166.797C166.734 121.757 166.366 121.44 165.758 121.44C165.251 121.44 164.972 121.643 164.972 121.985C164.972 123.113 168.8 122.315 168.838 124.951ZM174.636 127.004L172.38 118.107H174.7L175.98 124.583L177.564 118.107H179.947L181.467 124.583L182.76 118.107H185.092L182.773 127.004H180.149L178.73 121.149L177.26 127.004H174.636ZM186.179 127.004V117.625H188.346V120.883C188.777 120.274 189.55 119.856 190.526 119.856C192.136 119.856 193.213 120.971 193.213 122.872V127.004H191.058V123.164C191.058 122.201 190.526 121.668 189.702 121.668C188.879 121.668 188.346 122.201 188.346 123.164V127.004H186.179ZM194.719 127.004V119.932H196.886V127.004H194.719ZM195.809 119.197C195.036 119.197 194.516 118.677 194.516 118.031C194.516 117.372 195.036 116.852 195.809 116.852C196.569 116.852 197.089 117.372 197.089 118.031C197.089 118.677 196.569 119.197 195.809 119.197ZM198.799 124.545V121.732H197.937V119.932H198.799V118.208H200.966V119.932H202.386V121.732H200.966V124.571C200.966 124.989 201.143 125.166 201.625 125.166H202.398V127.004H201.296C199.825 127.004 198.799 126.383 198.799 124.545ZM206.723 121.567C206.013 121.567 205.468 121.998 205.342 122.784H208.054C208.054 122.01 207.445 121.567 206.723 121.567ZM210.107 124.659C209.765 126.041 208.51 127.105 206.748 127.105C204.67 127.105 203.174 125.711 203.174 123.468C203.174 121.225 204.645 119.831 206.748 119.831C208.814 119.831 210.272 121.199 210.272 123.354C210.272 123.557 210.259 123.772 210.234 123.988H205.329C205.405 124.913 205.975 125.344 206.672 125.344C207.281 125.344 207.623 125.039 207.8 124.659H210.107ZM216.294 127.004V123.164C216.294 122.201 215.762 121.668 214.938 121.668C214.115 121.668 213.582 122.201 213.582 123.164V127.004H211.415V119.932H213.582V120.87C214.013 120.274 214.774 119.856 215.724 119.856C217.359 119.856 218.449 120.971 218.449 122.872V127.004H216.294ZM219.955 127.004V119.932H222.122V127.004H219.955ZM221.045 119.197C220.272 119.197 219.752 118.677 219.752 118.031C219.752 117.372 220.272 116.852 221.045 116.852C221.805 116.852 222.325 117.372 222.325 118.031C222.325 118.677 221.805 119.197 221.045 119.197ZM228.572 127.004V123.164C228.572 122.201 228.04 121.668 227.216 121.668C226.392 121.668 225.86 122.201 225.86 123.164V127.004H223.693V119.932H225.86V120.87C226.291 120.274 227.051 119.856 228.002 119.856C229.637 119.856 230.727 120.971 230.727 122.872V127.004H228.572ZM231.802 123.455C231.802 121.225 233.183 119.831 234.919 119.831C235.959 119.831 236.719 120.3 237.099 120.933V119.932H239.266V126.991C239.266 128.88 238.176 130.489 235.73 130.489C233.627 130.489 232.258 129.425 232.068 127.739H234.21C234.349 128.271 234.881 128.613 235.629 128.613C236.453 128.613 237.099 128.183 237.099 126.991V125.99C236.706 126.611 235.959 127.105 234.919 127.105C233.183 127.105 231.802 125.686 231.802 123.455ZM237.099 123.468C237.099 122.34 236.377 121.719 235.553 121.719C234.742 121.719 234.007 122.327 234.007 123.455C234.007 124.583 234.742 125.217 235.553 125.217C236.377 125.217 237.099 124.596 237.099 123.468Z" fill="white"/>
<rect width="177" height="32" transform="translate(121.084 140.588)" fill="#00B2AE"/>
<path d="M142.499 153.588L139.695 149.905V153.588H137.663V145.247H139.695V148.907L142.475 145.247H144.863L141.631 149.334L144.982 153.588H142.499ZM152.435 150.273C152.435 152.376 150.914 153.683 148.966 153.683C147.017 153.683 145.544 152.376 145.544 150.273C145.544 148.17 147.053 146.863 148.989 146.863C150.938 146.863 152.435 148.17 152.435 150.273ZM147.611 150.273C147.611 151.39 148.229 151.925 148.966 151.925C149.69 151.925 150.368 151.39 150.368 150.273C150.368 149.144 149.702 148.622 148.989 148.622C148.253 148.622 147.611 149.144 147.611 150.273ZM158.087 153.588V149.988C158.087 149.085 157.588 148.586 156.816 148.586C156.044 148.586 155.545 149.085 155.545 149.988V153.588H153.513V146.958H155.545V147.837C155.949 147.279 156.661 146.887 157.553 146.887C159.085 146.887 160.107 147.932 160.107 149.715V153.588H158.087ZM166.901 151.663C166.901 152.816 165.88 153.683 164.216 153.683C162.446 153.683 161.258 152.697 161.163 151.414H163.171C163.218 151.877 163.634 152.186 164.192 152.186C164.715 152.186 164.988 151.948 164.988 151.651C164.988 150.582 161.376 151.354 161.376 148.919C161.376 147.79 162.339 146.863 164.074 146.863C165.784 146.863 166.735 147.814 166.866 149.121H164.988C164.929 148.669 164.584 148.372 164.014 148.372C163.539 148.372 163.277 148.562 163.277 148.883C163.277 149.94 166.866 149.192 166.901 151.663ZM174.691 146.958V153.588H172.659V152.685C172.255 153.255 171.542 153.659 170.651 153.659C169.119 153.659 168.085 152.602 168.085 150.832V146.958H170.105V150.558C170.105 151.461 170.616 151.96 171.376 151.96C172.16 151.96 172.659 151.461 172.659 150.558V146.958H174.691ZM176.15 153.588V144.796H178.182V153.588H176.15ZM179.975 151.283V148.645H179.167V146.958H179.975V145.342H182.007V146.958H183.338V148.645H182.007V151.307C182.007 151.699 182.174 151.865 182.625 151.865H183.35V153.588H182.316C180.938 153.588 179.975 153.006 179.975 151.283ZM184.078 150.261C184.078 148.17 185.373 146.863 187 146.863C187.987 146.863 188.688 147.315 189.044 147.897V146.958H191.076V153.588H189.044V152.649C188.676 153.232 187.975 153.683 186.989 153.683C185.373 153.683 184.078 152.352 184.078 150.261ZM189.044 150.273C189.044 149.216 188.367 148.633 187.594 148.633C186.834 148.633 186.145 149.204 186.145 150.261C186.145 151.319 186.834 151.913 187.594 151.913C188.367 151.913 189.044 151.331 189.044 150.273ZM197.928 151.663C197.928 152.816 196.906 153.683 195.243 153.683C193.472 153.683 192.284 152.697 192.189 151.414H194.197C194.245 151.877 194.661 152.186 195.219 152.186C195.742 152.186 196.015 151.948 196.015 151.651C196.015 150.582 192.403 151.354 192.403 148.919C192.403 147.79 193.365 146.863 195.1 146.863C196.811 146.863 197.762 147.814 197.892 149.121H196.015C195.956 148.669 195.611 148.372 195.041 148.372C194.566 148.372 194.304 148.562 194.304 148.883C194.304 149.94 197.892 149.192 197.928 151.663ZM199.171 153.588V146.958H201.203V153.588H199.171ZM200.193 146.269C199.468 146.269 198.981 145.782 198.981 145.176C198.981 144.558 199.468 144.071 200.193 144.071C200.906 144.071 201.393 144.558 201.393 145.176C201.393 145.782 200.906 146.269 200.193 146.269ZM204.789 150.261C204.789 148.17 206.084 146.863 207.712 146.863C208.591 146.863 209.352 147.267 209.756 147.873V144.796H211.787V153.588H209.756V152.638C209.387 153.244 208.686 153.683 207.712 153.683C206.084 153.683 204.789 152.352 204.789 150.261ZM209.756 150.273C209.756 149.216 209.078 148.633 208.306 148.633C207.546 148.633 206.856 149.204 206.856 150.261C206.856 151.319 207.546 151.913 208.306 151.913C209.078 151.913 209.756 151.331 209.756 150.273ZM219.745 150.273C219.745 152.376 218.224 153.683 216.275 153.683C214.327 153.683 212.853 152.376 212.853 150.273C212.853 148.17 214.362 146.863 216.299 146.863C218.247 146.863 219.745 148.17 219.745 150.273ZM214.921 150.273C214.921 151.39 215.538 151.925 216.275 151.925C217 151.925 217.677 151.39 217.677 150.273C217.677 149.144 217.012 148.622 216.299 148.622C215.562 148.622 214.921 149.144 214.921 150.273ZM220.822 153.588V144.796H222.854V149.655L224.862 146.958H227.369L224.613 150.285L227.393 153.588H224.874L222.854 150.808V153.588H220.822ZM228.488 151.283V148.645H227.68V146.958H228.488V145.342H230.52V146.958H231.85V148.645H230.52V151.307C230.52 151.699 230.686 151.865 231.138 151.865H231.862V153.588H230.829C229.45 153.588 228.488 153.006 228.488 151.283ZM235.917 148.491C235.252 148.491 234.741 148.895 234.622 149.632H237.165C237.165 148.907 236.594 148.491 235.917 148.491ZM239.089 151.39C238.769 152.685 237.592 153.683 235.941 153.683C233.992 153.683 232.59 152.376 232.59 150.273C232.59 148.17 233.968 146.863 235.941 146.863C237.877 146.863 239.244 148.146 239.244 150.166C239.244 150.356 239.232 150.558 239.208 150.76H234.61C234.681 151.628 235.216 152.032 235.869 152.032C236.44 152.032 236.761 151.746 236.927 151.39H239.089ZM242.347 150.511V153.588H240.316V146.958H242.347V148.063C242.811 147.362 243.536 146.887 244.427 146.887V149.037H243.868C242.906 149.037 242.347 149.37 242.347 150.511ZM137.663 168.588V159.796H139.695V164.655L141.703 161.958H144.21L141.453 165.285L144.234 168.588H141.715L139.695 165.808V168.588H137.663ZM147.931 163.491C147.265 163.491 146.754 163.895 146.636 164.632H149.178C149.178 163.907 148.608 163.491 147.931 163.491ZM151.103 166.39C150.782 167.685 149.606 168.683 147.954 168.683C146.006 168.683 144.604 167.376 144.604 165.273C144.604 163.17 145.982 161.863 147.954 161.863C149.891 161.863 151.257 163.146 151.257 165.166C151.257 165.356 151.246 165.558 151.222 165.76H146.624C146.695 166.628 147.23 167.032 147.883 167.032C148.453 167.032 148.774 166.746 148.941 166.39H151.103ZM151.925 165.273C151.925 163.182 153.304 161.863 155.252 161.863C156.916 161.863 158.092 162.778 158.436 164.358H156.274C156.108 163.895 155.775 163.598 155.217 163.598C154.492 163.598 153.993 164.168 153.993 165.273C153.993 166.378 154.492 166.948 155.217 166.948C155.775 166.948 156.096 166.675 156.274 166.188H158.436C158.092 167.721 156.916 168.683 155.252 168.683C153.304 168.683 151.925 167.376 151.925 165.273ZM159.119 165.261C159.119 163.17 160.414 161.863 162.042 161.863C163.028 161.863 163.729 162.315 164.086 162.897V161.958H166.118V168.588H164.086V167.649C163.717 168.232 163.016 168.683 162.03 168.683C160.414 168.683 159.119 167.352 159.119 165.261ZM164.086 165.273C164.086 164.216 163.409 163.633 162.636 163.633C161.876 163.633 161.187 164.204 161.187 165.261C161.187 166.319 161.876 166.913 162.636 166.913C163.409 166.913 164.086 166.331 164.086 165.273ZM172.162 168.588V164.988C172.162 164.085 171.663 163.586 170.89 163.586C170.118 163.586 169.619 164.085 169.619 164.988V168.588H167.587V161.958H169.619V162.837C170.023 162.279 170.736 161.887 171.627 161.887C173.16 161.887 174.182 162.932 174.182 164.715V168.588H172.162ZM175.914 166.283V163.645H175.106V161.958H175.914V160.342H177.946V161.958H179.277V163.645H177.946V166.307C177.946 166.699 178.112 166.865 178.564 166.865H179.289V168.588H178.255C176.877 168.588 175.914 168.006 175.914 166.283ZM180.42 168.588V161.958H182.452V168.588H180.42ZM181.442 161.269C180.717 161.269 180.23 160.782 180.23 160.176C180.23 159.558 180.717 159.071 181.442 159.071C182.155 159.071 182.642 159.558 182.642 160.176C182.642 160.782 182.155 161.269 181.442 161.269ZM183.925 168.588V159.796H185.956V164.655L187.964 161.958H190.471L187.715 165.285L190.495 168.588H187.976L185.956 165.808V168.588H183.925ZM190.865 165.261C190.865 163.17 192.16 161.863 193.788 161.863C194.774 161.863 195.475 162.315 195.832 162.897V161.958H197.864V168.588H195.832V167.649C195.464 168.232 194.763 168.683 193.776 168.683C192.16 168.683 190.865 167.352 190.865 165.261ZM195.832 165.273C195.832 164.216 195.155 163.633 194.382 163.633C193.622 163.633 192.933 164.204 192.933 165.261C192.933 166.319 193.622 166.913 194.382 166.913C195.155 166.913 195.832 166.331 195.832 165.273ZM203.908 168.588V164.988C203.908 164.085 203.409 163.586 202.637 163.586C201.864 163.586 201.365 164.085 201.365 164.988V168.588H199.333V161.958H201.365V162.837C201.769 162.279 202.482 161.887 203.373 161.887C204.906 161.887 205.928 162.932 205.928 164.715V168.588H203.908Z" fill="white"/>
<path d="M121.084 174.172H298.084V190.33C298.084 199.08 290.991 206.172 282.242 206.172H121.084V174.172Z" fill="#00B2AE"/>
<path d="M137.663 194.672V186.331H140.063L142.404 192.106L144.721 186.331H147.109V194.672H145.077V189.67L143.212 194.672H141.572L139.695 189.658V194.672H137.663ZM148.166 191.345C148.166 189.254 149.461 187.947 151.089 187.947C152.075 187.947 152.776 188.399 153.132 188.981V188.042H155.164V194.672H153.132V193.734C152.764 194.316 152.063 194.767 151.077 194.767C149.461 194.767 148.166 193.437 148.166 191.345ZM153.132 191.357C153.132 190.3 152.455 189.718 151.683 189.718C150.922 189.718 150.233 190.288 150.233 191.345C150.233 192.403 150.922 192.997 151.683 192.997C152.455 192.997 153.132 192.415 153.132 191.357ZM162.016 192.748C162.016 193.9 160.995 194.767 159.331 194.767C157.561 194.767 156.373 193.781 156.278 192.498H158.286C158.333 192.961 158.749 193.27 159.307 193.27C159.83 193.27 160.103 193.033 160.103 192.736C160.103 191.666 156.491 192.439 156.491 190.003C156.491 188.874 157.454 187.947 159.189 187.947C160.9 187.947 161.85 188.898 161.981 190.205H160.103C160.044 189.753 159.7 189.456 159.129 189.456C158.654 189.456 158.393 189.646 158.393 189.967C158.393 191.025 161.981 190.276 162.016 192.748ZM163.259 194.672V185.88H165.291V190.74L167.299 188.042H169.806L167.05 191.369L169.83 194.672H167.311L165.291 191.892V194.672H163.259ZM173.527 189.575C172.862 189.575 172.351 189.979 172.232 190.716H174.775C174.775 189.991 174.204 189.575 173.527 189.575ZM176.699 192.474C176.379 193.769 175.202 194.767 173.551 194.767C171.602 194.767 170.2 193.46 170.2 191.357C170.2 189.254 171.578 187.947 173.551 187.947C175.488 187.947 176.854 189.231 176.854 191.25C176.854 191.441 176.842 191.643 176.818 191.845H172.22C172.291 192.712 172.826 193.116 173.48 193.116C174.05 193.116 174.371 192.831 174.537 192.474H176.699ZM179.958 191.595V194.672H177.926V188.042H179.958V189.147C180.421 188.446 181.146 187.971 182.037 187.971V190.122H181.478C180.516 190.122 179.958 190.454 179.958 191.595ZM185.122 191.345C185.122 189.254 186.417 187.947 188.045 187.947C189.019 187.947 189.732 188.387 190.088 188.981V188.042H192.12V194.66C192.12 196.431 191.098 197.94 188.805 197.94C186.833 197.94 185.55 196.942 185.371 195.361H187.379C187.51 195.86 188.009 196.181 188.71 196.181C189.482 196.181 190.088 195.777 190.088 194.66V193.722C189.72 194.304 189.019 194.767 188.045 194.767C186.417 194.767 185.122 193.437 185.122 191.345ZM190.088 191.357C190.088 190.3 189.411 189.718 188.639 189.718C187.878 189.718 187.189 190.288 187.189 191.345C187.189 192.403 187.878 192.997 188.639 192.997C189.411 192.997 190.088 192.415 190.088 191.357ZM193.59 194.672V185.88H195.622V194.672H193.59ZM203.581 191.357C203.581 193.46 202.061 194.767 200.112 194.767C198.163 194.767 196.69 193.46 196.69 191.357C196.69 189.254 198.199 187.947 200.136 187.947C202.084 187.947 203.581 189.254 203.581 191.357ZM198.758 191.357C198.758 192.474 199.375 193.009 200.112 193.009C200.837 193.009 201.514 192.474 201.514 191.357C201.514 190.229 200.849 189.706 200.136 189.706C199.399 189.706 198.758 190.229 198.758 191.357ZM205.776 194.672L203.97 188.042H206.002L206.941 192.783L208.057 188.042H210.208L211.337 192.759L212.264 188.042H214.176L212.382 194.672H210.137L209.091 190.371L208.01 194.672H205.776ZM214.951 194.672V188.042H216.983V194.672H214.951ZM215.973 187.353C215.248 187.353 214.761 186.866 214.761 186.26C214.761 185.642 215.248 185.155 215.973 185.155C216.686 185.155 217.173 185.642 217.173 186.26C217.173 186.866 216.686 187.353 215.973 187.353ZM223.03 194.672V191.072C223.03 190.169 222.531 189.67 221.758 189.67C220.986 189.67 220.487 190.169 220.487 191.072V194.672H218.455V188.042H220.487V188.922C220.891 188.363 221.604 187.971 222.495 187.971C224.028 187.971 225.05 189.017 225.05 190.799V194.672H223.03ZM226.058 191.345C226.058 189.254 227.353 187.947 228.98 187.947C229.955 187.947 230.668 188.387 231.024 188.981V188.042H233.056V194.66C233.056 196.431 232.034 197.94 229.741 197.94C227.769 197.94 226.485 196.942 226.307 195.361H228.315C228.446 195.86 228.945 196.181 229.646 196.181C230.418 196.181 231.024 195.777 231.024 194.66V193.722C230.656 194.304 229.955 194.767 228.98 194.767C227.353 194.767 226.058 193.437 226.058 191.345ZM231.024 191.357C231.024 190.3 230.347 189.718 229.575 189.718C228.814 189.718 228.125 190.288 228.125 191.345C228.125 192.403 228.814 192.997 229.575 192.997C230.347 192.997 231.024 192.415 231.024 191.357Z" fill="white"/>
<path d="M75.0546 58.122V33.8073H70.839V27.0366H82.6344V58.122H75.0546ZM96.0469 54.5451C96.0469 56.7168 94.301 58.4627 91.7461 58.4627C89.1485 58.4627 87.4026 56.7168 87.4026 54.5451C87.4026 52.2882 89.1485 50.5423 91.7461 50.5423C94.301 50.5423 96.0469 52.2882 96.0469 54.5451ZM99.889 35.8087C100.145 29.6768 104.147 26.3127 110.492 26.3127C117.05 26.3127 120.584 30.06 120.584 34.7441C120.584 38.832 118.029 41.0038 115.9 41.7277V41.898C119.009 42.92 121.138 45.3046 121.138 49.3926C121.138 54.6302 117.391 58.3775 110.875 58.3775C104.403 58.3775 99.7187 55.3116 99.5058 48.2854H106.574C106.617 50.7126 107.937 52.3308 110.62 52.3308C112.877 52.3308 114.112 50.8829 114.112 48.839C114.112 46.0711 112.451 44.964 108.661 44.964H107.298V39.045H108.661C111.131 39.045 113.515 38.4488 113.515 35.6383C113.515 33.5518 112.281 32.4021 110.322 32.4021C107.98 32.4021 107.128 34.1054 107 35.8087H99.889ZM125.416 42.1535C125.416 33.0408 128.525 26.3979 137.382 26.3979C146.239 26.3979 149.347 33.0408 149.347 42.1535C149.347 51.3514 146.239 57.9943 137.382 57.9943C128.525 57.9943 125.416 51.3514 125.416 42.1535ZM142.194 42.1535C142.194 37.3842 141.683 33.2111 137.382 33.2111C133.081 33.2111 132.57 37.3842 132.57 42.1535C132.57 47.0931 133.081 51.181 137.382 51.181C141.683 51.181 142.194 47.0931 142.194 42.1535ZM153.195 42.1535C153.195 33.0408 156.303 26.3979 165.16 26.3979C174.018 26.3979 177.126 33.0408 177.126 42.1535C177.126 51.3514 174.018 57.9943 165.16 57.9943C156.303 57.9943 153.195 51.3514 153.195 42.1535ZM169.972 42.1535C169.972 37.3842 169.461 33.2111 165.16 33.2111C160.859 33.2111 160.348 37.3842 160.348 42.1535C160.348 47.0931 160.859 51.181 165.16 51.181C169.461 51.181 169.972 47.0931 169.972 42.1535ZM189.405 54.5451C189.405 56.7168 187.659 58.4627 185.104 58.4627C182.506 58.4627 180.76 56.7168 180.76 54.5451C180.76 52.2882 182.506 50.5423 185.104 50.5423C187.659 50.5423 189.405 52.2882 189.405 54.5451ZM192.991 42.1535C192.991 33.0408 196.1 26.3979 204.957 26.3979C213.814 26.3979 216.923 33.0408 216.923 42.1535C216.923 51.3514 213.814 57.9943 204.957 57.9943C196.1 57.9943 192.991 51.3514 192.991 42.1535ZM209.769 42.1535C209.769 37.3842 209.258 33.2111 204.957 33.2111C200.656 33.2111 200.145 37.3842 200.145 42.1535C200.145 47.0931 200.656 51.181 204.957 51.181C209.258 51.181 209.769 47.0931 209.769 42.1535ZM220.77 42.1535C220.77 33.0408 223.878 26.3979 232.735 26.3979C241.593 26.3979 244.701 33.0408 244.701 42.1535C244.701 51.3514 241.593 57.9943 232.735 57.9943C223.878 57.9943 220.77 51.3514 220.77 42.1535ZM237.547 42.1535C237.547 37.3842 237.036 33.2111 232.735 33.2111C228.435 33.2111 227.924 37.3842 227.924 42.1535C227.924 47.0931 228.435 51.181 232.735 51.181C237.036 51.181 237.547 47.0931 237.547 42.1535ZM248.548 42.1535C248.548 33.0408 251.657 26.3979 260.514 26.3979C269.371 26.3979 272.48 33.0408 272.48 42.1535C272.48 51.3514 269.371 57.9943 260.514 57.9943C251.657 57.9943 248.548 51.3514 248.548 42.1535ZM265.326 42.1535C265.326 37.3842 264.815 33.2111 260.514 33.2111C256.213 33.2111 255.702 37.3842 255.702 42.1535C255.702 47.0931 256.213 51.181 260.514 51.181C264.815 51.181 265.326 47.0931 265.326 42.1535Z" fill="white"/>
<path d="M46.8871 30.9253C46.8871 29.4301 46.0544 28.4649 44.0861 28.4649H41.5501V33.4613H44.0861C46.0354 33.4613 46.8871 32.4015 46.8871 30.9253ZM39.8278 27.0455H44.0861C47.1899 27.0455 48.6661 28.7678 48.6661 30.9253C48.6661 32.6097 47.7387 34.2183 45.5244 34.7104L48.8364 40.2367H46.7735L43.6319 34.8429H41.5501V40.2367H39.8278V27.0455ZM53.0644 31.7769C53.6889 30.6792 55.0516 29.6951 56.9441 29.6951C59.7262 29.6951 61.8648 31.7769 61.8648 35.0132C61.8648 38.2306 59.7262 40.407 56.9441 40.407C55.0516 40.407 53.7079 39.385 53.0644 38.3252V45.1574H51.3422V29.8654H53.0644V31.7769ZM60.1047 35.0132C60.1047 32.5718 58.4961 31.1902 56.5846 31.1902C54.7109 31.1902 53.0644 32.6286 53.0644 35.0321C53.0644 37.4735 54.7109 38.893 56.5846 38.893C58.4961 38.893 60.1047 37.4546 60.1047 35.0132Z" fill="white"/>
<path d="M281.335 58.504L282.717 53.413H284.609L282.49 58.504H281.335ZM286.222 49.59V48.1327H293.774V49.59H286.222Z" fill="white"/>
</svg>
