<svg width="367" height="133" viewBox="0 0 367 133" fill="none" xmlns="http://www.w3.org/2000/svg">
<rect x="3.5" y="25.3696" width="360" height="104.13" rx="22.5" fill="#00B2AE" stroke="#00B2AE" stroke-width="7"/>
<rect x="6" y="27.8696" width="355" height="99.1305" rx="20" stroke="white" stroke-width="2"/>
<rect x="33" y="5" width="301" height="44" rx="10" fill="#FF8A00" stroke="#FF8A00" stroke-width="10"/>
<rect x="33" y="5" width="301" height="44" rx="10" stroke="white" stroke-width="2"/>
<path d="M103.762 27.142H105.76C107.182 27.142 107.812 26.44 107.812 25.324C107.812 24.172 107.182 23.488 105.76 23.488H103.762V27.142ZM110.404 25.324C110.404 27.232 109.108 29.176 105.868 29.176H103.762V34H101.242V21.436H105.868C108.892 21.436 110.404 23.146 110.404 25.324ZM111.545 28.978C111.545 25.864 113.561 23.866 116.099 23.866C117.701 23.866 118.799 24.622 119.393 25.45V24.028H121.931V34H119.393V32.542C118.799 33.406 117.665 34.162 116.081 34.162C113.561 34.162 111.545 32.092 111.545 28.978ZM119.393 29.014C119.393 27.124 118.133 26.08 116.747 26.08C115.397 26.08 114.119 27.088 114.119 28.978C114.119 30.868 115.397 31.948 116.747 31.948C118.133 31.948 119.393 30.904 119.393 29.014ZM124.392 34V20.68H126.912V28.258L130.26 24.028H133.536L129.144 29.032L133.572 34H130.296L126.912 29.752V34H124.392ZM139.188 25.936C137.982 25.936 137.028 26.71 136.83 28.078H141.564C141.528 26.764 140.484 25.936 139.188 25.936ZM143.922 30.868C143.382 32.704 141.726 34.162 139.26 34.162C136.362 34.162 134.256 32.146 134.256 29.014C134.256 25.864 136.308 23.866 139.26 23.866C142.14 23.866 144.174 25.828 144.174 28.798C144.174 29.122 144.156 29.446 144.102 29.77H136.812C136.938 31.246 137.946 32.074 139.206 32.074C140.286 32.074 140.88 31.534 141.204 30.868H143.922ZM146.409 30.904V26.098H145.221V24.028H146.409V21.562H148.947V24.028H151.179V26.098H148.947V30.922C148.947 31.588 149.217 31.876 150.009 31.876H151.179V34H149.595C147.687 34 146.409 33.19 146.409 30.904ZM157.281 34V21.436H159.801V34H157.281ZM169.275 34V28.492C169.275 26.89 168.393 26.026 167.061 26.026C165.693 26.026 164.811 26.89 164.811 28.492V34H162.291V24.028H164.811V25.27C165.459 24.424 166.539 23.884 167.817 23.884C170.139 23.884 171.795 25.396 171.795 28.15V34H169.275ZM174.461 34V26.098H173.327V24.028H174.461V23.524C174.461 21.076 175.847 19.942 178.655 20.014V22.138C177.431 22.102 177.017 22.498 177.017 23.614V24.028H178.763V26.098H177.017V34H174.461ZM189.81 24.028V34H187.272V32.74C186.642 33.586 185.544 34.126 184.302 34.126C181.98 34.126 180.306 32.614 180.306 29.878V24.028H182.826V29.518C182.826 31.12 183.708 31.984 185.04 31.984C186.408 31.984 187.272 31.12 187.272 29.518V24.028H189.81ZM200.037 31.156C200.037 32.866 198.543 34.162 196.113 34.162C193.611 34.162 191.865 32.704 191.757 30.85H194.295C194.385 31.606 195.087 32.182 196.095 32.182C197.085 32.182 197.625 31.732 197.625 31.156C197.625 29.374 191.991 30.508 191.991 26.854C191.991 25.198 193.467 23.866 195.933 23.866C198.345 23.866 199.803 25.18 199.947 27.16H197.535C197.463 26.386 196.851 25.864 195.861 25.864C194.925 25.864 194.439 26.242 194.439 26.818C194.439 28.636 199.965 27.502 200.037 31.156ZM208.932 34.018L205.548 21.436H208.248L210.462 31.192L213.018 21.436H215.826L218.238 31.138L220.47 21.436H223.188L219.678 34H216.708L214.35 25.054L211.884 34L208.932 34.018ZM224.834 34V20.68H227.354V25.27C228.002 24.424 229.118 23.884 230.45 23.884C232.7 23.884 234.338 25.396 234.338 28.15V34H231.818V28.492C231.818 26.89 230.936 26.026 229.604 26.026C228.236 26.026 227.354 26.89 227.354 28.492V34H224.834ZM236.734 34V24.028H239.254V34H236.734ZM238.012 22.84C237.112 22.84 236.464 22.192 236.464 21.364C236.464 20.536 237.112 19.888 238.012 19.888C238.894 19.888 239.56 20.536 239.56 21.364C239.56 22.192 238.894 22.84 238.012 22.84ZM242.14 30.904V26.098H240.952V24.028H242.14V21.562H244.678V24.028H246.91V26.098H244.678V30.922C244.678 31.588 244.948 31.876 245.74 31.876H246.91V34H245.326C243.418 34 242.14 33.19 242.14 30.904ZM253.006 25.936C251.8 25.936 250.846 26.71 250.648 28.078H255.382C255.346 26.764 254.302 25.936 253.006 25.936ZM257.74 30.868C257.2 32.704 255.544 34.162 253.078 34.162C250.18 34.162 248.074 32.146 248.074 29.014C248.074 25.864 250.126 23.866 253.078 23.866C255.958 23.866 257.992 25.828 257.992 28.798C257.992 29.122 257.974 29.446 257.92 29.77H250.63C250.756 31.246 251.764 32.074 253.024 32.074C254.104 32.074 254.698 31.534 255.022 30.868H257.74ZM269.917 21.274C272.725 21.274 274.957 22.696 275.767 25.216H272.869C272.293 24.154 271.249 23.596 269.917 23.596C267.667 23.596 266.101 25.198 266.101 27.7C266.101 30.256 267.685 31.84 270.025 31.84C271.969 31.84 273.211 30.724 273.589 28.942H269.269V27.016H276.073V29.212C275.569 31.768 273.283 34.108 269.935 34.108C266.281 34.108 263.509 31.462 263.509 27.7C263.509 23.938 266.281 21.274 269.917 21.274ZM277.937 34V20.68H280.457V34H277.937ZM292.577 29.014C292.577 32.146 290.273 34.162 287.375 34.162C284.495 34.162 282.317 32.146 282.317 29.014C282.317 25.864 284.567 23.866 287.447 23.866C290.327 23.866 292.577 25.864 292.577 29.014ZM284.873 29.014C284.873 30.994 286.025 31.966 287.375 31.966C288.707 31.966 289.985 30.994 289.985 29.014C289.985 27.016 288.743 26.062 287.411 26.062C286.079 26.062 284.873 27.016 284.873 29.014ZM296.244 34L293.31 24.028H295.866L297.63 31.624L299.538 24.028H302.202L304.074 31.606L305.838 24.028H308.25L305.334 34H302.616L300.798 27.034L298.98 34H296.244Z" fill="white"/>
<path d="M84.5853 106.172V78.7067H79.8234V71.0588H93.1471V106.172H84.5853ZM108.297 102.131C108.297 104.585 106.325 106.557 103.439 106.557C100.505 106.557 98.5332 104.585 98.5332 102.131C98.5332 99.5822 100.505 97.6101 103.439 97.6101C106.325 97.6101 108.297 99.5822 108.297 102.131ZM112.637 80.9674C112.926 74.041 117.447 70.2411 124.614 70.2411C132.022 70.2411 136.014 74.4739 136.014 79.7649C136.014 84.3825 133.128 86.8356 130.723 87.6533V87.8457C134.234 89.0001 136.639 91.6938 136.639 96.3114C136.639 102.228 132.407 106.46 125.047 106.46C117.736 106.46 112.445 102.997 112.204 95.0608H120.189C120.237 97.8025 121.728 99.6303 124.759 99.6303C127.308 99.6303 128.703 97.9949 128.703 95.6861C128.703 92.5596 126.827 91.309 122.546 91.309H121.007V84.623H122.546C125.336 84.623 128.029 83.9496 128.029 80.775C128.029 78.4181 126.635 77.1194 124.422 77.1194C121.776 77.1194 120.814 79.0434 120.67 80.9674H112.637ZM141.472 88.1343C141.472 77.8409 144.983 70.3373 154.988 70.3373C164.993 70.3373 168.504 77.8409 168.504 88.1343C168.504 98.524 164.993 106.028 154.988 106.028C144.983 106.028 141.472 98.524 141.472 88.1343ZM160.423 88.1343C160.423 82.7471 159.846 78.0333 154.988 78.0333C150.13 78.0333 149.553 82.7471 149.553 88.1343C149.553 93.714 150.13 98.3316 154.988 98.3316C159.846 98.3316 160.423 93.714 160.423 88.1343ZM172.85 88.1343C172.85 77.8409 176.361 70.3373 186.366 70.3373C196.371 70.3373 199.882 77.8409 199.882 88.1343C199.882 98.524 196.371 106.028 186.366 106.028C176.361 106.028 172.85 98.524 172.85 88.1343ZM191.801 88.1343C191.801 82.7471 191.224 78.0333 186.366 78.0333C181.508 78.0333 180.93 82.7471 180.93 88.1343C180.93 93.714 181.508 98.3316 186.366 98.3316C191.224 98.3316 191.801 93.714 191.801 88.1343ZM213.751 102.131C213.751 104.585 211.779 106.557 208.893 106.557C205.959 106.557 203.987 104.585 203.987 102.131C203.987 99.5822 205.959 97.6101 208.893 97.6101C211.779 97.6101 213.751 99.5822 213.751 102.131ZM217.803 88.1343C217.803 77.8409 221.314 70.3373 231.319 70.3373C241.324 70.3373 244.835 77.8409 244.835 88.1343C244.835 98.524 241.324 106.028 231.319 106.028C221.314 106.028 217.803 98.524 217.803 88.1343ZM236.754 88.1343C236.754 82.7471 236.177 78.0333 231.319 78.0333C226.461 78.0333 225.883 82.7471 225.883 88.1343C225.883 93.714 226.461 98.3316 231.319 98.3316C236.177 98.3316 236.754 93.714 236.754 88.1343ZM249.18 88.1343C249.18 77.8409 252.692 70.3373 262.696 70.3373C272.701 70.3373 276.213 77.8409 276.213 88.1343C276.213 98.524 272.701 106.028 262.696 106.028C252.692 106.028 249.18 98.524 249.18 88.1343ZM268.132 88.1343C268.132 82.7471 267.555 78.0333 262.696 78.0333C257.838 78.0333 257.261 82.7471 257.261 88.1343C257.261 93.714 257.838 98.3316 262.696 98.3316C267.555 98.3316 268.132 93.714 268.132 88.1343ZM280.558 88.1343C280.558 77.8409 284.069 70.3373 294.074 70.3373C304.079 70.3373 307.59 77.8409 307.59 88.1343C307.59 98.524 304.079 106.028 294.074 106.028C284.069 106.028 280.558 98.524 280.558 88.1343ZM299.51 88.1343C299.51 82.7471 298.932 78.0333 294.074 78.0333C289.216 78.0333 288.639 82.7471 288.639 88.1343C288.639 93.714 289.216 98.3316 294.074 98.3316C298.932 98.3316 299.51 93.714 299.51 88.1343Z" fill="white"/>
<path d="M52.62 73.4821C52.62 71.7933 51.6794 70.703 49.4561 70.703H46.5915V76.3467H49.4561C51.658 76.3467 52.62 75.1496 52.62 73.4821ZM44.6461 69.0997H49.4561C52.9621 69.0997 54.6295 71.045 54.6295 73.4821C54.6295 75.3847 53.582 77.2019 51.0808 77.7577L54.8219 84H52.4917L48.943 77.9073H46.5915V84H44.6461V69.0997ZM59.5977 74.4441C60.3032 73.2042 61.8424 72.0926 63.9802 72.0926C67.1227 72.0926 69.5384 74.4441 69.5384 78.0997C69.5384 81.734 67.1227 84.1924 63.9802 84.1924C61.8424 84.1924 60.3245 83.038 59.5977 81.8408V89.5582H57.6523V72.285H59.5977V74.4441ZM67.5502 78.0997C67.5502 75.342 65.7331 73.7814 63.574 73.7814C61.4576 73.7814 59.5977 75.4061 59.5977 78.1211C59.5977 80.8788 61.4576 82.4822 63.574 82.4822C65.7331 82.4822 67.5502 80.8575 67.5502 78.0997Z" fill="white"/>
<path d="M317.445 104.634L319.005 98.8835H321.143L318.749 104.634H317.445ZM322.965 94.5652V92.9191H331.495V94.5652H322.965Z" fill="white"/>
<path d="M64.6751 27.7924C64.3668 28.0975 63.8653 28.0975 63.5569 27.7924C63.2962 27.5345 62.876 27.5369 62.6183 27.7976C62.3605 28.0584 62.3628 28.4788 62.6234 28.7367C63.035 29.1439 63.5755 29.3475 64.116 29.3475C64.6565 29.3475 65.1971 29.1439 65.6086 28.7367C65.8693 28.4788 65.8715 28.0584 65.6138 27.7976C65.356 27.5368 64.9358 27.5345 64.6751 27.7924Z" fill="#EDFCFC"/>
<path d="M69.8682 29.3475C70.4088 29.3475 70.9493 29.1439 71.3608 28.7367C71.6214 28.4787 71.6237 28.0583 71.366 27.7975C71.1081 27.5368 70.6879 27.5345 70.4273 27.7924C70.119 28.0974 69.6175 28.0974 69.3092 27.7924C69.0485 27.5344 68.6282 27.5368 68.3705 27.7975C68.1127 28.0583 68.115 28.4787 68.3757 28.7367C68.7871 29.1439 69.3276 29.3475 69.8682 29.3475Z" fill="#EDFCFC"/>
<path d="M69.923 26.0702C70.3909 25.6072 71.1522 25.6071 71.6202 26.0702C71.7496 26.1983 71.9183 26.2622 72.0869 26.2622C72.258 26.2622 72.4291 26.1964 72.5589 26.0651C72.8167 25.8043 72.8143 25.3839 72.5537 25.1259C71.571 24.1536 69.9721 24.1536 68.9894 25.1259C68.7288 25.3839 68.7265 25.8043 68.9843 26.0651C69.2421 26.3258 69.6624 26.3281 69.923 26.0702Z" fill="#EDFCFC"/>
<path d="M62.364 26.0702C62.8319 25.6072 63.5932 25.6071 64.0611 26.0702C64.1906 26.1983 64.3592 26.2622 64.5279 26.2622C64.699 26.2622 64.87 26.1964 64.9998 26.0651C65.2576 25.8043 65.2553 25.3839 64.9946 25.1259C64.0119 24.1536 62.413 24.1536 61.4304 25.1259C61.1697 25.3839 61.1675 25.8043 61.4252 26.0651C61.6831 26.3258 62.1033 26.3281 62.364 26.0702Z" fill="#EDFCFC"/>
<path d="M64.7817 31.22C64.5239 31.4808 64.5262 31.9012 64.7869 32.1591C65.3949 32.7607 66.1935 33.0615 66.9921 33.0615C67.7908 33.0615 68.5894 32.7607 69.1974 32.1591C69.458 31.9012 69.4603 31.4808 69.2026 31.22C68.9448 30.9593 68.5246 30.9569 68.2639 31.2148C67.5627 31.9088 66.4217 31.9087 65.7205 31.2148C65.4597 30.9569 65.0395 30.9593 64.7817 31.22Z" fill="#EDFCFC"/>
<path d="M82.6517 31.3955L81.7328 30.8989C81.1295 30.5729 80.6364 30.0858 80.3068 29.4904L79.8873 28.7325V22.8341C79.8873 15.7574 74.1326 10 67.0591 10H66.9251C63.9999 10 61.2449 10.9594 58.958 12.7746C57.068 14.2748 55.6319 16.2944 54.8305 18.5509L54.3571 17.6956C54.2402 17.4843 54.0178 17.3532 53.7764 17.3532C53.5351 17.3532 53.3127 17.4843 53.1958 17.6956L52.6932 18.6035C52.3637 19.1989 51.8705 19.686 51.2672 20.0121L50.3483 20.5087C50.1337 20.6246 50 20.849 50 21.0929C50 21.3369 50.1337 21.5612 50.3483 21.6771L51.2672 22.1737C51.8705 22.4998 52.3636 22.9869 52.6932 23.5823L53.1958 24.4903C53.3127 24.7015 53.5351 24.8326 53.7764 24.8326C53.8907 24.8326 54.0003 24.8024 54.097 24.749V29.3162C54.097 32.5564 56.2568 35.301 59.2115 36.186C57.3466 37.3669 56.1058 39.4488 56.1058 41.8154V43.3359C56.1058 43.7027 56.4029 44 56.7695 44H77.2148C77.5814 44 77.8785 43.7027 77.8785 43.3359V41.8155C77.8785 39.4473 76.636 37.3643 74.7691 36.1839C75.9859 35.8184 77.0968 35.133 77.9711 34.1947C78.0313 34.2834 78.0881 34.3747 78.1404 34.4692L78.6429 35.3771C78.7598 35.5885 78.9822 35.7195 79.2236 35.7195C79.4649 35.7195 79.6873 35.5885 79.8042 35.3772L80.3068 34.4692C80.6364 33.8738 81.1295 33.3868 81.7328 33.0607L82.6517 32.5641C82.8663 32.4482 83 32.2238 83 31.9799C83 31.736 82.8663 31.5115 82.6517 31.3955ZM53.7764 22.8031C53.3558 22.0976 52.7649 21.5111 52.0536 21.093C52.7649 20.6748 53.3559 20.0883 53.7764 19.3829C54.197 20.0884 54.7879 20.6749 55.4993 21.093C54.7879 21.5111 54.197 22.0976 53.7764 22.8031ZM74.0889 22.4862C72.8859 20.9715 71.2074 19.9168 69.3074 19.5159C68.7993 19.4088 68.0893 19.3101 67.1972 19.2226C65.6527 19.0711 65.0473 17.8821 65.1325 16.7709C65.2133 15.7168 65.929 14.6888 67.3464 14.6888C67.4016 14.6888 67.4579 14.6903 67.5152 14.6935C67.9065 14.7152 68.3007 14.7701 68.6866 14.8568C72.1826 15.6412 74.5311 19.0096 74.0889 22.4862ZM64.7884 19.4936C64.7497 19.5011 64.7121 19.5086 64.6768 19.516C62.7768 19.9167 61.0983 20.9716 59.8953 22.4863C59.4994 19.374 61.3403 16.3488 64.2385 15.1861C63.9941 15.6461 63.8482 16.1555 63.8088 16.6694C63.7314 17.6796 64.0566 18.7357 64.7884 19.4936ZM59.6825 24.8145C59.8945 24.7872 60.0838 24.6588 60.1856 24.4647C61.1759 22.5755 62.9126 21.2454 64.9506 20.8156C65.3548 20.7303 66.0405 20.6407 67.0453 20.5417C67.0529 20.5425 68.5728 20.7184 69.0335 20.8155C71.0716 21.2454 72.8084 22.5754 73.7986 24.4646C73.9004 24.6588 74.0897 24.7871 74.3017 24.8144C74.9733 24.9587 75.4582 25.5491 75.4582 26.2298C75.4582 26.9197 74.9605 27.5177 74.2747 27.6517C73.9648 27.7123 73.7405 27.9828 73.7382 28.2987C73.737 28.4609 73.7337 28.7479 73.7298 28.827C73.5523 32.3771 70.5928 35.158 66.9921 35.158C63.3914 35.158 60.4318 32.3771 60.2544 28.827C60.2504 28.7478 60.2471 28.4609 60.2459 28.2987C60.2437 27.9828 60.0193 27.7123 59.7094 27.6517C59.0237 27.5177 58.5259 26.9198 58.5259 26.2298C58.526 25.5492 59.0109 24.9588 59.6825 24.8145ZM65.826 36.4026C66.2095 36.4578 66.599 36.4861 66.9921 36.4861C67.3852 36.4861 67.7746 36.4578 68.1582 36.4026V37.4561C68.1582 38.1003 67.6351 38.6243 66.9921 38.6243C66.3491 38.6243 65.826 38.1002 65.826 37.4561V36.4026ZM76.551 41.8155V42.6719H57.4332V41.8155C57.4332 38.8768 59.8229 36.4861 62.7602 36.4861H64.4985V37.4561C64.4985 38.8325 65.6171 39.9523 66.9921 39.9523C68.367 39.9523 69.4857 38.8325 69.4857 37.4561V36.4861H71.224C74.1613 36.4861 76.551 38.8768 76.551 41.8155ZM72.7208 35.1579H71.4437C71.8303 34.9039 72.1976 34.6158 72.5409 34.2945C74.0595 32.8727 74.9526 30.9546 75.0556 28.8932C75.0569 28.8685 75.058 28.8349 75.059 28.7962C76.0853 28.3732 76.7857 27.367 76.7857 26.2299C76.7857 25.1461 76.1494 24.1819 75.2013 23.7274C75.2458 23.5465 75.288 23.3532 75.3274 23.147C75.7288 21.0446 75.2909 18.8929 74.0944 17.0883C72.8993 15.2859 71.0819 14.0332 68.9772 13.5608C68.52 13.4583 68.0528 13.3932 67.5887 13.3675C67.5073 13.3629 67.4276 13.3613 67.3486 13.3612C66.8368 13.3391 65.4803 13.4547 65.0072 13.5608C62.9024 14.0331 61.0851 15.2858 59.89 17.0882C58.6934 18.8928 58.2555 21.0445 58.6569 23.147C58.6883 23.3116 58.7304 23.5139 58.7829 23.7274C57.8348 24.1819 57.1985 25.1461 57.1985 26.2299C57.1985 27.3671 57.8989 28.3732 58.9253 28.7962C58.9263 28.835 58.9273 28.8687 58.9286 28.8934C59.0316 30.9546 59.9247 32.8728 61.4433 34.2945C61.7865 34.6158 62.1538 34.9039 62.5405 35.1579H61.2633C58.0437 35.1579 55.4243 32.5374 55.4243 29.3163V22.8341C55.4243 22.8306 55.4244 22.8271 55.4244 22.8236C55.675 22.5668 55.9644 22.3473 56.2856 22.1738L57.2045 21.6772C57.4191 21.5613 57.5528 21.3369 57.5528 21.093C57.5528 20.849 57.4191 20.6247 57.2045 20.5087L56.2856 20.0121C56.132 19.9291 55.9857 19.8356 55.8473 19.7327C57.2298 14.7669 61.7362 11.3281 66.9251 11.3281H67.0591C73.4006 11.3281 78.5598 16.4897 78.5598 22.8341V28.7326L78.1403 29.4904C77.8108 30.0858 77.3177 30.5729 76.7143 30.899L75.7954 31.3956C75.5808 31.5115 75.4471 31.7359 75.4471 31.9798C75.4471 32.2237 75.5808 32.4481 75.7954 32.564L76.7143 33.0607C76.8244 33.1202 76.9308 33.1852 77.0332 33.2551C75.9286 34.4709 74.3871 35.1579 72.7208 35.1579ZM79.2236 33.6899C78.8029 32.9844 78.212 32.3979 77.5007 31.9798C78.2121 31.5616 78.803 30.9752 79.2236 30.2697C79.6441 30.9751 80.2351 31.5616 80.9464 31.9798C80.2351 32.3979 79.6441 32.9844 79.2236 33.6899Z" fill="#EDFCFC"/>
</svg>
