<svg width="367" height="133" viewBox="0 0 367 133" fill="none" xmlns="http://www.w3.org/2000/svg">
<rect x="3.5" y="25.3696" width="360" height="104.13" rx="22.5" fill="#00B2AE" stroke="#00B2AE" stroke-width="7"/>
<rect x="6" y="27.8696" width="355" height="99.1305" rx="20" stroke="white" stroke-width="2"/>
<rect x="33" y="5" width="301" height="44" rx="10" fill="#FF8A00" stroke="#FF8A00" stroke-width="10"/>
<rect x="33" y="5" width="301" height="44" rx="10" stroke="white" stroke-width="2"/>
<path d="M90.36 32.016L87.352 20.832H89.752L91.72 29.504L93.992 20.832H96.488L98.632 29.456L100.616 20.832H103.032L99.912 32H97.272L95.176 24.048L92.984 32L90.36 32.016ZM104.495 32V20.16H106.735V24.24C107.311 23.488 108.303 23.008 109.487 23.008C111.487 23.008 112.943 24.352 112.943 26.8V32H110.703V27.104C110.703 25.68 109.919 24.912 108.735 24.912C107.519 24.912 106.735 25.68 106.735 27.104V32H104.495ZM115.073 32V23.136H117.313V32H115.073ZM116.209 22.08C115.409 22.08 114.833 21.504 114.833 20.768C114.833 20.032 115.409 19.456 116.209 19.456C116.993 19.456 117.585 20.032 117.585 20.768C117.585 21.504 116.993 22.08 116.209 22.08ZM119.878 29.248V24.976H118.822V23.136H119.878V20.944H122.134V23.136H124.118V24.976H122.134V29.264C122.134 29.856 122.374 30.112 123.078 30.112H124.118V32H122.71C121.014 32 119.878 31.28 119.878 29.248ZM129.537 24.832C128.465 24.832 127.617 25.52 127.441 26.736H131.649C131.617 25.568 130.689 24.832 129.537 24.832ZM133.745 29.216C133.265 30.848 131.793 32.144 129.601 32.144C127.025 32.144 125.153 30.352 125.153 27.568C125.153 24.768 126.977 22.992 129.601 22.992C132.161 22.992 133.969 24.736 133.969 27.376C133.969 27.664 133.953 27.952 133.905 28.24H127.425C127.537 29.552 128.433 30.288 129.553 30.288C130.513 30.288 131.041 29.808 131.329 29.216H133.745ZM144.569 20.688C147.065 20.688 149.049 21.952 149.769 24.192H147.193C146.681 23.248 145.753 22.752 144.569 22.752C142.569 22.752 141.177 24.176 141.177 26.4C141.177 28.672 142.585 30.08 144.665 30.08C146.392 30.08 147.497 29.088 147.833 27.504H143.993V25.792H150.041V27.744C149.593 30.016 147.561 32.096 144.585 32.096C141.337 32.096 138.873 29.744 138.873 26.4C138.873 23.056 141.337 20.688 144.569 20.688ZM151.698 32V20.16H153.938V32H151.698ZM164.711 27.568C164.711 30.352 162.663 32.144 160.087 32.144C157.527 32.144 155.591 30.352 155.591 27.568C155.591 24.768 157.591 22.992 160.151 22.992C162.711 22.992 164.711 24.768 164.711 27.568ZM157.863 27.568C157.863 29.328 158.887 30.192 160.087 30.192C161.271 30.192 162.407 29.328 162.407 27.568C162.407 25.792 161.303 24.944 160.119 24.944C158.935 24.944 157.863 25.792 157.863 27.568ZM167.97 32L165.362 23.136H167.634L169.202 29.888L170.898 23.136H173.266L174.93 29.872L176.498 23.136H178.642L176.05 32H173.634L172.018 25.808L170.402 32H167.97ZM183.667 32V20.832H185.907V32H183.667ZM194.328 32V27.104C194.328 25.68 193.544 24.912 192.36 24.912C191.144 24.912 190.36 25.68 190.36 27.104V32H188.12V23.136H190.36V24.24C190.936 23.488 191.896 23.008 193.032 23.008C195.096 23.008 196.568 24.352 196.568 26.8V32H194.328ZM198.938 32V24.976H197.93V23.136H198.938V22.688C198.938 20.512 200.17 19.504 202.666 19.568V21.456C201.578 21.424 201.21 21.776 201.21 22.768V23.136H202.762V24.976H201.21V32H198.938ZM212.581 23.136V32H210.325V30.88C209.765 31.632 208.789 32.112 207.685 32.112C205.621 32.112 204.133 30.768 204.133 28.336V23.136H206.373V28.016C206.373 29.44 207.157 30.208 208.341 30.208C209.557 30.208 210.325 29.44 210.325 28.016V23.136H212.581ZM221.672 29.472C221.672 30.992 220.344 32.144 218.184 32.144C215.96 32.144 214.408 30.848 214.312 29.2H216.568C216.648 29.872 217.272 30.384 218.168 30.384C219.048 30.384 219.528 29.984 219.528 29.472C219.528 27.888 214.52 28.896 214.52 25.648C214.52 24.176 215.832 22.992 218.024 22.992C220.168 22.992 221.464 24.16 221.592 25.92H219.448C219.384 25.232 218.84 24.768 217.96 24.768C217.128 24.768 216.696 25.104 216.696 25.616C216.696 27.232 221.608 26.224 221.672 29.472ZM223.51 32V23.136H225.75V32H223.51ZM224.646 22.08C223.846 22.08 223.27 21.504 223.27 20.768C223.27 20.032 223.846 19.456 224.646 19.456C225.43 19.456 226.022 20.032 226.022 20.768C226.022 21.504 225.43 22.08 224.646 22.08ZM236.523 27.568C236.523 30.352 234.475 32.144 231.899 32.144C229.339 32.144 227.403 30.352 227.403 27.568C227.403 24.768 229.403 22.992 231.963 22.992C234.523 22.992 236.523 24.768 236.523 27.568ZM229.675 27.568C229.675 29.328 230.699 30.192 231.899 30.192C233.083 30.192 234.219 29.328 234.219 27.568C234.219 25.792 233.115 24.944 231.931 24.944C230.747 24.944 229.675 25.792 229.675 27.568ZM244.375 32V27.104C244.375 25.68 243.591 24.912 242.407 24.912C241.191 24.912 240.407 25.68 240.407 27.104V32H238.167V23.136H240.407V24.24C240.983 23.488 241.943 23.008 243.079 23.008C245.142 23.008 246.615 24.352 246.615 26.8V32H244.375ZM254.797 25.904H256.573C257.837 25.904 258.397 25.28 258.397 24.288C258.397 23.264 257.837 22.656 256.573 22.656H254.797V25.904ZM260.701 24.288C260.701 25.984 259.549 27.712 256.669 27.712H254.797V32H252.557V20.832H256.669C259.357 20.832 260.701 22.352 260.701 24.288ZM261.715 27.536C261.715 24.768 263.508 22.992 265.764 22.992C267.188 22.992 268.164 23.664 268.692 24.4V23.136H270.948V32H268.692V30.704C268.164 31.472 267.156 32.144 265.748 32.144C263.508 32.144 261.715 30.304 261.715 27.536ZM268.692 27.568C268.692 25.888 267.572 24.96 266.34 24.96C265.14 24.96 264.004 25.856 264.004 27.536C264.004 29.216 265.14 30.176 266.34 30.176C267.572 30.176 268.692 29.248 268.692 27.568ZM272.559 27.568C272.559 24.784 274.383 22.992 276.943 22.992C279.151 22.992 280.639 24.144 281.119 26.128H278.703C278.447 25.376 277.855 24.896 276.927 24.896C275.679 24.896 274.847 25.84 274.847 27.568C274.847 29.296 275.679 30.224 276.927 30.224C277.855 30.224 278.431 29.808 278.703 29.008H281.119C280.639 30.896 279.151 32.144 276.943 32.144C274.383 32.144 272.559 30.352 272.559 27.568ZM282.76 32V20.16H285V26.896L287.976 23.136H290.888L286.984 27.584L290.92 32H288.008L285 28.224V32H282.76ZM291.528 27.536C291.528 24.768 293.32 22.992 295.576 22.992C297 22.992 297.976 23.664 298.504 24.4V23.136H300.76V32H298.504V30.704C297.976 31.472 296.968 32.144 295.56 32.144C293.32 32.144 291.528 30.304 291.528 27.536ZM298.504 27.568C298.504 25.888 297.384 24.96 296.152 24.96C294.952 24.96 293.816 25.856 293.816 27.536C293.816 29.216 294.952 30.176 296.152 30.176C297.384 30.176 298.504 29.248 298.504 27.568ZM302.372 27.536C302.372 24.768 304.164 22.992 306.42 22.992C307.812 22.992 308.82 23.632 309.348 24.4V23.136H311.604V32.064C311.604 34.464 310.132 36.368 307.22 36.368C304.724 36.368 302.98 35.12 302.756 33.088H304.98C305.204 33.888 306.036 34.416 307.156 34.416C308.388 34.416 309.348 33.712 309.348 32.064V30.688C308.82 31.456 307.812 32.144 306.42 32.144C304.164 32.144 302.372 30.304 302.372 27.536ZM309.348 27.568C309.348 25.888 308.228 24.96 306.996 24.96C305.796 24.96 304.66 25.856 304.66 27.536C304.66 29.216 305.796 30.176 306.996 30.176C308.228 30.176 309.348 29.248 309.348 27.568ZM317.6 24.832C316.528 24.832 315.68 25.52 315.504 26.736H319.712C319.68 25.568 318.752 24.832 317.6 24.832ZM321.808 29.216C321.328 30.848 319.856 32.144 317.664 32.144C315.088 32.144 313.215 30.352 313.215 27.568C313.215 24.768 315.039 22.992 317.664 22.992C320.224 22.992 322.032 24.736 322.032 27.376C322.032 27.664 322.016 27.952 321.968 28.24H315.488C315.6 29.552 316.496 30.288 317.616 30.288C318.576 30.288 319.104 29.808 319.392 29.216H321.808Z" fill="white"/>
<path d="M84.5853 106.172V78.7066H79.8234V71.0587H93.1471V106.172H84.5853ZM108.297 102.131C108.297 104.584 106.325 106.557 103.439 106.557C100.505 106.557 98.5332 104.584 98.5332 102.131C98.5332 99.582 100.505 97.6099 103.439 97.6099C106.325 97.6099 108.297 99.582 108.297 102.131ZM112.637 80.9673C112.926 74.0409 117.447 70.241 124.614 70.241C132.022 70.241 136.014 74.4738 136.014 79.7648C136.014 84.3824 133.128 86.8355 130.723 87.6532V87.8456C134.234 89 136.639 91.6936 136.639 96.3112C136.639 102.228 132.407 106.46 125.047 106.46C117.736 106.46 112.445 102.997 112.204 95.0606H120.189C120.237 97.8023 121.728 99.6301 124.759 99.6301C127.308 99.6301 128.703 97.9947 128.703 95.6859C128.703 92.5594 126.827 91.3088 122.546 91.3088H121.007V84.6229H122.546C125.336 84.6229 128.029 83.9495 128.029 80.7749C128.029 78.418 126.635 77.1193 124.422 77.1193C121.776 77.1193 120.814 79.0433 120.67 80.9673H112.637ZM141.472 88.1342C141.472 77.8408 144.983 70.3372 154.988 70.3372C164.993 70.3372 168.504 77.8408 168.504 88.1342C168.504 98.5238 164.993 106.027 154.988 106.027C144.983 106.027 141.472 98.5238 141.472 88.1342ZM160.423 88.1342C160.423 82.747 159.846 78.0332 154.988 78.0332C150.13 78.0332 149.553 82.747 149.553 88.1342C149.553 93.7138 150.13 98.3314 154.988 98.3314C159.846 98.3314 160.423 93.7138 160.423 88.1342ZM172.85 88.1342C172.85 77.8408 176.361 70.3372 186.366 70.3372C196.371 70.3372 199.882 77.8408 199.882 88.1342C199.882 98.5238 196.371 106.027 186.366 106.027C176.361 106.027 172.85 98.5238 172.85 88.1342ZM191.801 88.1342C191.801 82.747 191.224 78.0332 186.366 78.0332C181.508 78.0332 180.93 82.747 180.93 88.1342C180.93 93.7138 181.508 98.3314 186.366 98.3314C191.224 98.3314 191.801 93.7138 191.801 88.1342ZM213.751 102.131C213.751 104.584 211.779 106.557 208.893 106.557C205.959 106.557 203.987 104.584 203.987 102.131C203.987 99.582 205.959 97.6099 208.893 97.6099C211.779 97.6099 213.751 99.582 213.751 102.131ZM217.803 88.1342C217.803 77.8408 221.314 70.3372 231.319 70.3372C241.324 70.3372 244.835 77.8408 244.835 88.1342C244.835 98.5238 241.324 106.027 231.319 106.027C221.314 106.027 217.803 98.5238 217.803 88.1342ZM236.754 88.1342C236.754 82.747 236.177 78.0332 231.319 78.0332C226.461 78.0332 225.883 82.747 225.883 88.1342C225.883 93.7138 226.461 98.3314 231.319 98.3314C236.177 98.3314 236.754 93.7138 236.754 88.1342ZM249.18 88.1342C249.18 77.8408 252.692 70.3372 262.696 70.3372C272.701 70.3372 276.213 77.8408 276.213 88.1342C276.213 98.5238 272.701 106.027 262.696 106.027C252.692 106.027 249.18 98.5238 249.18 88.1342ZM268.132 88.1342C268.132 82.747 267.555 78.0332 262.696 78.0332C257.838 78.0332 257.261 82.747 257.261 88.1342C257.261 93.7138 257.838 98.3314 262.696 98.3314C267.555 98.3314 268.132 93.7138 268.132 88.1342ZM280.558 88.1342C280.558 77.8408 284.069 70.3372 294.074 70.3372C304.079 70.3372 307.59 77.8408 307.59 88.1342C307.59 98.5238 304.079 106.027 294.074 106.027C284.069 106.027 280.558 98.5238 280.558 88.1342ZM299.51 88.1342C299.51 82.747 298.932 78.0332 294.074 78.0332C289.216 78.0332 288.639 82.747 288.639 88.1342C288.639 93.7138 289.216 98.3314 294.074 98.3314C298.932 98.3314 299.51 93.7138 299.51 88.1342Z" fill="white"/>
<path d="M52.62 73.4821C52.62 71.7933 51.6794 70.703 49.4561 70.703H46.5915V76.3467H49.4561C51.658 76.3467 52.62 75.1496 52.62 73.4821ZM44.6461 69.0997H49.4561C52.9621 69.0997 54.6295 71.045 54.6295 73.4821C54.6295 75.3847 53.582 77.2019 51.0808 77.7577L54.8219 84H52.4917L48.943 77.9073H46.5915V84H44.6461V69.0997ZM59.5977 74.4441C60.3032 73.2042 61.8424 72.0926 63.9802 72.0926C67.1227 72.0926 69.5384 74.4441 69.5384 78.0997C69.5384 81.734 67.1227 84.1924 63.9802 84.1924C61.8424 84.1924 60.3245 83.038 59.5977 81.8408V89.5582H57.6523V72.285H59.5977V74.4441ZM67.5502 78.0997C67.5502 75.342 65.7331 73.7814 63.574 73.7814C61.4576 73.7814 59.5977 75.4061 59.5977 78.1211C59.5977 80.8788 61.4576 82.4822 63.574 82.4822C65.7331 82.4822 67.5502 80.8575 67.5502 78.0997Z" fill="white"/>
<path d="M317.445 104.634L319.005 98.8835H321.143L318.749 104.634H317.445ZM322.965 94.5652V92.9191H331.495V94.5652H322.965Z" fill="white"/>
<path d="M64.6751 27.7924C64.3668 28.0975 63.8653 28.0975 63.5569 27.7924C63.2962 27.5345 62.876 27.5369 62.6183 27.7976C62.3605 28.0584 62.3628 28.4788 62.6234 28.7367C63.035 29.1439 63.5755 29.3475 64.116 29.3475C64.6565 29.3475 65.1971 29.1439 65.6086 28.7367C65.8693 28.4788 65.8715 28.0584 65.6138 27.7976C65.356 27.5368 64.9358 27.5345 64.6751 27.7924Z" fill="#EDFCFC"/>
<path d="M69.8682 29.3475C70.4088 29.3475 70.9493 29.1439 71.3608 28.7367C71.6214 28.4787 71.6237 28.0583 71.366 27.7975C71.1081 27.5368 70.6879 27.5345 70.4273 27.7924C70.119 28.0974 69.6175 28.0974 69.3092 27.7924C69.0485 27.5344 68.6282 27.5368 68.3705 27.7975C68.1127 28.0583 68.115 28.4787 68.3757 28.7367C68.7871 29.1439 69.3276 29.3475 69.8682 29.3475Z" fill="#EDFCFC"/>
<path d="M69.923 26.0702C70.3909 25.6072 71.1522 25.6071 71.6202 26.0702C71.7496 26.1983 71.9183 26.2622 72.0869 26.2622C72.258 26.2622 72.4291 26.1964 72.5589 26.0651C72.8167 25.8043 72.8143 25.3839 72.5537 25.1259C71.571 24.1536 69.9721 24.1536 68.9894 25.1259C68.7288 25.3839 68.7265 25.8043 68.9843 26.0651C69.2421 26.3258 69.6624 26.3281 69.923 26.0702Z" fill="#EDFCFC"/>
<path d="M62.364 26.0702C62.8319 25.6072 63.5932 25.6071 64.0611 26.0702C64.1906 26.1983 64.3592 26.2622 64.5279 26.2622C64.699 26.2622 64.87 26.1964 64.9998 26.0651C65.2576 25.8043 65.2553 25.3839 64.9946 25.1259C64.0119 24.1536 62.413 24.1536 61.4304 25.1259C61.1697 25.3839 61.1675 25.8043 61.4252 26.0651C61.6831 26.3258 62.1033 26.3281 62.364 26.0702Z" fill="#EDFCFC"/>
<path d="M64.7817 31.22C64.5239 31.4808 64.5262 31.9012 64.7869 32.1591C65.3949 32.7607 66.1935 33.0615 66.9921 33.0615C67.7908 33.0615 68.5894 32.7607 69.1974 32.1591C69.458 31.9012 69.4603 31.4808 69.2026 31.22C68.9448 30.9593 68.5246 30.9569 68.2639 31.2148C67.5627 31.9088 66.4217 31.9087 65.7205 31.2148C65.4597 30.9569 65.0395 30.9593 64.7817 31.22Z" fill="#EDFCFC"/>
<path d="M82.6517 31.3955L81.7328 30.8989C81.1295 30.5729 80.6364 30.0858 80.3068 29.4904L79.8873 28.7325V22.8341C79.8873 15.7574 74.1326 10 67.0591 10H66.9251C63.9999 10 61.2449 10.9594 58.958 12.7746C57.068 14.2748 55.6319 16.2944 54.8305 18.5509L54.3571 17.6956C54.2402 17.4843 54.0178 17.3532 53.7764 17.3532C53.5351 17.3532 53.3127 17.4843 53.1958 17.6956L52.6932 18.6035C52.3637 19.1989 51.8705 19.686 51.2672 20.0121L50.3483 20.5087C50.1337 20.6246 50 20.849 50 21.0929C50 21.3369 50.1337 21.5612 50.3483 21.6771L51.2672 22.1737C51.8705 22.4998 52.3636 22.9869 52.6932 23.5823L53.1958 24.4903C53.3127 24.7015 53.5351 24.8326 53.7764 24.8326C53.8907 24.8326 54.0003 24.8024 54.097 24.749V29.3162C54.097 32.5564 56.2568 35.301 59.2115 36.186C57.3466 37.3669 56.1058 39.4488 56.1058 41.8154V43.3359C56.1058 43.7027 56.4029 44 56.7695 44H77.2148C77.5814 44 77.8785 43.7027 77.8785 43.3359V41.8155C77.8785 39.4473 76.636 37.3643 74.7691 36.1839C75.9859 35.8184 77.0968 35.133 77.9711 34.1947C78.0313 34.2834 78.0881 34.3747 78.1404 34.4692L78.6429 35.3771C78.7598 35.5885 78.9822 35.7195 79.2236 35.7195C79.4649 35.7195 79.6873 35.5885 79.8042 35.3772L80.3068 34.4692C80.6364 33.8738 81.1295 33.3868 81.7328 33.0607L82.6517 32.5641C82.8663 32.4482 83 32.2238 83 31.9799C83 31.736 82.8663 31.5115 82.6517 31.3955ZM53.7764 22.8031C53.3558 22.0976 52.7649 21.5111 52.0536 21.093C52.7649 20.6748 53.3559 20.0883 53.7764 19.3829C54.197 20.0884 54.7879 20.6749 55.4993 21.093C54.7879 21.5111 54.197 22.0976 53.7764 22.8031ZM74.0889 22.4862C72.8859 20.9715 71.2074 19.9168 69.3074 19.5159C68.7993 19.4088 68.0893 19.3101 67.1972 19.2226C65.6527 19.0711 65.0473 17.8821 65.1325 16.7709C65.2133 15.7168 65.929 14.6888 67.3464 14.6888C67.4016 14.6888 67.4579 14.6903 67.5152 14.6935C67.9065 14.7152 68.3007 14.7701 68.6866 14.8568C72.1826 15.6412 74.5311 19.0096 74.0889 22.4862ZM64.7884 19.4936C64.7497 19.5011 64.7121 19.5086 64.6768 19.516C62.7768 19.9167 61.0983 20.9716 59.8953 22.4863C59.4994 19.374 61.3403 16.3488 64.2385 15.1861C63.9941 15.6461 63.8482 16.1555 63.8088 16.6694C63.7314 17.6796 64.0566 18.7357 64.7884 19.4936ZM59.6825 24.8145C59.8945 24.7872 60.0838 24.6588 60.1856 24.4647C61.1759 22.5755 62.9126 21.2454 64.9506 20.8156C65.3548 20.7303 66.0405 20.6407 67.0453 20.5417C67.0529 20.5425 68.5728 20.7184 69.0335 20.8155C71.0716 21.2454 72.8084 22.5754 73.7986 24.4646C73.9004 24.6588 74.0897 24.7871 74.3017 24.8144C74.9733 24.9587 75.4582 25.5491 75.4582 26.2298C75.4582 26.9197 74.9605 27.5177 74.2747 27.6517C73.9648 27.7123 73.7405 27.9828 73.7382 28.2987C73.737 28.4609 73.7337 28.7479 73.7298 28.827C73.5523 32.3771 70.5928 35.158 66.9921 35.158C63.3914 35.158 60.4318 32.3771 60.2544 28.827C60.2504 28.7478 60.2471 28.4609 60.2459 28.2987C60.2437 27.9828 60.0193 27.7123 59.7094 27.6517C59.0237 27.5177 58.5259 26.9198 58.5259 26.2298C58.526 25.5492 59.0109 24.9588 59.6825 24.8145ZM65.826 36.4026C66.2095 36.4578 66.599 36.4861 66.9921 36.4861C67.3852 36.4861 67.7746 36.4578 68.1582 36.4026V37.4561C68.1582 38.1003 67.6351 38.6243 66.9921 38.6243C66.3491 38.6243 65.826 38.1002 65.826 37.4561V36.4026ZM76.551 41.8155V42.6719H57.4332V41.8155C57.4332 38.8768 59.8229 36.4861 62.7602 36.4861H64.4985V37.4561C64.4985 38.8325 65.6171 39.9523 66.9921 39.9523C68.367 39.9523 69.4857 38.8325 69.4857 37.4561V36.4861H71.224C74.1613 36.4861 76.551 38.8768 76.551 41.8155ZM72.7208 35.1579H71.4437C71.8303 34.9039 72.1976 34.6158 72.5409 34.2945C74.0595 32.8727 74.9526 30.9546 75.0556 28.8932C75.0569 28.8685 75.058 28.8349 75.059 28.7962C76.0853 28.3732 76.7857 27.367 76.7857 26.2299C76.7857 25.1461 76.1494 24.1819 75.2013 23.7274C75.2458 23.5465 75.288 23.3532 75.3274 23.147C75.7288 21.0446 75.2909 18.8929 74.0944 17.0883C72.8993 15.2859 71.0819 14.0332 68.9772 13.5608C68.52 13.4583 68.0528 13.3932 67.5887 13.3675C67.5073 13.3629 67.4276 13.3613 67.3486 13.3612C66.8368 13.3391 65.4803 13.4547 65.0072 13.5608C62.9024 14.0331 61.0851 15.2858 59.89 17.0882C58.6934 18.8928 58.2555 21.0445 58.6569 23.147C58.6883 23.3116 58.7304 23.5139 58.7829 23.7274C57.8348 24.1819 57.1985 25.1461 57.1985 26.2299C57.1985 27.3671 57.8989 28.3732 58.9253 28.7962C58.9263 28.835 58.9273 28.8687 58.9286 28.8934C59.0316 30.9546 59.9247 32.8728 61.4433 34.2945C61.7865 34.6158 62.1538 34.9039 62.5405 35.1579H61.2633C58.0437 35.1579 55.4243 32.5374 55.4243 29.3163V22.8341C55.4243 22.8306 55.4244 22.8271 55.4244 22.8236C55.675 22.5668 55.9644 22.3473 56.2856 22.1738L57.2045 21.6772C57.4191 21.5613 57.5528 21.3369 57.5528 21.093C57.5528 20.849 57.4191 20.6247 57.2045 20.5087L56.2856 20.0121C56.132 19.9291 55.9857 19.8356 55.8473 19.7327C57.2298 14.7669 61.7362 11.3281 66.9251 11.3281H67.0591C73.4006 11.3281 78.5598 16.4897 78.5598 22.8341V28.7326L78.1403 29.4904C77.8108 30.0858 77.3177 30.5729 76.7143 30.899L75.7954 31.3956C75.5808 31.5115 75.4471 31.7359 75.4471 31.9798C75.4471 32.2237 75.5808 32.4481 75.7954 32.564L76.7143 33.0607C76.8244 33.1202 76.9308 33.1852 77.0332 33.2551C75.9286 34.4709 74.3871 35.1579 72.7208 35.1579ZM79.2236 33.6899C78.8029 32.9844 78.212 32.3979 77.5007 31.9798C78.2121 31.5616 78.803 30.9752 79.2236 30.2697C79.6441 30.9751 80.2351 31.5616 80.9464 31.9798C80.2351 32.3979 79.6441 32.9844 79.2236 33.6899Z" fill="#EDFCFC"/>
</svg>
